<svg width="70" height="72" viewBox="0 0 70 72" fill="none" xmlns="http://www.w3.org/2000/svg">
<path d="M39.5666 32.738C40.1889 31.9191 40.4992 30.9053 40.4417 29.8784C40.4749 29.2208 40.374 28.5634 40.1452 27.9461C39.9164 27.3288 39.5645 26.7644 39.1109 26.2873C38.6572 25.8102 38.1113 25.4303 37.5063 25.1707C36.9012 24.9112 36.2498 24.7773 35.5914 24.7773C34.9331 24.7773 34.2816 24.9112 33.6766 25.1707C33.0715 25.4303 32.5256 25.8102 32.072 26.2873C31.6183 26.7644 31.2664 27.3288 31.0376 27.9461C30.8088 28.5634 30.708 29.2208 30.7411 29.8784C30.7826 30.8891 31.0795 31.8729 31.6039 32.738C29.8435 33.7205 28.5046 35.3148 27.8413 37.2186C27.1779 39.1224 27.236 41.2034 28.0047 43.0672C28.1134 43.3707 28.3174 43.6308 28.5863 43.8085C28.8552 43.9863 29.1744 44.0722 29.4962 44.0533H41.8222C42.1407 44.0558 42.4526 43.9633 42.7183 43.7877C42.9839 43.612 43.1912 43.3612 43.3137 43.0672C44.0193 41.1812 44.0296 39.1054 43.3429 37.2123C42.6562 35.3193 41.3173 33.733 39.5666 32.738ZM33.8473 30.0016C33.8448 29.6544 33.9457 29.3143 34.1371 29.0246C34.3285 28.7349 34.6017 28.5086 34.9221 28.3746C35.2424 28.2406 35.5953 28.2049 35.936 28.2721C36.2767 28.3392 36.5897 28.5062 36.8352 28.7517C37.0807 28.9972 37.2477 29.3102 37.3148 29.6509C37.3819 29.9915 37.3462 30.3445 37.2122 30.6648C37.0782 30.9851 36.852 31.2584 36.5623 31.4497C36.2726 31.6411 35.9325 31.742 35.5852 31.7396C35.3556 31.7446 35.1274 31.7031 34.9142 31.6176C34.7011 31.532 34.5075 31.4042 34.3451 31.2418C34.1827 31.0794 34.0548 30.8858 33.9693 30.6726C33.8837 30.4595 33.8422 30.2312 33.8473 30.0016ZM40.565 40.9471H30.4946C30.3518 40.2052 30.3747 39.441 30.5616 38.7089C30.7486 37.9769 31.095 37.2952 31.5761 36.7127C32.0572 36.1302 32.6611 35.6612 33.3446 35.3392C34.0281 35.0172 34.7743 34.8502 35.5298 34.8502C36.2853 34.8502 37.0315 35.0172 37.715 35.3392C38.3985 35.6612 39.0023 36.1302 39.4834 36.7127C39.9645 37.2952 40.311 37.9769 40.4979 38.7089C40.6849 39.441 40.7078 40.2052 40.565 40.9471Z" fill="url(#paint0_linear_754_30665)"/>
<path d="M1.63815 48.4159C1.95751 48.4159 2.2697 48.5106 2.53524 48.688C2.80078 48.8655 3.00774 49.1176 3.12995 49.4127C3.25216 49.7077 3.28415 50.0324 3.22185 50.3456C3.15954 50.6589 3.00575 50.9466 2.77993 51.1724C2.55411 51.3982 2.26639 51.552 1.95317 51.6143C1.63994 51.6766 1.31528 51.6446 1.02023 51.5224C0.725178 51.4002 0.472999 51.1933 0.295572 50.9277C0.118145 50.6622 0.0234375 50.35 0.0234375 50.0306C0.0234375 49.6024 0.193549 49.1917 0.496367 48.8888C0.799184 48.586 1.2099 48.4159 1.63815 48.4159Z" fill="url(#paint1_linear_754_30665)"/>
<path d="M17.1821 65.4509C17.5039 65.4509 17.8185 65.5463 18.086 65.7251C18.3536 65.9039 18.5621 66.158 18.6853 66.4553C18.8084 66.7526 18.8407 67.0797 18.7779 67.3954C18.7151 67.711 18.5601 68.0009 18.3326 68.2284C18.105 68.456 17.8151 68.611 17.4995 68.6737C17.1839 68.7365 16.8568 68.7043 16.5595 68.5811C16.2622 68.458 16.0081 68.2494 15.8293 67.9819C15.6505 67.7143 15.5551 67.3997 15.5551 67.0779C15.5551 66.6464 15.7265 66.2326 16.0316 65.9275C16.3367 65.6223 16.7506 65.4509 17.1821 65.4509Z" fill="url(#paint2_linear_754_30665)"/>
<path d="M53.0143 65.4509C53.3361 65.4509 53.6507 65.5463 53.9182 65.7251C54.1858 65.9039 54.3943 66.158 54.5175 66.4553C54.6406 66.7526 54.6729 67.0797 54.6101 67.3954C54.5473 67.711 54.3924 68.0009 54.1648 68.2284C53.9373 68.456 53.6473 68.611 53.3317 68.6737C53.0161 68.7365 52.689 68.7043 52.3917 68.5811C52.0944 68.458 51.8403 68.2494 51.6615 67.9819C51.4827 67.7143 51.3873 67.3997 51.3873 67.0779C51.3873 66.6464 51.5587 66.2326 51.8638 65.9275C52.1689 65.6223 52.5828 65.4509 53.0143 65.4509Z" fill="url(#paint3_linear_754_30665)"/>
<path d="M66.9663 53.0141C67.2856 53.0141 67.5978 53.1088 67.8634 53.2862C68.1289 53.4636 68.3359 53.7158 68.4581 54.0109C68.5803 54.3059 68.6123 54.6306 68.55 54.9438C68.4877 55.2571 68.3339 55.5448 68.1081 55.7706C67.8822 55.9964 67.5945 56.1502 67.2813 56.2125C66.9681 56.2748 66.6434 56.2428 66.3484 56.1206C66.0533 55.9984 65.8011 55.7915 65.6237 55.5259C65.4463 55.2604 65.3516 54.9482 65.3516 54.6288C65.3516 54.2006 65.5217 53.7899 65.8245 53.487C66.1273 53.1842 66.538 53.0141 66.9663 53.0141Z" fill="url(#paint4_linear_754_30665)"/>
<path d="M60.7178 3.25485C61.0372 3.25485 61.3493 3.34954 61.6149 3.52697C61.8804 3.70439 62.0874 3.95659 62.2096 4.25164C62.3318 4.54669 62.3638 4.87134 62.3015 5.18456C62.2392 5.49778 62.0854 5.7855 61.8596 6.01133C61.6338 6.23715 61.346 6.39094 61.0328 6.45324C60.7196 6.51555 60.3949 6.48356 60.0999 6.36134C59.8048 6.23913 59.5526 6.03217 59.3752 5.76663C59.1978 5.5011 59.1031 5.18892 59.1031 4.86956C59.1031 4.44131 59.2732 4.03062 59.576 3.7278C59.8789 3.42498 60.2896 3.25485 60.7178 3.25485Z" fill="url(#paint5_linear_754_30665)"/>
<path d="M1.63892 14.187C1.9339 14.187 2.22226 14.2745 2.46753 14.4384C2.7128 14.6022 2.90396 14.8352 3.01684 15.1077C3.12972 15.3802 3.15927 15.6801 3.10172 15.9694C3.04417 16.2587 2.90213 16.5245 2.69355 16.7331C2.48496 16.9417 2.2192 17.0837 1.92988 17.1413C1.64057 17.1988 1.3407 17.1693 1.06817 17.0564C0.795645 16.9435 0.562714 16.7523 0.398831 16.5071C0.234948 16.2618 0.147461 15.9734 0.147461 15.6785C0.147461 15.2829 0.304596 14.9035 0.584297 14.6238C0.863999 14.3441 1.24336 14.187 1.63892 14.187Z" fill="url(#paint6_linear_754_30665)"/>
<path d="M63.9593 23.1616V11.834C63.9647 11.4794 63.8436 11.1346 63.6177 10.8612C63.3918 10.5879 63.0759 10.404 62.7267 10.3425L35.9792 4.99301H35.3505L8.47973 10.3425C8.13051 10.404 7.81464 10.5879 7.58875 10.8612C7.36286 11.1346 7.24175 11.4794 7.24712 11.834V21.7934C7.24712 34.3537 7.24713 40.7016 9.12069 46.2976C11.475 53.5084 16.2082 57.4897 24.5406 66.081L26.5374 68.1887C26.8365 68.482 27.2292 68.6608 27.6468 68.6941H43.6706C43.8826 68.7053 44.0941 68.6652 44.2872 68.5773C44.4803 68.4893 44.6494 68.356 44.78 68.1887L46.7768 66.081C55.2325 57.2432 59.9657 53.5084 62.1967 46.2976C64.0826 40.7016 63.9593 34.4769 63.9593 23.1616ZM59.3494 45.3485C57.2416 51.6964 52.8782 55.308 44.5581 64.0102L42.9434 65.6372H28.2507L26.7593 64.0102C18.6734 55.801 14.1867 51.943 12.0789 45.5211C10.3286 40.1716 10.3286 33.7004 10.4642 21.892V13.2638L35.7203 8.33336L60.9764 13.2638V23.3465C60.8038 33.9839 60.9764 40.1962 59.3494 45.2992V45.3485Z" fill="url(#paint7_linear_754_30665)"/>
<path d="M57.1059 17.4281C57.1113 17.0736 56.9902 16.7287 56.7643 16.4554C56.5384 16.1821 56.2225 15.9982 55.8733 15.9367L35.9667 11.9553H35.3381L15.3082 15.9367C14.959 15.9982 14.6432 16.1821 14.4173 16.4554C14.1914 16.7287 14.0703 17.0736 14.0756 17.4281C14.0756 32.1084 13.8291 39.085 15.5671 44.1756C17.4407 49.784 21.2987 53.0134 29.3846 61.3459C29.6869 61.6417 30.0844 61.8208 30.5063 61.8512H40.6999C40.9139 61.8645 41.1279 61.8254 41.3233 61.7373C41.5188 61.6493 41.6898 61.5149 41.8216 61.3459C43.4363 59.7311 44.8045 58.2397 46.0494 56.9948C58.1043 44.681 57.1059 45.1741 57.1059 17.4281ZM52.7425 43.1896C51.2511 47.7872 47.8121 50.6468 40.059 58.7327H31.0979C23.5051 51.029 20.0045 48.0337 18.4144 43.3128C16.8244 38.5919 17.0462 31.6154 17.0462 18.7963L35.449 15.1971L53.8642 18.7963C53.9997 32.4905 54.2463 38.8385 52.7548 43.1896H52.7425Z" fill="url(#paint8_linear_754_30665)"/>
<path d="M35.5849 19.6736C32.4352 19.6736 29.3562 20.6075 26.7373 22.3574C24.1184 24.1073 22.0773 26.5945 20.8719 29.5045C19.6666 32.4144 19.3512 35.6165 19.9657 38.7057C20.5802 41.7949 22.0969 44.6325 24.3241 46.8597C26.5513 49.0869 29.3889 50.6036 32.4781 51.2181C35.5673 51.8326 38.7693 51.5172 41.6793 50.3118C44.5892 49.1065 47.0764 47.0653 48.8263 44.4464C50.5762 41.8275 51.5102 38.7485 51.5102 35.5988C51.5005 31.3782 49.8195 27.3332 46.835 24.3487C43.8506 21.3643 39.8056 19.6833 35.5849 19.6736ZM35.5849 48.4179C33.0496 48.4179 30.5711 47.6661 28.463 46.2575C26.3549 44.8489 24.7119 42.8469 23.7416 40.5045C22.7714 38.1621 22.5175 35.5846 23.0122 33.0979C23.5068 30.6113 24.7277 28.3271 26.5205 26.5343C28.3133 24.7415 30.5974 23.5206 33.0841 23.026C35.5707 22.5314 38.1482 22.7853 40.4906 23.7555C42.833 24.7258 44.8351 26.3688 46.2436 28.4769C47.6522 30.585 48.4041 33.0634 48.4041 35.5988C48.4073 37.2831 48.0779 38.9516 47.4349 40.5083C46.7918 42.0651 45.8477 43.4795 44.6567 44.6705C43.4656 45.8616 42.0512 46.8057 40.4944 47.4487C38.9377 48.0918 37.2693 48.4212 35.5849 48.4179Z" fill="url(#paint9_linear_754_30665)"/>
<path d="M4.73257 57.7472C3.79591 57.7472 2.88032 58.0251 2.10168 58.5457C1.32304 59.0664 0.716373 59.8064 0.358493 60.672C0.00061232 61.5376 -0.0923846 62.4899 0.0912486 63.4084C0.274882 64.3268 0.726893 65.1702 1.39008 65.8317C2.05326 66.4931 2.89779 66.9429 3.81675 67.1242C4.73572 67.3054 5.6878 67.2099 6.55246 66.8498C7.41713 66.4896 8.15548 65.8811 8.67409 65.1011C9.1927 64.3211 9.46824 63.4048 9.4658 62.4681C9.46743 61.8466 9.34601 61.231 9.10857 60.6567C8.87113 60.0824 8.52236 59.5608 8.08235 59.1219C7.64234 58.6831 7.11983 58.3356 6.5449 58.0997C5.96998 57.8638 5.35402 57.7439 4.73257 57.7472ZM4.73257 63.9102C4.41321 63.9102 4.10102 63.8155 3.83549 63.6381C3.56995 63.4607 3.36299 63.2085 3.24077 62.9134C3.11856 62.6184 3.08659 62.2937 3.1489 61.9805C3.2112 61.6673 3.36499 61.3796 3.59081 61.1538C3.81663 60.9279 4.10433 60.7741 4.41756 60.7118C4.73078 60.6495 5.05546 60.6815 5.35051 60.8037C5.64556 60.9259 5.89774 61.1329 6.07517 61.3984C6.2526 61.664 6.3473 61.9762 6.3473 62.2955C6.35057 62.5108 6.31138 62.7246 6.23199 62.9248C6.15261 63.1249 6.03457 63.3075 5.88463 63.462C5.73468 63.6165 5.55576 63.74 5.35809 63.8254C5.16042 63.9107 4.94787 63.9563 4.73257 63.9595V63.9102Z" fill="url(#paint10_linear_754_30665)"/>
<path d="M63.8358 59.3625C62.6195 59.3626 61.4304 59.7226 60.4183 60.3971C59.4062 61.0716 58.6163 62.0305 58.1481 63.1531C57.6798 64.2756 57.5542 65.5116 57.7871 66.7054C58.0199 67.8992 58.6008 68.9974 59.4566 69.8618C60.3123 70.7261 61.4047 71.3178 62.5961 71.5625C63.7875 71.8072 65.0247 71.694 66.1519 71.2369C67.2791 70.7799 68.2458 69.9996 68.9304 68.9942C69.6149 67.9888 69.9867 66.8034 69.9989 65.5872C70.007 64.7727 69.8536 63.9646 69.5475 63.2097C69.2414 62.4549 68.7888 61.7682 68.2157 61.1894C67.6426 60.6106 66.9604 60.1511 66.2086 59.8375C65.4569 59.5239 64.6504 59.3625 63.8358 59.3625ZM63.8358 68.6934C63.2191 68.6909 62.6168 68.5056 62.1054 68.1609C61.5939 67.8162 61.1961 67.3276 60.9624 66.7569C60.7286 66.1861 60.6693 65.5589 60.792 64.9544C60.9147 64.35 61.2139 63.7955 61.6518 63.3611C62.0896 62.9267 62.6465 62.6319 63.2519 62.5139C63.8573 62.396 64.484 62.4602 65.0529 62.6985C65.6218 62.9368 66.1073 63.3384 66.4479 63.8526C66.7885 64.3668 66.9691 64.9704 66.9666 65.5872C66.9538 66.4113 66.619 67.1976 66.034 67.778C65.4489 68.3585 64.66 68.687 63.8358 68.6934Z" fill="url(#paint11_linear_754_30665)"/>
<path d="M4.73231 9.4664C5.6695 9.46884 6.58631 9.19298 7.36657 8.67383C8.14683 8.15468 8.75541 7.41559 9.11518 6.55021C9.47495 5.68483 9.56972 4.73211 9.38748 3.81281C9.20524 2.89351 8.7542 2.04899 8.09151 1.3863C7.42882 0.72361 6.58431 0.272589 5.66501 0.0903505C4.74571 -0.0918882 3.793 0.00288171 2.92762 0.362654C2.06224 0.722426 1.32314 1.33098 0.803983 2.11124C0.28483 2.8915 0.00899216 3.80832 0.0114296 4.7455C0.030506 5.99161 0.53401 7.18133 1.41525 8.06257C2.29648 8.9438 3.4862 9.44733 4.73231 9.4664ZM4.73231 3.30337C5.05167 3.30337 5.36386 3.39806 5.6294 3.57549C5.89494 3.75291 6.1019 4.00511 6.22411 4.30016C6.34633 4.59521 6.37831 4.91986 6.31601 5.23308C6.25371 5.54631 6.09992 5.83402 5.8741 6.05985C5.64827 6.28567 5.36055 6.43946 5.04733 6.50176C4.73411 6.56407 4.40944 6.53208 4.11439 6.40987C3.81934 6.28765 3.56716 6.08069 3.38974 5.81515C3.21231 5.54962 3.1176 5.23744 3.1176 4.91808C3.11434 4.70279 3.15353 4.48895 3.23291 4.2888C3.3123 4.08866 3.43034 3.90613 3.58028 3.75161C3.73023 3.59708 3.90914 3.4736 4.10681 3.38823C4.30448 3.30287 4.51702 3.25727 4.73231 3.25406V3.30337Z" fill="url(#paint12_linear_754_30665)"/>
<defs>
<linearGradient id="paint0_linear_754_30665" x1="27.9324" y1="26.269" x2="41.1174" y2="39.2632" gradientUnits="userSpaceOnUse">
<stop stop-color="#32C4F8"/>
<stop offset="0.526042" stop-color="#47C6F5"/>
<stop offset="1" stop-color="#EA78F8"/>
</linearGradient>
<linearGradient id="paint1_linear_754_30665" x1="0.131227" y1="48.6658" x2="2.31774" y2="51.1885" gradientUnits="userSpaceOnUse">
<stop stop-color="#32C4F8"/>
<stop offset="0.526042" stop-color="#47C6F5"/>
<stop offset="1" stop-color="#EA78F8"/>
</linearGradient>
<linearGradient id="paint2_linear_754_30665" x1="15.6637" y1="65.7027" x2="17.8669" y2="68.2446" gradientUnits="userSpaceOnUse">
<stop stop-color="#32C4F8"/>
<stop offset="0.526042" stop-color="#47C6F5"/>
<stop offset="1" stop-color="#EA78F8"/>
</linearGradient>
<linearGradient id="paint3_linear_754_30665" x1="51.4959" y1="65.7027" x2="53.6991" y2="68.2446" gradientUnits="userSpaceOnUse">
<stop stop-color="#32C4F8"/>
<stop offset="0.526042" stop-color="#47C6F5"/>
<stop offset="1" stop-color="#EA78F8"/>
</linearGradient>
<linearGradient id="paint4_linear_754_30665" x1="65.4594" y1="53.264" x2="67.6458" y2="55.7867" gradientUnits="userSpaceOnUse">
<stop stop-color="#32C4F8"/>
<stop offset="0.526042" stop-color="#47C6F5"/>
<stop offset="1" stop-color="#EA78F8"/>
</linearGradient>
<linearGradient id="paint5_linear_754_30665" x1="59.2109" y1="3.50472" x2="61.3974" y2="6.02741" gradientUnits="userSpaceOnUse">
<stop stop-color="#32C4F8"/>
<stop offset="0.526042" stop-color="#47C6F5"/>
<stop offset="1" stop-color="#EA78F8"/>
</linearGradient>
<linearGradient id="paint6_linear_754_30665" x1="0.247023" y1="14.4178" x2="2.26662" y2="16.7479" gradientUnits="userSpaceOnUse">
<stop stop-color="#32C4F8"/>
<stop offset="0.526042" stop-color="#47C6F5"/>
<stop offset="1" stop-color="#EA78F8"/>
</linearGradient>
<linearGradient id="paint7_linear_754_30665" x1="9.13991" y1="9.92189" x2="52.6965" y2="54.6621" gradientUnits="userSpaceOnUse">
<stop stop-color="#32C4F8"/>
<stop offset="0.526042" stop-color="#47C6F5"/>
<stop offset="1" stop-color="#EA78F8"/>
</linearGradient>
<linearGradient id="paint8_linear_754_30665" x1="15.5009" y1="15.8161" x2="49.6307" y2="49.7989" gradientUnits="userSpaceOnUse">
<stop stop-color="#32C4F8"/>
<stop offset="0.526042" stop-color="#47C6F5"/>
<stop offset="1" stop-color="#EA78F8"/>
</linearGradient>
<linearGradient id="paint9_linear_754_30665" x1="20.7228" y1="22.1379" x2="42.2873" y2="47.0181" gradientUnits="userSpaceOnUse">
<stop stop-color="#32C4F8"/>
<stop offset="0.526042" stop-color="#47C6F5"/>
<stop offset="1" stop-color="#EA78F8"/>
</linearGradient>
<linearGradient id="paint10_linear_754_30665" x1="0.315354" y1="58.4796" x2="6.72468" y2="65.8743" gradientUnits="userSpaceOnUse">
<stop stop-color="#32C4F8"/>
<stop offset="0.526042" stop-color="#47C6F5"/>
<stop offset="1" stop-color="#EA78F8"/>
</linearGradient>
<linearGradient id="paint11_linear_754_30665" x1="58.0845" y1="60.3162" x2="66.4299" y2="69.9448" gradientUnits="userSpaceOnUse">
<stop stop-color="#32C4F8"/>
<stop offset="0.526042" stop-color="#47C6F5"/>
<stop offset="1" stop-color="#EA78F8"/>
</linearGradient>
<linearGradient id="paint12_linear_754_30665" x1="0.327377" y1="0.732444" x2="6.73666" y2="8.12718" gradientUnits="userSpaceOnUse">
<stop stop-color="#32C4F8"/>
<stop offset="0.526042" stop-color="#47C6F5"/>
<stop offset="1" stop-color="#EA78F8"/>
</linearGradient>
</defs>
</svg>
