<svg width="68" height="81" viewBox="0 0 68 81" fill="none" xmlns="http://www.w3.org/2000/svg">
<g filter="url(#filter0_ddddddd_754_30726)">
<path d="M62.1857 12.1485C59.6488 12.8606 57.0269 13.2249 54.3919 13.2313C46.7052 13.2313 41.196 10.1019 37.9476 3.86689C37.2457 2.45578 36.2179 1.23212 34.9491 0.297217C34.644 0.068575 34.2629 -0.0342101 33.8842 0.0100747C33.5056 0.0543595 33.1584 0.242329 32.9144 0.535191L30.3918 3.53372C27.5112 7.09352 23.6931 9.77751 19.3683 11.2829C15.0435 12.7883 10.3841 13.0551 5.91573 12.0534C5.6938 11.9963 5.46192 11.9897 5.23711 12.034C5.01229 12.0783 4.80025 12.1724 4.61653 12.3093C4.43282 12.4463 4.28208 12.6226 4.1754 12.8254C4.06871 13.0282 4.00878 13.2523 4 13.4812V45.0133C4 54.5325 10.8419 61.3386 18.9926 66.0149C23.6207 68.5658 28.5331 70.5627 33.6283 71.9644C33.8782 71.9644 34.1162 72.0834 34.3541 71.9644C39.4628 70.6026 44.3799 68.6037 48.9898 66.0149C57.1406 61.3386 63.9824 54.4968 63.9824 45.0133V13.5883C64.0205 13.357 63.9964 13.1198 63.9125 12.901C63.8286 12.6821 63.688 12.4895 63.5051 12.343C63.3222 12.1964 63.1036 12.1012 62.8718 12.067C62.6399 12.0328 62.4031 12.061 62.1857 12.1485ZM61.1029 45.0133C61.1029 52.0932 56.5456 58.2092 47.669 63.3734C43.3609 65.7218 38.8185 67.6122 34.1162 69.0135C29.371 67.7241 24.8119 65.8284 20.5514 63.3734C11.6748 58.2092 7.11752 52.0932 7.11752 45.0133V15.3851C8.58124 15.6525 10.0682 15.7721 11.5558 15.742C15.6382 15.7676 19.6727 14.8626 23.353 13.0956C27.0332 11.3287 30.2625 8.74632 32.7954 5.54464L34.2351 3.74791C34.6456 4.15932 34.9693 4.6489 35.1871 5.18767C39.8752 14.3022 48.145 16.2299 54.2253 16.2299C56.5249 16.2247 58.8177 15.9814 61.0672 15.504V45.0133H61.1029Z" fill="url(#paint0_linear_754_30726)"/>
<path d="M37.3526 14.9088C36.7316 13.8532 35.9254 12.9181 34.9728 12.1483C34.6698 11.9788 34.3205 11.9104 33.976 11.9532C33.6314 11.996 33.3094 12.1477 33.0571 12.3863L31.1176 14.6709C29.3689 16.7132 27.1965 18.3502 24.7512 19.4681C22.3059 20.5859 19.6465 21.1578 16.9579 21.1439C15.5829 21.1564 14.2118 20.9964 12.8765 20.6679C12.6537 20.6107 12.4208 20.6044 12.1951 20.6493C11.9695 20.6943 11.7568 20.7894 11.5729 20.9277C11.3889 21.0659 11.2384 21.2437 11.1325 21.448C11.0265 21.6522 10.9679 21.8777 10.9608 22.1077V44.6561C10.9608 50.6056 14.9232 56.0553 22.598 60.1247C26.1394 61.9807 29.8797 63.4297 33.7472 64.444H34.4731C38.3647 63.4934 42.1165 62.0415 45.6343 60.1247C53.1901 56.0434 57.2714 50.6056 57.2714 44.6561V22.1077C57.2626 21.8772 57.2023 21.6516 57.095 21.4474C56.9877 21.2432 56.8361 21.0656 56.6513 20.9276C56.4665 20.7895 56.2532 20.6946 56.027 20.6497C55.8007 20.6047 55.5673 20.611 55.3438 20.6679C53.4218 21.1497 51.4471 21.3895 49.4657 21.3818C43.7423 21.5008 39.6253 19.2281 37.3526 14.9088ZM54.142 24.0234V44.7751C54.142 55.8173 36.7577 60.8505 34.1161 61.5764C31.4746 60.8505 14.0783 55.9363 14.0783 44.7751V23.9044C15.0706 24.0574 16.0729 24.1369 17.0769 24.1424C20.3859 24.1403 23.6507 23.3823 26.6223 21.9265C29.5938 20.4706 32.1936 18.3552 34.2232 15.7417C34.3422 15.9797 34.5802 16.2296 34.6992 16.4676C38.2688 23.1786 44.6586 24.4994 49.4538 24.4994C51.0282 24.4914 52.5981 24.332 54.142 24.0234Z" fill="url(#paint1_linear_754_30726)"/>
<path d="M20.6704 40.5751C20.6682 43.2636 21.4648 45.892 22.9592 48.1268C24.4536 50.3616 26.5784 52.1019 29.0638 53.1268C31.5491 54.1518 34.283 54.415 36.9183 53.8833C39.5536 53.3515 41.9714 52.0487 43.8649 50.1401C45.7583 48.2316 47.0419 45.8035 47.5528 43.1641C48.0636 40.5247 47.7787 37.793 46.7341 35.3158C45.6895 32.8386 43.9323 30.7277 41.6858 29.2511C39.4392 27.7745 36.8045 26.9987 34.1162 27.0223C30.5403 27.0505 27.1206 28.4909 24.602 31.0295C22.0835 33.5681 20.6703 36.9992 20.6704 40.5751ZM44.6705 40.5751C44.6729 42.666 44.0549 44.7105 42.8948 46.4499C41.7346 48.1893 40.0845 49.5455 38.1533 50.3467C36.2221 51.1479 34.0966 51.3581 32.0458 50.9508C29.9951 50.5435 28.1113 49.5369 26.6328 48.0585C25.1544 46.5801 24.1478 44.6962 23.7405 42.6455C23.3332 40.5947 23.5434 38.4692 24.3446 36.538C25.1459 34.6068 26.502 32.9567 28.2414 31.7966C29.9809 30.6364 32.0254 30.0184 34.1162 30.0208C36.9134 30.0271 39.5943 31.1411 41.5723 33.119C43.5502 35.097 44.6642 37.7779 44.6705 40.5751Z" fill="url(#paint2_linear_754_30726)"/>
<path d="M30.6536 40.944C30.3666 40.6653 29.9814 40.5107 29.5813 40.5136C29.1813 40.5165 28.7984 40.6768 28.5155 40.9597C28.2326 41.2426 28.0724 41.6254 28.0694 42.0255C28.0665 42.4256 28.2211 42.8107 28.4999 43.0977L31.4984 46.0963C31.6451 46.2661 31.8307 46.398 32.0394 46.4806C32.2481 46.5632 32.4737 46.5942 32.6969 46.5708C32.9201 46.5474 33.1344 46.4704 33.3214 46.3463C33.5085 46.2223 33.6627 46.0549 33.7711 45.8583L39.78 36.8627C39.9146 36.7083 40.0152 36.5273 40.0754 36.3315C40.1357 36.1357 40.1541 35.9295 40.1296 35.7261C40.105 35.5227 40.0381 35.3267 39.9331 35.1509C39.828 34.975 39.6873 34.8231 39.5198 34.7051C39.3524 34.5871 39.1621 34.5055 38.9612 34.4657C38.7602 34.4259 38.5532 34.4286 38.3534 34.4739C38.1536 34.5191 37.9655 34.6058 37.8013 34.7282C37.6372 34.8507 37.5005 35.0063 37.4003 35.185L32.486 42.6218L30.6536 40.944Z" fill="url(#paint3_linear_754_30726)"/>
</g>
<defs>
<filter id="filter0_ddddddd_754_30726" x="0" y="0" width="68" height="80.0173" filterUnits="userSpaceOnUse" color-interpolation-filters="sRGB">
<feFlood flood-opacity="0" result="BackgroundImageFix"/>
<feColorMatrix in="SourceAlpha" type="matrix" values="0 0 0 0 0 0 0 0 0 0 0 0 0 0 0 0 0 0 127 0" result="hardAlpha"/>
<feOffset dy="4"/>
<feGaussianBlur stdDeviation="2"/>
<feComposite in2="hardAlpha" operator="out"/>
<feColorMatrix type="matrix" values="0 0 0 0 0 0 0 0 0 0 0 0 0 0 0 0 0 0 0.25 0"/>
<feBlend mode="normal" in2="BackgroundImageFix" result="effect1_dropShadow_754_30726"/>
<feColorMatrix in="SourceAlpha" type="matrix" values="0 0 0 0 0 0 0 0 0 0 0 0 0 0 0 0 0 0 127 0" result="hardAlpha"/>
<feOffset dy="4"/>
<feGaussianBlur stdDeviation="2"/>
<feComposite in2="hardAlpha" operator="out"/>
<feColorMatrix type="matrix" values="0 0 0 0 0 0 0 0 0 0 0 0 0 0 0 0 0 0 0.25 0"/>
<feBlend mode="normal" in2="effect1_dropShadow_754_30726" result="effect2_dropShadow_754_30726"/>
<feColorMatrix in="SourceAlpha" type="matrix" values="0 0 0 0 0 0 0 0 0 0 0 0 0 0 0 0 0 0 127 0" result="hardAlpha"/>
<feOffset dy="4"/>
<feGaussianBlur stdDeviation="2"/>
<feComposite in2="hardAlpha" operator="out"/>
<feColorMatrix type="matrix" values="0 0 0 0 0 0 0 0 0 0 0 0 0 0 0 0 0 0 1 0"/>
<feBlend mode="normal" in2="effect2_dropShadow_754_30726" result="effect3_dropShadow_754_30726"/>
<feColorMatrix in="SourceAlpha" type="matrix" values="0 0 0 0 0 0 0 0 0 0 0 0 0 0 0 0 0 0 127 0" result="hardAlpha"/>
<feOffset dy="4"/>
<feGaussianBlur stdDeviation="2"/>
<feComposite in2="hardAlpha" operator="out"/>
<feColorMatrix type="matrix" values="0 0 0 0 0 0 0 0 0 0 0 0 0 0 0 0 0 0 1 0"/>
<feBlend mode="normal" in2="effect3_dropShadow_754_30726" result="effect4_dropShadow_754_30726"/>
<feColorMatrix in="SourceAlpha" type="matrix" values="0 0 0 0 0 0 0 0 0 0 0 0 0 0 0 0 0 0 127 0" result="hardAlpha"/>
<feOffset dy="4"/>
<feGaussianBlur stdDeviation="2"/>
<feComposite in2="hardAlpha" operator="out"/>
<feColorMatrix type="matrix" values="0 0 0 0 0 0 0 0 0 0 0 0 0 0 0 0 0 0 1 0"/>
<feBlend mode="normal" in2="effect4_dropShadow_754_30726" result="effect5_dropShadow_754_30726"/>
<feColorMatrix in="SourceAlpha" type="matrix" values="0 0 0 0 0 0 0 0 0 0 0 0 0 0 0 0 0 0 127 0" result="hardAlpha"/>
<feOffset dy="4"/>
<feGaussianBlur stdDeviation="2"/>
<feComposite in2="hardAlpha" operator="out"/>
<feColorMatrix type="matrix" values="0 0 0 0 0 0 0 0 0 0 0 0 0 0 0 0 0 0 1 0"/>
<feBlend mode="normal" in2="effect5_dropShadow_754_30726" result="effect6_dropShadow_754_30726"/>
<feColorMatrix in="SourceAlpha" type="matrix" values="0 0 0 0 0 0 0 0 0 0 0 0 0 0 0 0 0 0 127 0" result="hardAlpha"/>
<feOffset dy="4"/>
<feGaussianBlur stdDeviation="2"/>
<feComposite in2="hardAlpha" operator="out"/>
<feColorMatrix type="matrix" values="0 0 0 0 0 0 0 0 0 0 0 0 0 0 0 0 0 0 1 0"/>
<feBlend mode="normal" in2="effect6_dropShadow_754_30726" result="effect7_dropShadow_754_30726"/>
<feBlend mode="normal" in="SourceGraphic" in2="effect7_dropShadow_754_30726" result="shape"/>
</filter>
<linearGradient id="paint0_linear_754_30726" x1="6.14286" y1="12" x2="43.4286" y2="63" gradientUnits="userSpaceOnUse">
<stop stop-color="#3CDCF4"/>
<stop offset="0.513542" stop-color="#2EC6FC"/>
<stop offset="1" stop-color="#FC77F9"/>
</linearGradient>
<linearGradient id="paint1_linear_754_30726" x1="12.6148" y1="20.6892" x2="39.292" y2="59.3213" gradientUnits="userSpaceOnUse">
<stop stop-color="#3CDCF4"/>
<stop offset="0.513542" stop-color="#2EC6FC"/>
<stop offset="1" stop-color="#FC77F9"/>
</linearGradient>
<linearGradient id="paint2_linear_754_30726" x1="21.6393" y1="31.5423" x2="34.7369" y2="53.0455" gradientUnits="userSpaceOnUse">
<stop stop-color="#3CDCF4"/>
<stop offset="0.513542" stop-color="#2EC6FC"/>
<stop offset="1" stop-color="#FC77F9"/>
</linearGradient>
<linearGradient id="paint3_linear_754_30726" x1="28.5005" y1="36.4607" x2="34.3772" y2="46.0534" gradientUnits="userSpaceOnUse">
<stop stop-color="#3CDCF4"/>
<stop offset="0.513542" stop-color="#2EC6FC"/>
<stop offset="1" stop-color="#FC77F9"/>
</linearGradient>
</defs>
</svg>
