<svg width="68" height="81" viewBox="0 0 68 81" fill="none" xmlns="http://www.w3.org/2000/svg">
<g filter="url(#filter0_dddddddd_754_30599)">
<path d="M62.1857 12.1323C59.6488 12.8444 57.0269 13.2087 54.3919 13.2151C46.7052 13.2151 41.196 10.0976 37.9476 3.86256C37.2504 2.44838 36.2217 1.2237 34.9491 0.292884C34.643 0.0670399 34.2625 -0.0340327 33.8847 0.0101543C33.5069 0.0543414 33.1601 0.240499 32.9144 0.530877L30.3918 3.5413C28.134 6.40259 25.253 8.71091 21.9683 10.2904C18.6835 11.8699 15.0816 12.6789 11.4368 12.6559C9.57903 12.6708 7.72591 12.4671 5.91571 12.049C5.69299 11.9941 5.46083 11.9895 5.23608 12.0354C5.01133 12.0813 4.79963 12.1766 4.61626 12.3144C4.43289 12.4522 4.28245 12.6291 4.17586 12.8322C4.06928 13.0353 4.00922 13.2596 4 13.4888V45.0448C4 54.5639 10.8419 61.3582 18.9926 66.0344C23.6207 68.5853 28.5331 70.5822 33.6283 71.9839C33.8782 71.9839 34.1161 72.1148 34.3541 71.9839C39.4628 70.6221 44.3799 68.6232 48.9898 66.0344C57.1525 61.3582 63.9824 54.5163 63.9824 45.0448V13.5721C64.0205 13.3408 63.9964 13.1036 63.9125 12.8848C63.8287 12.6659 63.688 12.4733 63.5051 12.3267C63.3222 12.1802 63.1036 12.0849 62.8718 12.0508C62.6399 12.0166 62.4031 12.0448 62.1857 12.1323ZM61.1029 45.0091C61.1029 52.0889 56.5456 58.205 47.669 63.3691C43.3689 65.7139 38.8344 67.6003 34.14 68.9973C29.3914 67.7286 24.8277 65.8487 20.5633 63.4048C11.6748 58.2407 7.11751 52.1246 7.11751 45.0448V15.4164C8.58124 15.6839 10.0681 15.8035 11.5558 15.7734C15.6382 15.799 19.6727 14.8939 23.353 13.127C27.0332 11.3601 30.2624 8.77769 32.7954 5.57601L34.2351 3.7793C34.6483 4.19084 34.976 4.68018 35.199 5.21906C39.8753 14.3336 48.145 16.2493 54.2372 16.2493C56.5324 16.2473 58.8212 16.008 61.0672 15.5354V45.0448L61.1029 45.0091Z" fill="url(#paint0_linear_754_30599)"/>
<path d="M37.3519 14.8926C36.7269 13.8397 35.9214 12.9053 34.9721 12.132C34.6684 11.9621 34.318 11.8947 33.9729 11.9397C33.6278 11.9847 33.3064 12.1398 33.0564 12.3819L31.1169 14.6189C29.3709 16.6653 27.1992 18.3058 24.7535 19.4259C22.3078 20.546 19.6471 21.1186 16.9571 21.1038C15.5814 21.1165 14.2098 20.9525 12.8758 20.6159C12.6531 20.561 12.4209 20.5564 12.1962 20.6023C11.9715 20.6482 11.7597 20.7435 11.5763 20.8813C11.393 21.0191 11.2426 21.196 11.136 21.3991C11.0294 21.6022 10.9693 21.8265 10.9601 22.0557V44.6636C10.9601 50.6131 14.9224 56.0628 22.5972 60.1322C26.1415 61.9913 29.886 63.4405 33.7584 64.4516H34.4724C38.364 63.501 42.1158 62.0491 45.6336 60.1322C53.1894 56.0628 57.2707 50.6131 57.2707 44.6636V22.0557C57.2619 21.8252 57.2016 21.5996 57.0943 21.3954C56.987 21.1912 56.8354 21.0136 56.6506 20.8756C56.4658 20.7375 56.2525 20.6426 56.0263 20.5977C55.8 20.5527 55.5666 20.559 55.3431 20.6159C53.4224 21.1062 51.4472 21.3501 49.465 21.3417C43.6583 21.4964 39.6365 19.2119 37.3519 14.8926ZM54.1532 24.019V44.7707C54.1532 55.801 36.757 60.8462 34.1154 61.5601C31.4739 60.8462 14.0776 55.92 14.0776 44.7707V23.8881C15.0688 24.0517 16.0716 24.1352 17.0761 24.138C20.3875 24.1395 23.6552 23.3832 26.6293 21.9271C29.6033 20.471 32.2047 18.3538 34.2344 15.7374C34.3534 15.9753 34.5914 16.2133 34.7104 16.4513C38.28 23.1742 44.6697 24.495 49.465 24.495C51.0393 24.4862 52.6092 24.3268 54.1532 24.019Z" fill="url(#paint1_linear_754_30599)"/>
<path d="M20.6821 40.5694C20.6822 43.254 21.4795 45.878 22.973 48.1088C24.4664 50.3396 26.5888 52.0766 29.0708 53.0995C31.5528 54.1224 34.2827 54.3852 36.9142 53.8545C39.5458 53.3238 41.9605 52.0235 43.8521 50.1186C45.7436 48.2137 47.0268 45.7899 47.539 43.1546C48.0511 40.5194 47.7691 37.7914 46.7287 35.3167C45.6883 32.8419 43.9364 30.7319 41.6951 29.2542C39.4539 27.7765 36.8243 26.9977 34.1398 27.0166C30.5609 27.0386 27.1363 28.4765 24.6145 31.0162C22.0927 33.5558 20.6789 36.9905 20.6821 40.5694ZM44.6704 40.5694C44.6704 42.6569 44.0514 44.6975 42.8916 46.4331C41.7319 48.1688 40.0835 49.5215 38.155 50.3204C36.2264 51.1192 34.1043 51.3282 32.057 50.921C30.0096 50.5137 28.129 49.5085 26.653 48.0325C25.1769 46.5564 24.1717 44.6758 23.7645 42.6285C23.3572 40.5812 23.5662 38.459 24.3651 36.5304C25.1639 34.6019 26.5167 32.9535 28.2523 31.7938C29.988 30.6341 32.0286 30.0151 34.116 30.0151C36.9142 30.0182 39.5969 31.1312 41.5756 33.1099C43.5542 35.0885 44.6672 37.7712 44.6704 40.5694Z" fill="url(#paint2_linear_754_30599)"/>
<path d="M32.6763 34.0981L31.4864 37.6678H27.6431C27.3187 37.6698 27.0035 37.7762 26.7442 37.9712C26.4849 38.1662 26.2953 38.4395 26.2033 38.7506C26.0896 39.0568 26.0881 39.3935 26.1992 39.7007C26.3104 40.0079 26.5268 40.2657 26.8102 40.4283L29.9277 42.582L28.7378 46.1517C28.5965 46.475 28.5844 46.8401 28.7039 47.172C28.8234 47.5039 29.0654 47.7775 29.3803 47.9366C29.6474 48.1111 29.9596 48.2041 30.2787 48.2041C30.5978 48.2041 30.91 48.1111 31.1771 47.9366L34.2946 45.6519L37.3526 47.9366C37.6197 48.1111 37.9319 48.2041 38.251 48.2041C38.5701 48.2041 38.8822 48.1111 39.1493 47.9366C39.3917 47.7371 39.576 47.476 39.6828 47.1808C39.7896 46.8857 39.8149 46.5672 39.7562 46.2588L38.5663 42.6891L41.6838 40.4164C41.9221 40.2141 42.1026 39.9523 42.2071 39.6576C42.3116 39.363 42.3363 39.0459 42.2788 38.7387C42.1835 38.4295 41.993 38.1583 41.7344 37.9639C41.4759 37.7694 41.1625 37.6616 40.839 37.6559H36.9956L35.8058 34.0862C35.6142 33.813 35.3643 33.5859 35.0741 33.4212C34.7839 33.2566 34.4608 33.1586 34.128 33.1343C33.8158 33.1237 33.508 33.2109 33.2478 33.3836C32.9875 33.5564 32.7877 33.8062 32.6763 34.0981ZM35.6749 40.6901H35.9128L35.6749 40.8091C35.4345 41.0102 35.2516 41.2714 35.145 41.5661C35.0384 41.8608 35.0119 42.1785 35.068 42.4869L35.1989 42.7248L34.949 42.6058C34.6819 42.4312 34.3697 42.3383 34.0507 42.3383C33.7316 42.3383 33.4194 42.4312 33.1523 42.6058L32.9143 42.7248L33.0333 42.4869C33.1481 42.182 33.1513 41.8463 33.0424 41.5392C32.9336 41.2322 32.7196 40.9736 32.4384 40.8091L32.3194 40.6901H32.5574C32.8818 40.6881 33.1969 40.5817 33.4562 40.3867C33.7155 40.1917 33.9052 39.9184 33.9971 39.6073L34.1161 39.3693L34.2351 39.6073C34.3141 39.9257 34.5005 40.2072 34.7627 40.4044C35.0249 40.6016 35.347 40.7025 35.6749 40.6901Z" fill="url(#paint3_linear_754_30599)"/>
</g>
<defs>
<filter id="filter0_dddddddd_754_30599" x="0" y="0" width="68" height="80.0421" filterUnits="userSpaceOnUse" color-interpolation-filters="sRGB">
<feFlood flood-opacity="0" result="BackgroundImageFix"/>
<feColorMatrix in="SourceAlpha" type="matrix" values="0 0 0 0 0 0 0 0 0 0 0 0 0 0 0 0 0 0 127 0" result="hardAlpha"/>
<feOffset dy="4"/>
<feGaussianBlur stdDeviation="2"/>
<feComposite in2="hardAlpha" operator="out"/>
<feColorMatrix type="matrix" values="0 0 0 0 0 0 0 0 0 0 0 0 0 0 0 0 0 0 0.25 0"/>
<feBlend mode="normal" in2="BackgroundImageFix" result="effect1_dropShadow_754_30599"/>
<feColorMatrix in="SourceAlpha" type="matrix" values="0 0 0 0 0 0 0 0 0 0 0 0 0 0 0 0 0 0 127 0" result="hardAlpha"/>
<feOffset dy="4"/>
<feGaussianBlur stdDeviation="2"/>
<feComposite in2="hardAlpha" operator="out"/>
<feColorMatrix type="matrix" values="0 0 0 0 0 0 0 0 0 0 0 0 0 0 0 0 0 0 0.25 0"/>
<feBlend mode="normal" in2="effect1_dropShadow_754_30599" result="effect2_dropShadow_754_30599"/>
<feColorMatrix in="SourceAlpha" type="matrix" values="0 0 0 0 0 0 0 0 0 0 0 0 0 0 0 0 0 0 127 0" result="hardAlpha"/>
<feOffset dy="4"/>
<feGaussianBlur stdDeviation="2"/>
<feComposite in2="hardAlpha" operator="out"/>
<feColorMatrix type="matrix" values="0 0 0 0 0 0 0 0 0 0 0 0 0 0 0 0 0 0 0.25 0"/>
<feBlend mode="normal" in2="effect2_dropShadow_754_30599" result="effect3_dropShadow_754_30599"/>
<feColorMatrix in="SourceAlpha" type="matrix" values="0 0 0 0 0 0 0 0 0 0 0 0 0 0 0 0 0 0 127 0" result="hardAlpha"/>
<feOffset dy="4"/>
<feGaussianBlur stdDeviation="2"/>
<feComposite in2="hardAlpha" operator="out"/>
<feColorMatrix type="matrix" values="0 0 0 0 0 0 0 0 0 0 0 0 0 0 0 0 0 0 0.25 0"/>
<feBlend mode="normal" in2="effect3_dropShadow_754_30599" result="effect4_dropShadow_754_30599"/>
<feColorMatrix in="SourceAlpha" type="matrix" values="0 0 0 0 0 0 0 0 0 0 0 0 0 0 0 0 0 0 127 0" result="hardAlpha"/>
<feOffset dy="4"/>
<feGaussianBlur stdDeviation="2"/>
<feComposite in2="hardAlpha" operator="out"/>
<feColorMatrix type="matrix" values="0 0 0 0 0 0 0 0 0 0 0 0 0 0 0 0 0 0 0.25 0"/>
<feBlend mode="normal" in2="effect4_dropShadow_754_30599" result="effect5_dropShadow_754_30599"/>
<feColorMatrix in="SourceAlpha" type="matrix" values="0 0 0 0 0 0 0 0 0 0 0 0 0 0 0 0 0 0 127 0" result="hardAlpha"/>
<feOffset dy="4"/>
<feGaussianBlur stdDeviation="2"/>
<feComposite in2="hardAlpha" operator="out"/>
<feColorMatrix type="matrix" values="0 0 0 0 0 0 0 0 0 0 0 0 0 0 0 0 0 0 0.25 0"/>
<feBlend mode="normal" in2="effect5_dropShadow_754_30599" result="effect6_dropShadow_754_30599"/>
<feColorMatrix in="SourceAlpha" type="matrix" values="0 0 0 0 0 0 0 0 0 0 0 0 0 0 0 0 0 0 127 0" result="hardAlpha"/>
<feOffset dy="4"/>
<feGaussianBlur stdDeviation="2"/>
<feComposite in2="hardAlpha" operator="out"/>
<feColorMatrix type="matrix" values="0 0 0 0 0 0 0 0 0 0 0 0 0 0 0 0 0 0 0.25 0"/>
<feBlend mode="normal" in2="effect6_dropShadow_754_30599" result="effect7_dropShadow_754_30599"/>
<feColorMatrix in="SourceAlpha" type="matrix" values="0 0 0 0 0 0 0 0 0 0 0 0 0 0 0 0 0 0 127 0" result="hardAlpha"/>
<feOffset dy="4"/>
<feGaussianBlur stdDeviation="2"/>
<feComposite in2="hardAlpha" operator="out"/>
<feColorMatrix type="matrix" values="0 0 0 0 0 0 0 0 0 0 0 0 0 0 0 0 0 0 0.25 0"/>
<feBlend mode="normal" in2="effect7_dropShadow_754_30599" result="effect8_dropShadow_754_30599"/>
<feBlend mode="normal" in="SourceGraphic" in2="effect8_dropShadow_754_30599" result="shape"/>
</filter>
<linearGradient id="paint0_linear_754_30599" x1="12.5814" y1="13.0888" x2="53.6327" y2="62.4693" gradientUnits="userSpaceOnUse">
<stop stop-color="#2FC0FA"/>
<stop offset="0.315625" stop-color="#38CDF5"/>
<stop offset="1" stop-color="#F075F8"/>
</linearGradient>
<linearGradient id="paint1_linear_754_30599" x1="17.5836" y1="21.4691" x2="47.1579" y2="59.1298" gradientUnits="userSpaceOnUse">
<stop stop-color="#2FC0FA"/>
<stop offset="0.315625" stop-color="#38CDF5"/>
<stop offset="1" stop-color="#F075F8"/>
</linearGradient>
<linearGradient id="paint2_linear_754_30599" x1="24.5589" y1="31.9409" x2="39.2637" y2="53.1794" gradientUnits="userSpaceOnUse">
<stop stop-color="#2FC0FA"/>
<stop offset="0.315625" stop-color="#38CDF5"/>
<stop offset="1" stop-color="#F075F8"/>
</linearGradient>
<linearGradient id="paint3_linear_754_30599" x1="28.4328" y1="35.8715" x2="36.387" y2="48.2149" gradientUnits="userSpaceOnUse">
<stop stop-color="#2FC0FA"/>
<stop offset="0.315625" stop-color="#38CDF5"/>
<stop offset="1" stop-color="#F075F8"/>
</linearGradient>
</defs>
</svg>
