<svg width="78" height="72" viewBox="0 0 78 72" fill="none" xmlns="http://www.w3.org/2000/svg">
<g filter="url(#filter0_dddddddd_754_30624)">
<path d="M27.8501 42.7622C28.1731 42.7687 28.494 42.7098 28.7934 42.5888C29.0929 42.4678 29.3647 42.2873 29.5925 42.0583V42.7622H30.8733V39.3006H28.3117V40.4544H29.5925V40.6852C29.4045 40.9397 29.1592 41.1464 28.8766 41.2887C28.594 41.431 28.2819 41.5049 27.9655 41.5044C27.7236 41.4963 27.4859 41.44 27.266 41.339C27.0461 41.238 26.8485 41.0942 26.6847 40.916C25.7501 39.7621 26.2117 37.4544 27.8386 37.4544C28.1681 37.453 28.4921 37.5387 28.7778 37.7028C29.0635 37.8669 29.3008 38.1037 29.4655 38.389L30.6194 37.5698C30.3926 37.118 30.0237 36.7531 29.5694 36.5313C29.0626 36.2861 28.5053 36.1636 27.9424 36.1736C27.5046 36.1765 27.0719 36.2668 26.6695 36.4392C26.267 36.6116 25.9031 36.8625 25.5989 37.1774C25.2948 37.4923 25.0565 37.8648 24.8982 38.273C24.7399 38.6811 24.6647 39.1168 24.677 39.5544C24.6505 39.9796 24.714 40.4056 24.8636 40.8045C25.0132 41.2034 25.2454 41.5662 25.545 41.8691C25.8446 42.172 26.2049 42.4081 26.6021 42.562C26.9994 42.7159 27.4247 42.7841 27.8501 42.7622Z" fill="url(#paint0_linear_754_30624)"/>
<path d="M39.0311 39.3816C39.0548 38.5372 38.7627 37.7143 38.2118 37.0739C37.9652 36.7153 37.5886 36.467 37.1618 36.3815C36.7092 36.2395 36.2397 36.1581 35.7656 36.1392H33.3195V42.7855H35.7656C36.2083 42.7926 36.6476 42.7083 37.0562 42.5379C37.4648 42.3675 37.8338 42.1147 38.1403 41.7953C38.4467 41.4758 38.684 41.0966 38.8373 40.6813C38.9905 40.266 39.0565 39.8235 39.0311 39.3816ZM34.831 37.3969H35.7656C36.126 37.3834 36.4808 37.4892 36.7749 37.6978C37.0691 37.9064 37.2861 38.2062 37.3925 38.5508C37.5082 39.0908 37.5082 39.6493 37.3925 40.1893C37.2861 40.5339 37.0691 40.8337 36.7749 41.0423C36.4808 41.2509 36.126 41.3567 35.7656 41.3432H34.831V37.3969Z" fill="url(#paint1_linear_754_30624)"/>
<path d="M42.9889 40.5457H44.385C44.8173 40.5373 45.2372 40.3999 45.5909 40.1511C45.9445 39.9023 46.2157 39.5536 46.3697 39.1496C46.5055 38.8035 46.5556 38.4297 46.5159 38.0601C46.4762 37.6905 46.3477 37.336 46.1415 37.0266C45.9353 36.7173 45.6575 36.4624 45.3316 36.2836C45.0057 36.1047 44.6413 36.0073 44.2697 35.9995H41.535V42.6458H43.0466L42.9889 40.5457ZM42.9889 37.3957H44.385C44.6158 37.5111 44.7312 37.638 44.7312 37.8688C44.7312 38.0995 44.8466 38.0996 44.8466 38.2149C44.8622 38.4704 44.7797 38.7222 44.6158 38.9188C44.5609 38.9892 44.491 39.0464 44.4112 39.0863C44.3313 39.1262 44.2436 39.1479 44.1543 39.1496H42.8735L42.9889 37.3957Z" fill="url(#paint2_linear_754_30624)"/>
<path d="M49.8542 40.5458H50.9042L52.185 42.6458H53.9389L52.4157 40.1996C52.756 39.997 53.034 39.7047 53.2192 39.3546C53.4044 39.0045 53.4898 38.6103 53.4658 38.215C53.4673 37.9236 53.411 37.6348 53.3002 37.3653C53.1894 37.0959 53.0263 36.851 52.8203 36.645C52.6143 36.439 52.3694 36.2759 52.1 36.1651C51.8305 36.0543 51.5417 35.998 51.2503 35.9995H48.2272V42.6458H49.7388L49.8542 40.5458ZM49.8542 37.3957H51.2503C51.4306 37.4216 51.5971 37.5069 51.7235 37.638C51.8866 37.8305 51.9692 38.0785 51.9542 38.3303C51.9305 38.5792 51.8517 38.8196 51.7235 39.0342C51.6673 39.1061 51.5956 39.1643 51.5136 39.2042C51.4316 39.2442 51.3415 39.265 51.2503 39.2649H49.8542V37.3957Z" fill="url(#paint3_linear_754_30624)"/>
<path d="M38.5582 19.0051C39.2725 19.0051 39.9708 18.7933 40.5647 18.3965C41.1586 17.9996 41.6215 17.4356 41.8949 16.7757C42.1682 16.1157 42.2397 15.3896 42.1004 14.689C41.961 13.9884 41.6171 13.3449 41.112 12.8398C40.6069 12.3347 39.9634 11.9907 39.2628 11.8514C38.5622 11.712 37.8361 11.7836 37.1761 12.0569C36.5162 12.3303 35.9521 12.7932 35.5553 13.3871C35.1584 13.981 34.9466 14.6793 34.9466 15.3936C34.9526 16.3496 35.3351 17.2647 36.0111 17.9407C36.6871 18.6166 37.6022 18.9991 38.5582 19.0051ZM38.5582 14.5743C38.6979 14.572 38.8351 14.6114 38.9524 14.6873C39.0696 14.7632 39.1616 14.8724 39.2167 15.0008C39.2717 15.1291 39.2873 15.271 39.2615 15.4083C39.2356 15.5456 39.1695 15.6721 39.0715 15.7717C38.9736 15.8713 38.8482 15.9395 38.7114 15.9676C38.5745 15.9957 38.4324 15.9824 38.3031 15.9295C38.1738 15.8766 38.0632 15.7864 37.9853 15.6704C37.9075 15.5544 37.8659 15.4179 37.8659 15.2782C37.8674 15.1893 37.8866 15.1016 37.9223 15.0202C37.9581 14.9388 38.0096 14.8654 38.0741 14.8041C38.1385 14.7429 38.2146 14.6951 38.2977 14.6636C38.3808 14.6321 38.4693 14.6174 38.5582 14.6205V14.5743Z" fill="url(#paint4_linear_754_30624)"/>
<path d="M72.8043 59.7573H71.2928V56.8496C71.2839 56.4495 71.1202 56.0685 70.8361 55.7866C70.5521 55.5047 70.1698 55.3439 69.7697 55.3381H68.2581V52.4188C68.2522 52.0198 68.0911 51.6387 67.8089 51.3565C67.5267 51.0743 67.1456 50.9132 66.7466 50.9073H63.8389V46.488H65.4658C65.8659 46.479 66.2469 46.3154 66.5288 46.0313C66.8107 45.7473 66.9715 45.365 66.9774 44.9649V33.3224C66.9714 32.9234 66.8102 32.5424 66.528 32.2602C66.2458 31.978 65.8648 31.8168 65.4658 31.8109H63.9543V27.38H65.4658C65.8648 27.3741 66.2458 27.2129 66.528 26.9307C66.8102 26.6485 66.9714 26.2675 66.9774 25.8685V22.9608H71.5928C71.9224 22.951 72.239 22.8304 72.4915 22.6184C72.744 22.4064 72.9177 22.1154 72.9844 21.7925C73.0511 21.4696 73.007 21.1337 72.8592 20.839C72.7114 20.5443 72.4684 20.308 72.1697 20.1684L39.2271 4.5567C39.0327 4.44315 38.8117 4.38332 38.5867 4.38332C38.3616 4.38332 38.1406 4.44315 37.9463 4.5567C32.177 7.23366 8.47669 19.003 5.10743 20.5146C4.80866 20.6551 4.56561 20.8918 4.41711 21.1867C4.26861 21.4816 4.2232 21.8178 4.28816 22.1415C4.34122 22.4705 4.51215 22.769 4.76903 22.9813C5.02591 23.1936 5.35124 23.3052 5.68435 23.2954H11.4537V26.2031C11.4595 26.6033 11.6203 26.9855 11.9022 27.2695C12.1841 27.5536 12.5651 27.7173 12.9652 27.7262H14.4768V32.1455H12.9652C12.5662 32.1514 12.1852 32.3126 11.903 32.5948C11.6208 32.877 11.4596 33.258 11.4537 33.657V45.311C11.4596 45.7101 11.6208 46.0911 11.903 46.3733C12.1852 46.6555 12.5662 46.8166 12.9652 46.8226H14.4768V51.2419H11.5691C11.1679 51.2507 10.7856 51.414 10.5018 51.6977C10.2181 51.9815 10.0548 52.3638 10.046 52.765V55.6727H8.53442C8.1363 55.6815 7.75694 55.8436 7.47536 56.1252C7.19378 56.4067 7.03169 56.7861 7.02287 57.1843V60.1035H5.51132C5.11043 60.1035 4.72593 60.2627 4.44246 60.5462C4.15899 60.8297 3.99969 61.2142 3.99969 61.6151C3.99969 62.016 4.15899 62.4004 4.44246 62.6839C4.72593 62.9674 5.11043 63.1266 5.51132 63.1266H72.4352C72.8342 63.1207 73.2152 62.9595 73.4974 62.6773C73.7796 62.3951 73.9408 62.0141 73.9467 61.6151C74.2006 60.3458 73.4967 59.7573 72.8043 59.7573ZM61.1504 51.0226H58.2426V46.6033H61.1504V51.0226ZM43.5656 51.0226V46.6033H55.2195V51.0226H43.5656ZM23.1884 51.0226V46.6033H34.8309V51.0226H23.1884ZM37.7501 46.6033H40.6578V51.0226H37.7501V46.6033ZM61.1504 32.0416H58.2426V27.6223H61.1504V32.0416ZM43.5656 32.0416V27.6223H45.0887C45.4888 27.6134 45.8698 27.4497 46.1517 27.1657C46.4336 26.8817 46.5944 26.4994 46.6002 26.0993V23.1915H52.3695V26.157C52.3783 26.5581 52.5417 26.9404 52.8254 27.2242C53.1091 27.5079 53.4915 27.6712 53.8926 27.6801H55.4042V32.0993L43.5656 32.0416ZM23.1884 32.0416V27.6223H24.6999C25.1 27.6134 25.4811 27.4497 25.7629 27.1657C26.0448 26.8817 26.2056 26.4994 26.2115 26.0993V23.1915H31.9808V26.157C31.9867 26.5571 32.1475 26.9394 32.4294 27.2234C32.7113 27.5075 33.0923 27.6711 33.4924 27.6801H35.004V32.0993L23.1884 32.0416ZM34.8309 24.8185V23.3069H43.5656V24.8185H34.8309ZM37.7501 27.7377H40.6578V32.157H37.7501V27.7377ZM64.0697 24.8185H55.3811V23.3069H64.1158L64.0697 24.8185ZM38.5578 7.51058C39.6078 7.98366 65.0042 20.33 65.235 20.4453H12.1575C19.6922 16.6722 33.55 9.79521 38.5578 7.46442V7.51058ZM23.1884 23.3069V24.8185H14.4537V23.3069H23.1884ZM17.3614 27.7377H20.2807V32.157H17.3614V27.7377ZM14.4537 34.9494H63.9543V43.6841H14.4537V34.9494ZM17.3614 46.6033H20.2807V51.0226H17.3614V46.6033ZM13.0575 53.9419H65.4658V55.4535H13.0575V53.9419ZM10.1382 59.7112V58.1996H68.3736V59.7112H10.1382Z" fill="url(#paint5_linear_754_30624)"/>
<path d="M13.0576 11.6666C13.9224 11.6551 14.7644 11.3874 15.4771 10.8974C16.1898 10.4074 16.7412 9.7171 17.0616 8.91373C17.3819 8.11037 17.4569 7.23003 17.277 6.38406C17.0971 5.5381 16.6703 4.76448 16.0507 4.16103C15.4312 3.55758 14.6465 3.15141 13.7961 2.99386C12.9457 2.83632 12.0677 2.9345 11.273 3.27595C10.4784 3.61741 9.80291 4.18682 9.33188 4.9122C8.86086 5.63757 8.61545 6.48634 8.62678 7.35115C8.64802 8.50906 9.12531 9.6118 9.95494 10.4198C10.7846 11.2279 11.8996 11.6759 13.0576 11.6666ZM13.0576 5.8396C13.4585 5.8396 13.843 5.99883 14.1265 6.2823C14.41 6.56577 14.5692 6.95026 14.5692 7.35115C14.5692 7.75204 14.41 8.1365 14.1265 8.41997C13.843 8.70345 13.4585 8.86271 13.0576 8.86271C12.6567 8.86271 12.2722 8.70345 11.9888 8.41997C11.7053 8.1365 11.5461 7.75204 11.5461 7.35115C11.5461 6.95026 11.7053 6.56577 11.9888 6.2823C12.2722 5.99883 12.6567 5.8396 13.0576 5.8396Z" fill="url(#paint6_linear_754_30624)"/>
<path d="M66.1578 10.2693C67.1743 10.2716 68.1686 9.97214 69.0147 9.40881C69.8609 8.84548 70.5208 8.04367 70.9109 7.10497C71.3009 6.16626 71.4036 5.13287 71.2058 4.13577C71.0081 3.13867 70.5188 2.22271 69.8001 1.50392C69.0813 0.785124 68.1653 0.295862 67.1682 0.098107C66.1711 -0.0996476 65.1377 0.00299022 64.199 0.393051C63.2603 0.783112 62.4585 1.44304 61.8952 2.2892C61.3318 3.13536 61.0323 4.12969 61.0346 5.14621C61.0668 6.49481 61.6169 7.77923 62.5708 8.73311C63.5247 9.68699 64.8092 10.2371 66.1578 10.2693ZM66.1578 2.93078C66.4614 2.90883 66.7662 2.94969 67.0533 3.05079C67.3404 3.15189 67.6036 3.31105 67.8265 3.51838C68.0494 3.72571 68.2271 3.97677 68.3486 4.25585C68.4702 4.53492 68.5329 4.83604 68.5329 5.14043C68.5329 5.44483 68.4702 5.74594 68.3486 6.02502C68.2271 6.30409 68.0494 6.55515 67.8265 6.76248C67.6036 6.96982 67.3404 7.12898 67.0533 7.23008C66.7662 7.33118 66.4614 7.37204 66.1578 7.35008C65.8745 7.34726 65.5946 7.28745 65.3349 7.17423C65.0752 7.06101 64.8409 6.89667 64.6461 6.69104C64.4512 6.4854 64.2997 6.24267 64.2006 5.97727C64.1015 5.71187 64.0569 5.42924 64.0693 5.14621C64.0627 4.57834 64.2766 4.03007 64.6662 3.61684C65.0558 3.2036 65.5905 2.95764 66.1578 2.93078Z" fill="url(#paint7_linear_754_30624)"/>
<path d="M23.1887 0.0113047C23.4905 0.00901888 23.7861 0.0964093 24.0381 0.262373C24.2901 0.428337 24.487 0.665398 24.6041 0.943498C24.7211 1.2216 24.753 1.52821 24.6955 1.82442C24.638 2.12063 24.4939 2.39308 24.2814 2.60724C24.0689 2.82141 23.7975 2.96762 23.5017 3.02733C23.2059 3.08704 22.8991 3.05758 22.6201 2.94265C22.3411 2.82771 22.1026 2.63249 21.9347 2.38177C21.7669 2.13106 21.6772 1.83614 21.6772 1.53441C21.6772 1.13245 21.8361 0.746774 22.1192 0.461468C22.4024 0.176161 22.7868 0.0143498 23.1887 0.0113047Z" fill="url(#paint8_linear_754_30624)"/>
<path d="M49.3928 1.40857C49.6946 1.40628 49.9902 1.49367 50.2422 1.65964C50.4942 1.8256 50.6911 2.06266 50.8082 2.34076C50.9252 2.61886 50.9571 2.92548 50.8996 3.22168C50.8421 3.51789 50.698 3.79034 50.4854 4.0045C50.2729 4.21867 50.0016 4.36489 49.7058 4.4246C49.4101 4.48431 49.1032 4.45484 48.8242 4.33991C48.5452 4.22498 48.3066 4.02975 48.1388 3.77904C47.9709 3.52832 47.8813 3.2334 47.8813 2.93167C47.8813 2.52971 48.0401 2.14404 48.3233 1.85873C48.6064 1.57342 48.9909 1.41161 49.3928 1.40857Z" fill="url(#paint9_linear_754_30624)"/>
<path d="M58.2429 7.2342C58.5451 7.23192 58.8412 7.3196 59.0935 7.48608C59.3457 7.65256 59.5427 7.8903 59.6594 8.16907C59.7761 8.44785 59.8072 8.75506 59.7488 9.05158C59.6904 9.34811 59.5451 9.62053 59.3314 9.83423C59.1177 10.0479 58.8453 10.1932 58.5488 10.2516C58.2523 10.31 57.945 10.2789 57.6663 10.1622C57.3875 10.0455 57.1498 9.84849 56.9833 9.59626C56.8168 9.34403 56.7291 9.04797 56.7314 8.74576C56.7314 8.34487 56.8907 7.96041 57.1741 7.67694C57.4576 7.39347 57.842 7.2342 58.2429 7.2342Z" fill="url(#paint10_linear_754_30624)"/>
<path d="M69.8851 33.4394C70.1873 33.4372 70.4834 33.5248 70.7356 33.6913C70.9878 33.8578 71.1848 34.0955 71.3015 34.3743C71.4182 34.6531 71.4494 34.9603 71.391 35.2568C71.3326 35.5533 71.1873 35.8258 70.9736 36.0395C70.7599 36.2532 70.4874 36.3985 70.1909 36.4569C69.8944 36.5153 69.5873 36.4841 69.3085 36.3674C69.0297 36.2507 68.7919 36.0537 68.6254 35.8015C68.4589 35.5493 68.3713 35.2532 68.3736 34.951C68.3766 34.551 68.5368 34.1683 68.8197 33.8855C69.1025 33.6027 69.4852 33.4425 69.8851 33.4394Z" fill="url(#paint11_linear_754_30624)"/>
<path d="M69.8851 37.87C70.184 37.87 70.4763 37.9587 70.7248 38.1248C70.9734 38.2909 71.1672 38.5269 71.2816 38.8031C71.396 39.0793 71.4259 39.3833 71.3676 39.6765C71.3093 39.9697 71.1653 40.239 70.9539 40.4504C70.7425 40.6618 70.4732 40.8058 70.18 40.8641C69.8867 40.9224 69.5828 40.8925 69.3066 40.7781C69.0304 40.6637 68.7944 40.4699 68.6283 40.2214C68.4622 39.9728 68.3735 39.6805 68.3735 39.3816C68.3766 38.9816 68.5368 38.5989 68.8196 38.3161C69.1024 38.0333 69.4851 37.873 69.8851 37.87Z" fill="url(#paint12_linear_754_30624)"/>
<path d="M69.8851 45.1976C70.7199 45.1976 71.3966 44.5208 71.3966 43.686C71.3966 42.8512 70.7199 42.1745 69.8851 42.1745C69.0503 42.1745 68.3735 42.8512 68.3735 43.686C68.3735 44.5208 69.0503 45.1976 69.8851 45.1976Z" fill="url(#paint13_linear_754_30624)"/>
<path d="M69.8851 46.6051C70.184 46.6051 70.4763 46.6937 70.7248 46.8598C70.9734 47.0259 71.1672 47.262 71.2816 47.5382C71.396 47.8144 71.4259 48.1184 71.3676 48.4116C71.3093 48.7048 71.1653 48.9741 70.9539 49.1855C70.7425 49.3969 70.4732 49.5408 70.18 49.5992C69.8867 49.6575 69.5828 49.6276 69.3066 49.5132C69.0304 49.3988 68.7944 49.205 68.6283 48.9564C68.4622 48.7078 68.3735 48.4156 68.3735 48.1167C68.3766 47.7167 68.5368 47.334 68.8196 47.0511C69.1024 46.7683 69.4851 46.6081 69.8851 46.6051Z" fill="url(#paint14_linear_754_30624)"/>
<path d="M8.62695 33.4394C8.92916 33.4372 9.22526 33.5248 9.47749 33.6913C9.72972 33.8578 9.92672 34.0955 10.0434 34.3743C10.1601 34.6531 10.1913 34.9603 10.1329 35.2568C10.0745 35.5533 9.92916 35.8258 9.71546 36.0395C9.50176 36.2532 9.22934 36.3985 8.93281 36.4569C8.63629 36.5153 8.32908 36.4841 8.0503 36.3674C7.77153 36.2507 7.53379 36.0537 7.36731 35.8015C7.20083 35.5493 7.11312 35.2532 7.1154 34.951C7.1154 34.5501 7.2747 34.1656 7.55817 33.8822C7.84164 33.5987 8.22606 33.4394 8.62695 33.4394Z" fill="url(#paint15_linear_754_30624)"/>
<path d="M8.62691 37.87C8.92587 37.87 9.21817 37.9587 9.46674 38.1248C9.71531 38.2909 9.90905 38.5269 10.0235 38.8031C10.1379 39.0793 10.1678 39.3833 10.1094 39.6765C10.0511 39.9697 9.90716 40.239 9.69576 40.4504C9.48437 40.6618 9.21507 40.8058 8.92185 40.8641C8.62864 40.9224 8.3247 40.8925 8.0485 40.7781C7.7723 40.6637 7.53618 40.4699 7.37009 40.2214C7.204 39.9728 7.11536 39.6805 7.11536 39.3816C7.11536 38.9807 7.27465 38.5962 7.55812 38.3128C7.8416 38.0293 8.22602 37.87 8.62691 37.87Z" fill="url(#paint16_linear_754_30624)"/>
<path d="M8.62695 42.1745C8.92916 42.1722 9.22526 42.2599 9.47749 42.4264C9.72972 42.5929 9.92672 42.8306 10.0434 43.1094C10.1601 43.3882 10.1913 43.6954 10.1329 43.9919C10.0745 44.2884 9.92916 44.5608 9.71546 44.7745C9.50176 44.9882 9.22934 45.1335 8.93281 45.1919C8.63629 45.2503 8.32908 45.2192 8.0503 45.1025C7.77153 44.9858 7.53379 44.7888 7.36731 44.5366C7.20083 44.2843 7.11312 43.9883 7.1154 43.6861C7.1154 43.2852 7.2747 42.9007 7.55817 42.6172C7.84164 42.3338 8.22606 42.1745 8.62695 42.1745Z" fill="url(#paint17_linear_754_30624)"/>
<path d="M8.62691 46.6051C8.92587 46.6051 9.21817 46.6937 9.46674 46.8598C9.71531 47.0259 9.90905 47.262 10.0235 47.5382C10.1379 47.8144 10.1678 48.1184 10.1094 48.4116C10.0511 48.7048 9.90716 48.9741 9.69576 49.1855C9.48437 49.3969 9.21507 49.5408 8.92185 49.5992C8.62864 49.6575 8.3247 49.6276 8.0485 49.5132C7.7723 49.3988 7.53618 49.205 7.37009 48.9564C7.204 48.7078 7.11536 48.4156 7.11536 48.1167C7.11536 47.7158 7.27465 47.3313 7.55812 47.0478C7.8416 46.7644 8.22602 46.6051 8.62691 46.6051Z" fill="url(#paint18_linear_754_30624)"/>
</g>
<defs>
<filter id="filter0_dddddddd_754_30624" x="-0.000305176" y="0" width="78" height="71.1266" filterUnits="userSpaceOnUse" color-interpolation-filters="sRGB">
<feFlood flood-opacity="0" result="BackgroundImageFix"/>
<feColorMatrix in="SourceAlpha" type="matrix" values="0 0 0 0 0 0 0 0 0 0 0 0 0 0 0 0 0 0 127 0" result="hardAlpha"/>
<feOffset dy="4"/>
<feGaussianBlur stdDeviation="2"/>
<feComposite in2="hardAlpha" operator="out"/>
<feColorMatrix type="matrix" values="0 0 0 0 0 0 0 0 0 0 0 0 0 0 0 0 0 0 0.25 0"/>
<feBlend mode="normal" in2="BackgroundImageFix" result="effect1_dropShadow_754_30624"/>
<feColorMatrix in="SourceAlpha" type="matrix" values="0 0 0 0 0 0 0 0 0 0 0 0 0 0 0 0 0 0 127 0" result="hardAlpha"/>
<feOffset dy="4"/>
<feGaussianBlur stdDeviation="2"/>
<feComposite in2="hardAlpha" operator="out"/>
<feColorMatrix type="matrix" values="0 0 0 0 0 0 0 0 0 0 0 0 0 0 0 0 0 0 0.25 0"/>
<feBlend mode="normal" in2="effect1_dropShadow_754_30624" result="effect2_dropShadow_754_30624"/>
<feColorMatrix in="SourceAlpha" type="matrix" values="0 0 0 0 0 0 0 0 0 0 0 0 0 0 0 0 0 0 127 0" result="hardAlpha"/>
<feOffset dy="4"/>
<feGaussianBlur stdDeviation="2"/>
<feComposite in2="hardAlpha" operator="out"/>
<feColorMatrix type="matrix" values="0 0 0 0 0 0 0 0 0 0 0 0 0 0 0 0 0 0 0.25 0"/>
<feBlend mode="normal" in2="effect2_dropShadow_754_30624" result="effect3_dropShadow_754_30624"/>
<feColorMatrix in="SourceAlpha" type="matrix" values="0 0 0 0 0 0 0 0 0 0 0 0 0 0 0 0 0 0 127 0" result="hardAlpha"/>
<feOffset dy="4"/>
<feGaussianBlur stdDeviation="2"/>
<feComposite in2="hardAlpha" operator="out"/>
<feColorMatrix type="matrix" values="0 0 0 0 0 0 0 0 0 0 0 0 0 0 0 0 0 0 0.25 0"/>
<feBlend mode="normal" in2="effect3_dropShadow_754_30624" result="effect4_dropShadow_754_30624"/>
<feColorMatrix in="SourceAlpha" type="matrix" values="0 0 0 0 0 0 0 0 0 0 0 0 0 0 0 0 0 0 127 0" result="hardAlpha"/>
<feOffset dy="4"/>
<feGaussianBlur stdDeviation="2"/>
<feComposite in2="hardAlpha" operator="out"/>
<feColorMatrix type="matrix" values="0 0 0 0 0 0 0 0 0 0 0 0 0 0 0 0 0 0 0.25 0"/>
<feBlend mode="normal" in2="effect4_dropShadow_754_30624" result="effect5_dropShadow_754_30624"/>
<feColorMatrix in="SourceAlpha" type="matrix" values="0 0 0 0 0 0 0 0 0 0 0 0 0 0 0 0 0 0 127 0" result="hardAlpha"/>
<feOffset dy="4"/>
<feGaussianBlur stdDeviation="2"/>
<feComposite in2="hardAlpha" operator="out"/>
<feColorMatrix type="matrix" values="0 0 0 0 0 0 0 0 0 0 0 0 0 0 0 0 0 0 0.25 0"/>
<feBlend mode="normal" in2="effect5_dropShadow_754_30624" result="effect6_dropShadow_754_30624"/>
<feColorMatrix in="SourceAlpha" type="matrix" values="0 0 0 0 0 0 0 0 0 0 0 0 0 0 0 0 0 0 127 0" result="hardAlpha"/>
<feOffset dy="4"/>
<feGaussianBlur stdDeviation="2"/>
<feComposite in2="hardAlpha" operator="out"/>
<feColorMatrix type="matrix" values="0 0 0 0 0 0 0 0 0 0 0 0 0 0 0 0 0 0 0.25 0"/>
<feBlend mode="normal" in2="effect6_dropShadow_754_30624" result="effect7_dropShadow_754_30624"/>
<feColorMatrix in="SourceAlpha" type="matrix" values="0 0 0 0 0 0 0 0 0 0 0 0 0 0 0 0 0 0 127 0" result="hardAlpha"/>
<feOffset dy="4"/>
<feGaussianBlur stdDeviation="2"/>
<feComposite in2="hardAlpha" operator="out"/>
<feColorMatrix type="matrix" values="0 0 0 0 0 0 0 0 0 0 0 0 0 0 0 0 0 0 0.25 0"/>
<feBlend mode="normal" in2="effect7_dropShadow_754_30624" result="effect8_dropShadow_754_30624"/>
<feBlend mode="normal" in="SourceGraphic" in2="effect8_dropShadow_754_30624" result="shape"/>
</filter>
<linearGradient id="paint0_linear_754_30624" x1="25.0699" y1="36.4341" x2="31.5621" y2="41.6815" gradientUnits="userSpaceOnUse">
<stop stop-color="#31C3F9"/>
<stop offset="0.510417" stop-color="#63B8F6"/>
<stop offset="1" stop-color="#E879F8"/>
</linearGradient>
<linearGradient id="paint1_linear_754_30624" x1="33.687" y1="36.4025" x2="40.0859" y2="41.1314" gradientUnits="userSpaceOnUse">
<stop stop-color="#31C3F9"/>
<stop offset="0.510417" stop-color="#63B8F6"/>
<stop offset="1" stop-color="#E879F8"/>
</linearGradient>
<linearGradient id="paint2_linear_754_30624" x1="41.8561" y1="36.2627" x2="47.9562" y2="40.2011" gradientUnits="userSpaceOnUse">
<stop stop-color="#31C3F9"/>
<stop offset="0.510417" stop-color="#63B8F6"/>
<stop offset="1" stop-color="#E879F8"/>
</linearGradient>
<linearGradient id="paint3_linear_754_30624" x1="48.5944" y1="36.2627" x2="54.9913" y2="40.986" gradientUnits="userSpaceOnUse">
<stop stop-color="#31C3F9"/>
<stop offset="0.510417" stop-color="#63B8F6"/>
<stop offset="1" stop-color="#E879F8"/>
</linearGradient>
<linearGradient id="paint4_linear_754_30624" x1="35.4109" y1="12.068" x2="42.6024" y2="18.247" gradientUnits="userSpaceOnUse">
<stop stop-color="#31C3F9"/>
<stop offset="0.510417" stop-color="#63B8F6"/>
<stop offset="1" stop-color="#E879F8"/>
</linearGradient>
<linearGradient id="paint5_linear_754_30624" x1="8.4997" y1="6.70972" x2="67.6432" y2="67.2638" gradientUnits="userSpaceOnUse">
<stop stop-color="#31C3F9"/>
<stop offset="0.510417" stop-color="#63B8F6"/>
<stop offset="1" stop-color="#E879F8"/>
</linearGradient>
<linearGradient id="paint6_linear_754_30624" x1="9.18866" y1="3.26707" x2="17.8963" y2="10.7489" gradientUnits="userSpaceOnUse">
<stop stop-color="#31C3F9"/>
<stop offset="0.510417" stop-color="#63B8F6"/>
<stop offset="1" stop-color="#E879F8"/>
</linearGradient>
<linearGradient id="paint7_linear_754_30624" x1="61.6948" y1="0.406696" x2="71.919" y2="9.19138" gradientUnits="userSpaceOnUse">
<stop stop-color="#31C3F9"/>
<stop offset="0.510417" stop-color="#63B8F6"/>
<stop offset="1" stop-color="#E879F8"/>
</linearGradient>
<linearGradient id="paint8_linear_754_30624" x1="21.873" y1="0.131899" x2="24.9058" y2="2.7377" gradientUnits="userSpaceOnUse">
<stop stop-color="#31C3F9"/>
<stop offset="0.510417" stop-color="#63B8F6"/>
<stop offset="1" stop-color="#E879F8"/>
</linearGradient>
<linearGradient id="paint9_linear_754_30624" x1="48.0771" y1="1.52916" x2="51.1099" y2="4.13496" gradientUnits="userSpaceOnUse">
<stop stop-color="#31C3F9"/>
<stop offset="0.510417" stop-color="#63B8F6"/>
<stop offset="1" stop-color="#E879F8"/>
</linearGradient>
<linearGradient id="paint10_linear_754_30624" x1="56.9272" y1="7.3548" x2="59.96" y2="9.96063" gradientUnits="userSpaceOnUse">
<stop stop-color="#31C3F9"/>
<stop offset="0.510417" stop-color="#63B8F6"/>
<stop offset="1" stop-color="#E879F8"/>
</linearGradient>
<linearGradient id="paint11_linear_754_30624" x1="68.5694" y1="33.56" x2="71.6022" y2="36.1658" gradientUnits="userSpaceOnUse">
<stop stop-color="#31C3F9"/>
<stop offset="0.510417" stop-color="#63B8F6"/>
<stop offset="1" stop-color="#E879F8"/>
</linearGradient>
<linearGradient id="paint12_linear_754_30624" x1="68.5679" y1="37.9898" x2="71.5777" y2="40.5758" gradientUnits="userSpaceOnUse">
<stop stop-color="#31C3F9"/>
<stop offset="0.510417" stop-color="#63B8F6"/>
<stop offset="1" stop-color="#E879F8"/>
</linearGradient>
<linearGradient id="paint13_linear_754_30624" x1="68.5679" y1="42.2942" x2="71.5777" y2="44.8802" gradientUnits="userSpaceOnUse">
<stop stop-color="#31C3F9"/>
<stop offset="0.510417" stop-color="#63B8F6"/>
<stop offset="1" stop-color="#E879F8"/>
</linearGradient>
<linearGradient id="paint14_linear_754_30624" x1="68.5679" y1="46.7248" x2="71.5777" y2="49.3109" gradientUnits="userSpaceOnUse">
<stop stop-color="#31C3F9"/>
<stop offset="0.510417" stop-color="#63B8F6"/>
<stop offset="1" stop-color="#E879F8"/>
</linearGradient>
<linearGradient id="paint15_linear_754_30624" x1="7.31119" y1="33.56" x2="10.344" y2="36.1659" gradientUnits="userSpaceOnUse">
<stop stop-color="#31C3F9"/>
<stop offset="0.510417" stop-color="#63B8F6"/>
<stop offset="1" stop-color="#E879F8"/>
</linearGradient>
<linearGradient id="paint16_linear_754_30624" x1="7.3097" y1="37.9898" x2="10.3196" y2="40.5758" gradientUnits="userSpaceOnUse">
<stop stop-color="#31C3F9"/>
<stop offset="0.510417" stop-color="#63B8F6"/>
<stop offset="1" stop-color="#E879F8"/>
</linearGradient>
<linearGradient id="paint17_linear_754_30624" x1="7.31119" y1="42.2951" x2="10.344" y2="44.9009" gradientUnits="userSpaceOnUse">
<stop stop-color="#31C3F9"/>
<stop offset="0.510417" stop-color="#63B8F6"/>
<stop offset="1" stop-color="#E879F8"/>
</linearGradient>
<linearGradient id="paint18_linear_754_30624" x1="7.3097" y1="46.7248" x2="10.3195" y2="49.3109" gradientUnits="userSpaceOnUse">
<stop stop-color="#31C3F9"/>
<stop offset="0.510417" stop-color="#63B8F6"/>
<stop offset="1" stop-color="#E879F8"/>
</linearGradient>
</defs>
</svg>
