<svg width="70" height="72" viewBox="0 0 70 72" fill="none" xmlns="http://www.w3.org/2000/svg">
<path d="M51.7445 54.9663L46.2773 60.4335L44.015 58.1712C43.8742 58.0312 43.7072 57.9202 43.5235 57.8447C43.3398 57.7693 43.1431 57.7307 42.9445 57.7312C42.7459 57.7318 42.5493 57.7714 42.3661 57.8479C42.1828 57.9244 42.0164 58.0363 41.8764 58.1771C41.7364 58.3179 41.6255 58.4849 41.55 58.6686C41.4745 58.8523 41.4359 59.049 41.4364 59.2476C41.437 59.4462 41.4766 59.6427 41.5531 59.826C41.6296 60.0092 41.7415 60.1757 41.8823 60.3157L45.0873 63.5206C45.2267 63.6639 45.3934 63.7777 45.5775 63.8554C45.7617 63.9332 45.9596 63.9732 46.1595 63.9732C46.3594 63.9732 46.5573 63.9332 46.7414 63.8554C46.9256 63.7777 47.0922 63.6639 47.2317 63.5206L53.7712 56.9811C54.0547 56.6963 54.2139 56.3108 54.2139 55.9089C54.2139 55.507 54.0547 55.1215 53.7712 54.8367C53.459 54.6537 53.0992 54.5683 52.7381 54.5914C52.3769 54.6145 52.0309 54.745 51.7445 54.9663Z" fill="url(#paint0_linear_754_30644)"/>
<path d="M45.5706 53.66C45.9791 53.6509 46.3682 53.4838 46.6561 53.1937C46.944 52.9036 47.1081 52.5133 47.1141 52.1047C47.1066 51.9097 47.0606 51.7181 46.9789 51.5408C46.8972 51.3636 46.7813 51.2042 46.638 51.0718C46.4946 50.9394 46.3266 50.8365 46.1434 50.7691C45.9603 50.7017 45.7656 50.6711 45.5706 50.6789H42.5895C42.2019 50.7128 41.841 50.8907 41.5781 51.1775C41.3152 51.4644 41.1694 51.8393 41.1694 52.2284C41.1694 52.6175 41.3152 52.9924 41.5781 53.2793C41.841 53.5661 42.2019 53.744 42.5895 53.7778H45.5706V53.66Z" fill="url(#paint1_linear_754_30644)"/>
<path d="M50.0831 50.6778C50.3917 50.6754 50.694 50.765 50.9516 50.935C51.2091 51.105 51.4103 51.3478 51.5295 51.6325C51.6487 51.9172 51.6804 52.2308 51.6208 52.5336C51.5612 52.8364 51.4128 53.1146 51.1946 53.3329C50.9763 53.5511 50.6981 53.6995 50.3953 53.7591C50.0925 53.8188 49.7788 53.787 49.4942 53.6678C49.2095 53.5486 48.9667 53.3474 48.7967 53.0899C48.6267 52.8323 48.5372 52.53 48.5395 52.2214C48.5395 51.812 48.7021 51.4194 48.9916 51.1299C49.2811 50.8404 49.6737 50.6778 50.0831 50.6778Z" fill="url(#paint2_linear_754_30644)"/>
<path d="M63.8807 20.8317C64.186 20.8317 64.4845 20.9222 64.7383 21.0918C64.9922 21.2614 65.19 21.5025 65.3068 21.7846C65.4236 22.0666 65.4542 22.377 65.3946 22.6764C65.3351 22.9758 65.1881 23.2508 64.9722 23.4667C64.7563 23.6826 64.4813 23.8296 64.1819 23.8891C63.8825 23.9487 63.5721 23.9181 63.2901 23.8013C63.008 23.6845 62.7669 23.4867 62.5973 23.2328C62.4277 22.979 62.3372 22.6805 62.3372 22.3752C62.3372 21.9659 62.4998 21.5733 62.7893 21.2838C63.0788 20.9943 63.4713 20.8317 63.8807 20.8317Z" fill="url(#paint3_linear_754_30644)"/>
<path d="M28.2019 31.2959C28.5072 31.2959 28.8056 31.3864 29.0595 31.556C29.3133 31.7256 29.5111 31.9667 29.628 32.2487C29.7448 32.5308 29.7753 32.8411 29.7158 33.1405C29.6562 33.44 29.5092 33.715 29.2933 33.9309C29.0775 34.1467 28.8025 34.2937 28.5031 34.3533C28.2036 34.4129 27.8933 34.3823 27.6112 34.2655C27.3292 34.1486 27.0881 33.9508 26.9185 33.697C26.7489 33.4431 26.6584 33.1447 26.6584 32.8394C26.6584 32.43 26.821 32.0374 27.1105 31.748C27.3999 31.4585 27.7926 31.2959 28.2019 31.2959Z" fill="url(#paint4_linear_754_30644)"/>
<path d="M32.5975 7.5047C32.9056 7.50236 33.2075 7.5916 33.4648 7.76108C33.7221 7.93056 33.9233 8.17264 34.0428 8.45662C34.1623 8.74061 34.1948 9.05368 34.1362 9.35616C34.0775 9.65864 33.9303 9.93689 33.7133 10.1556C33.4963 10.3743 33.2191 10.5236 32.9171 10.5846C32.6151 10.6455 32.3017 10.6154 32.0168 10.4981C31.732 10.3807 31.4884 10.1814 31.317 9.92534C31.1455 9.66932 31.054 9.36816 31.054 9.06004C31.0539 8.64958 31.2162 8.25574 31.5053 7.96439C31.7944 7.67304 32.187 7.50781 32.5975 7.5047Z" fill="url(#paint5_linear_754_30644)"/>
<path d="M16.3135 13.456C16.6183 13.4583 16.9155 13.5508 17.1678 13.7218C17.4201 13.8928 17.6161 14.1347 17.7311 14.417C17.8462 14.6992 17.8751 15.0092 17.8142 15.3078C17.7533 15.6065 17.6054 15.8804 17.389 16.0951C17.1727 16.3098 16.8977 16.4556 16.5986 16.5142C16.2995 16.5728 15.9897 16.5416 15.7083 16.4244C15.427 16.3073 15.1866 16.1094 15.0175 15.8558C14.8484 15.6023 14.7582 15.3043 14.7582 14.9995C14.7582 14.7958 14.7985 14.5941 14.8768 14.4061C14.9551 14.218 15.0699 14.0474 15.2145 13.9039C15.3591 13.7604 15.5306 13.6469 15.7192 13.5701C15.9078 13.4932 16.1098 13.4544 16.3135 13.456Z" fill="url(#paint6_linear_754_30644)"/>
<path d="M4.40041 28.3249C4.70569 28.3249 5.00411 28.4154 5.25794 28.585C5.51178 28.7546 5.70962 28.9957 5.82644 29.2778C5.94327 29.5598 5.97388 29.8701 5.91433 30.1696C5.85477 30.469 5.70776 30.744 5.49189 30.9599C5.27602 31.1758 5.00094 31.3228 4.70152 31.3823C4.4021 31.4419 4.09173 31.4113 3.80968 31.2945C3.52764 31.1776 3.28659 30.9798 3.11698 30.726C2.94737 30.4721 2.85686 30.1737 2.85686 29.8684C2.85529 29.6653 2.89412 29.4639 2.97113 29.2759C3.04815 29.0879 3.16183 28.9171 3.30547 28.7735C3.44912 28.6298 3.6199 28.5162 3.80788 28.4392C3.99587 28.3622 4.19727 28.3233 4.40041 28.3249Z" fill="url(#paint7_linear_754_30644)"/>
<path d="M5.83872 61.0223C6.14682 61.02 6.44871 61.1092 6.70603 61.2786C6.96335 61.4481 7.16457 61.6902 7.2841 61.9742C7.40363 62.2582 7.43605 62.5713 7.37737 62.8738C7.3187 63.1762 7.17154 63.4545 6.9545 63.6732C6.73746 63.8919 6.46034 64.0412 6.15831 64.1021C5.85629 64.1631 5.54295 64.133 5.25806 64.0156C4.97317 63.8983 4.72959 63.6989 4.55817 63.4429C4.38674 63.1869 4.29517 62.8857 4.29517 62.5776C4.29515 62.1671 4.45745 61.7733 4.74659 61.482C5.03573 61.1906 5.42826 61.0254 5.83872 61.0223Z" fill="url(#paint8_linear_754_30644)"/>
<path d="M31.1718 61.0223C31.4799 61.02 31.7818 61.1092 32.0391 61.2786C32.2965 61.4481 32.4977 61.6902 32.6172 61.9742C32.7367 62.2582 32.7692 62.5713 32.7105 62.8738C32.6518 63.1762 32.5047 63.4545 32.2876 63.6732C32.0706 63.8919 31.7934 64.0412 31.4914 64.1021C31.1894 64.1631 30.8761 64.133 30.5912 64.0156C30.3063 63.8983 30.0627 63.6989 29.8913 63.4429C29.7199 63.1869 29.6283 62.8857 29.6283 62.5776C29.6267 62.3739 29.6655 62.172 29.7424 61.9833C29.8193 61.7947 29.9328 61.6231 30.0762 61.4785C30.2197 61.3339 30.3904 61.2192 30.5784 61.1409C30.7665 61.0626 30.9681 61.0223 31.1718 61.0223Z" fill="url(#paint9_linear_754_30644)"/>
<path d="M29.6276 49.1335C29.9329 49.1335 30.2314 49.2241 30.4852 49.3937C30.739 49.5633 30.9369 49.8044 31.0537 50.0864C31.1705 50.3685 31.2011 50.6788 31.1415 50.9782C31.082 51.2777 30.9349 51.5527 30.7191 51.7686C30.5032 51.9844 30.2282 52.1315 29.9288 52.191C29.6294 52.2506 29.319 52.22 29.0369 52.1032C28.7549 51.9863 28.5138 51.7885 28.3442 51.5347C28.1746 51.2808 28.084 50.9824 28.084 50.6771C28.084 50.2677 28.2467 49.8751 28.5362 49.5856C28.8257 49.2962 29.2182 49.1335 29.6276 49.1335Z" fill="url(#paint10_linear_754_30644)"/>
<path d="M54.8433 26.9824C55.0607 25.1016 54.8783 23.1961 54.3082 21.3906C53.7381 19.5851 52.793 17.9204 51.535 16.5055C50.2769 15.0906 48.7341 13.9573 47.0077 13.18C45.2813 12.4026 43.4102 11.9987 41.5169 11.9946C39.0433 11.9875 36.6175 12.6752 34.5156 13.9792C32.4137 15.2833 30.7202 17.1513 29.628 19.3707C27.8108 18.4194 25.7876 17.9297 23.7365 17.9449C20.385 17.9395 17.1543 19.1961 14.6872 21.4646C12.22 23.733 10.6973 26.8471 10.4219 30.1873C7.2091 30.9261 4.38018 32.8206 2.4737 35.5101C0.567221 38.1997 -0.283659 41.4963 0.0831148 44.7726C0.449888 48.0488 2.00869 51.0757 4.4627 53.2771C6.91671 55.4784 10.0946 56.7005 13.3912 56.7105H35.7786C36.0143 64.0866 37.5579 64.7935 43.7439 71.0974C44.0372 71.3737 44.4147 71.5438 44.8161 71.5805H50.0476C50.2519 71.5912 50.4558 71.5529 50.6423 71.4689C50.8288 71.3848 50.9926 71.2575 51.1199 71.0974C55.2793 66.7024 57.4237 65.041 58.3781 62.0599C58.923 59.9648 59.1611 57.8018 59.0851 55.6383C62.2003 54.3989 64.8058 52.1438 66.4792 49.2386C68.1526 46.3334 68.796 42.9482 68.3051 39.6316C67.8141 36.315 66.2177 33.2614 63.7743 30.9655C61.331 28.6697 58.184 27.2662 54.8433 26.9824ZM49.2464 68.4816H45.3227C41.6347 64.6757 39.9734 63.25 39.2664 61.1055C38.7448 59.1879 38.5418 57.1975 38.6655 55.2141V49.4876L47.3494 47.8263L56.0334 49.4876C56.0334 55.9093 56.1512 59.126 55.4324 61.1409C54.7137 63.1557 53.0523 64.5932 49.2464 68.5169V68.4816ZM59.0027 52.3155V48.1915C59.0102 47.852 58.8953 47.521 58.679 47.2593C58.4626 46.9975 58.1593 46.8223 57.8244 46.7658L47.5968 44.7509H47.0077L36.7802 46.7658C36.4453 46.8223 36.1419 46.9975 35.9256 47.2593C35.7092 47.521 35.5943 47.852 35.6019 48.1915V53.6705H13.3323C10.7033 53.6283 8.18676 52.5968 6.28457 50.7815C4.38238 48.9662 3.23435 46.5006 3.06931 43.8765C2.90428 41.2523 3.73439 38.6624 5.39417 36.6231C7.05395 34.5838 9.42138 33.2451 12.0244 32.8738C12.375 32.8272 12.698 32.6589 12.9371 32.3983C13.1762 32.1377 13.3161 31.8014 13.3323 31.4481C13.3215 30.0809 13.5808 28.7251 14.0954 27.4584C14.61 26.1917 15.3697 25.0392 16.331 24.067C17.2923 23.0948 18.4361 22.322 19.6969 21.7931C20.9577 21.2642 22.3104 20.9895 23.6776 20.9849C25.755 20.9879 27.7848 21.6071 29.5102 22.7642C29.6996 22.8888 29.9144 22.9697 30.1389 23.0012C30.3635 23.0327 30.5923 23.014 30.8088 22.9464C31.0252 22.8788 31.2239 22.7639 31.3906 22.6101C31.5572 22.4563 31.6876 22.2675 31.7724 22.0572C32.5892 19.7274 34.2035 17.7614 36.3298 16.5069C38.4562 15.2524 40.9576 14.7901 43.3918 15.202C45.8261 15.6138 48.0363 16.8731 49.6317 18.7572C51.227 20.6414 52.1047 23.0289 52.1096 25.4977C52.1113 26.3825 51.9883 27.2631 51.7444 28.1135C51.688 28.3349 51.6818 28.566 51.7263 28.7901C51.7708 29.0141 51.8648 29.2254 52.0015 29.4084C52.1382 29.5914 52.3141 29.7415 52.5163 29.8477C52.7185 29.9539 52.9419 30.0136 53.1701 30.0224C54.7606 29.9783 56.3438 30.2531 57.8265 30.8303C59.3091 31.4076 60.6613 32.2758 61.8032 33.3837C62.9452 34.4917 63.8539 35.8169 64.4758 37.2815C65.0977 38.746 65.4201 40.3202 65.4242 41.9113C65.361 44.0612 64.7347 46.1568 63.6078 47.9887C62.4809 49.8207 60.893 51.3248 59.0027 52.3509V52.3155Z" fill="url(#paint11_linear_754_30644)"/>
<path d="M25.2215 49.2534H13.3327C11.7702 49.2534 10.2717 48.6327 9.16681 47.5278C8.06195 46.423 7.44124 44.9244 7.44124 43.3619C7.40741 42.9743 7.22948 42.6135 6.94264 42.3506C6.6558 42.0877 6.28088 41.9419 5.89179 41.9419C5.5027 41.9419 5.12771 42.0877 4.84087 42.3506C4.55403 42.6135 4.37618 42.9743 4.34235 43.3619C4.35779 45.7228 5.30249 47.9826 6.97191 49.652C8.64133 51.3214 10.9011 52.2661 13.262 52.2816H25.1508C25.5594 52.2756 25.9498 52.1114 26.2398 51.8235C26.5299 51.5357 26.6971 51.1466 26.7062 50.738C26.7222 50.539 26.6948 50.3388 26.6258 50.1515C26.5569 49.9641 26.448 49.7939 26.3068 49.6527C26.1656 49.5115 25.9954 49.4027 25.8081 49.3337C25.6207 49.2648 25.4205 49.2374 25.2215 49.2534Z" fill="url(#paint12_linear_754_30644)"/>
<path d="M1.44351 12.0296H4.40101C4.80849 12.0235 5.19757 11.8589 5.48573 11.5707C5.7739 11.2826 5.93848 10.8935 5.94456 10.486C5.95357 10.0763 6.12033 9.68594 6.41008 9.39618C6.69983 9.10643 7.09023 8.93967 7.49991 8.93067C7.78838 8.9584 8.06862 9.0425 8.32472 9.17813C8.52726 9.31266 8.75995 9.39494 9.00203 9.41765C9.24412 9.44036 9.48804 9.40278 9.71207 9.30827C9.93609 9.21376 10.1332 9.06525 10.2859 8.87601C10.4386 8.68677 10.542 8.46264 10.587 8.22369C10.7528 7.58847 11.1206 7.02435 11.6349 6.61631C12.1492 6.20827 12.7821 5.97843 13.4384 5.9614C13.8302 5.95669 14.219 6.03018 14.5821 6.17759C14.9451 6.32499 15.2751 6.54333 15.5527 6.81984C15.8303 7.09635 16.05 7.42546 16.1988 7.78791C16.3477 8.15036 16.4227 8.53886 16.4195 8.93067C16.4255 9.33927 16.5897 9.72965 16.8776 10.0197C17.1654 10.3098 17.5545 10.4769 17.9631 10.486H28.4262C28.8139 10.4522 29.1747 10.2743 29.4376 9.98745C29.7005 9.70061 29.8463 9.32565 29.8463 8.93656C29.8463 8.54748 29.7005 8.17252 29.4376 7.88568C29.1747 7.59884 28.8139 7.42095 28.4262 7.38712H19.271C18.9998 6.21737 18.3777 5.1584 17.488 4.35205C16.5983 3.5457 15.4833 3.03047 14.2926 2.87538C13.1019 2.7203 11.8922 2.93276 10.8256 3.4843C9.75902 4.03584 8.88645 4.90013 8.32472 5.9614C7.29031 5.78128 6.22547 5.96747 5.31357 6.48794C4.40166 7.00842 3.69979 7.83057 3.32881 8.81283H1.54959C1.14336 8.82934 0.758316 8.99856 0.47141 9.28662C0.184503 9.57468 0.0168194 9.96037 0.00193693 10.3667C-0.0129455 10.773 0.126088 11.1699 0.39115 11.4782C0.656213 11.7865 1.02778 11.9834 1.43171 12.0296H1.44351Z" fill="url(#paint13_linear_754_30644)"/>
<path d="M68.2754 12.0293H63.6448C63.3232 10.7512 62.5888 9.61492 61.5555 8.79682C60.5222 7.97872 59.2478 7.5245 57.9301 7.50465C56.3676 7.50465 54.8691 8.12537 53.7642 9.23022C52.6594 10.3351 52.0386 11.8336 52.0386 13.3961C52.0386 13.8055 52.2012 14.198 52.4907 14.4875C52.7802 14.777 53.1728 14.9396 53.5822 14.9396C53.9916 14.9396 54.3842 14.777 54.6737 14.4875C54.9631 14.198 55.1257 13.8055 55.1257 13.3961C55.2349 12.6932 55.5919 12.0526 56.1321 11.5898C56.6723 11.1271 57.3601 10.8727 58.0714 10.8727C58.7827 10.8727 59.4706 11.1271 60.0108 11.5898C60.551 12.0526 60.9079 12.6932 61.0172 13.3961C61.0232 13.8036 61.1878 14.1926 61.476 14.4808C61.7641 14.769 62.1532 14.9335 62.5607 14.9396H68.4521C68.8596 14.9335 69.2487 14.769 69.5368 14.4808C69.825 14.1926 69.9896 13.8036 69.9957 13.3961C70.0664 12.6184 69.112 12.0293 68.2754 12.0293Z" fill="url(#paint14_linear_754_30644)"/>
<path d="M10.363 19.4053C10.3653 18.51 10.102 17.634 9.60622 16.8884C9.11047 16.1428 8.40465 15.561 7.5781 15.2167C6.75154 14.8725 5.84138 14.7812 4.96291 14.9544C4.08445 15.1277 3.27713 15.5577 2.64317 16.19C2.00921 16.8223 1.57714 17.6285 1.4016 18.5065C1.22606 19.3845 1.31494 20.2949 1.65705 21.1223C1.99915 21.9498 2.57911 22.6571 3.32343 23.1548C4.06775 23.6525 4.94297 23.9181 5.83836 23.9181C7.03632 23.9181 8.18543 23.4431 9.03362 22.5971C9.88181 21.7511 10.3599 20.6033 10.363 19.4053ZM4.47158 19.4053C4.45283 19.1905 4.47897 18.9741 4.54831 18.7699C4.61766 18.5657 4.72868 18.3782 4.87439 18.2192C5.02009 18.0602 5.19731 17.9333 5.3947 17.8464C5.59209 17.7596 5.80538 17.7148 6.02103 17.7148C6.23668 17.7148 6.44996 17.7596 6.64735 17.8464C6.84474 17.9333 7.02196 18.0602 7.16767 18.2192C7.31337 18.3782 7.42439 18.5657 7.49374 18.7699C7.56309 18.9741 7.58922 19.1905 7.57047 19.4053C7.53252 19.8242 7.34033 20.2141 7.03117 20.4993C6.72201 20.7845 6.31794 20.9448 5.89733 20.9489C5.69632 20.9506 5.49702 20.9116 5.31157 20.834C5.12611 20.7564 4.95836 20.642 4.81843 20.4977C4.67851 20.3533 4.56931 20.1821 4.49754 19.9944C4.42577 19.8066 4.3929 19.6062 4.40089 19.4053H4.47158Z" fill="url(#paint15_linear_754_30644)"/>
<path d="M17.0205 61.1534C16.2911 61.1534 15.578 61.3697 14.9715 61.775C14.3651 62.1802 13.8923 62.7562 13.6132 63.4301C13.334 64.104 13.261 64.8455 13.4033 65.5609C13.5456 66.2763 13.8969 66.9335 14.4127 67.4493C14.9285 67.965 15.5856 68.3163 16.301 68.4586C17.0164 68.6009 17.7579 68.5279 18.4318 68.2487C19.1057 67.9696 19.6817 67.4969 20.087 66.8904C20.4922 66.2839 20.7086 65.5709 20.7086 64.8414C20.7024 63.8652 20.3118 62.9307 19.6215 62.2404C18.9312 61.5501 17.9967 61.1596 17.0205 61.1534ZM17.0205 65.5602C16.8472 65.5379 16.688 65.4532 16.5726 65.322C16.4572 65.1908 16.3936 65.0221 16.3936 64.8473C16.3936 64.6726 16.4572 64.5039 16.5726 64.3727C16.688 64.2415 16.8472 64.1568 17.0205 64.1345C17.1218 64.1214 17.2248 64.1301 17.3224 64.16C17.4201 64.1898 17.5103 64.2402 17.587 64.3076C17.6637 64.3751 17.7251 64.4581 17.7672 64.5512C17.8093 64.6442 17.8311 64.7452 17.8311 64.8473C17.8311 64.9495 17.8093 65.0504 17.7672 65.1435C17.7251 65.2366 17.6637 65.3196 17.587 65.3871C17.5103 65.4545 17.4201 65.5048 17.3224 65.5347C17.2248 65.5645 17.1218 65.5732 17.0205 65.5602Z" fill="url(#paint16_linear_754_30644)"/>
<path d="M45.2044 10.4867C46.2419 10.4891 47.2568 10.1835 48.1206 9.6088C48.9844 9.03407 49.6584 8.21599 50.057 7.25809C50.4557 6.3002 50.5612 5.24555 50.3602 4.22767C50.1592 3.20978 49.6608 2.2744 48.9279 1.53992C48.1951 0.805443 47.2608 0.304894 46.2434 0.101621C45.226 -0.101652 44.1711 0.00148065 43.2123 0.39799C42.2536 0.794499 41.434 1.46658 40.8573 2.3291C40.2806 3.19162 39.9728 4.20581 39.9728 5.24335C39.982 6.62909 40.5357 7.95564 41.5145 8.93663C42.4933 9.91762 43.8186 10.4744 45.2044 10.4867ZM45.2044 3.11065C45.5144 3.08824 45.8257 3.12996 46.1189 3.2332C46.4121 3.33644 46.6808 3.49897 46.9084 3.71069C47.136 3.92241 47.3175 4.17879 47.4416 4.46377C47.5657 4.74875 47.6298 5.05624 47.6298 5.36708C47.6298 5.67792 47.5657 5.98541 47.4416 6.27039C47.3175 6.55537 47.136 6.81175 46.9084 7.02347C46.6808 7.23519 46.4121 7.39772 46.1189 7.50096C45.8257 7.6042 45.5144 7.64592 45.2044 7.6235C44.9052 7.635 44.6069 7.58474 44.328 7.47586C44.0491 7.36698 43.7956 7.20182 43.5834 6.99067C43.3711 6.77952 43.2046 6.52692 43.0943 6.2486C42.9839 5.97028 42.9321 5.6722 42.9421 5.37298C42.9653 4.78041 43.2111 4.2184 43.6305 3.79908C44.0498 3.37975 44.6118 3.13392 45.2044 3.11065Z" fill="url(#paint17_linear_754_30644)"/>
<path d="M23.6775 29.8693H40.091C40.4985 29.8632 40.8876 29.6986 41.1757 29.4105C41.4639 29.1223 41.6285 28.7332 41.6346 28.3257C41.6301 28.1292 41.5863 27.9356 41.5058 27.7562C41.4253 27.5769 41.3097 27.4155 41.1659 27.2815C41.022 27.1475 40.8528 27.0437 40.6682 26.9762C40.4836 26.9086 40.2874 26.8788 40.091 26.8882H23.6775C23.269 26.8973 22.8799 27.0645 22.592 27.3545C22.3042 27.6446 22.14 28.0349 22.134 28.4435C22.1416 28.6386 22.1875 28.8302 22.2692 29.0074C22.351 29.1846 22.4668 29.344 22.6101 29.4764C22.7535 29.6089 22.9216 29.7117 23.1047 29.7791C23.2879 29.8466 23.4825 29.8772 23.6775 29.8693Z" fill="url(#paint18_linear_754_30644)"/>
<path d="M46.0418 31.4132H32.5975C32.1881 31.4132 31.7955 31.5758 31.506 31.8653C31.2166 32.1548 31.054 32.5474 31.054 32.9568C31.054 33.3662 31.2166 33.7588 31.506 34.0482C31.7955 34.3377 32.1881 34.5003 32.5975 34.5003H46.0418C46.4511 34.5003 46.8437 34.3377 47.1332 34.0482C47.4226 33.7588 47.5853 33.3662 47.5853 32.9568C47.5853 32.5474 47.4226 32.1548 47.1332 31.8653C46.8437 31.5758 46.4511 31.4132 46.0418 31.4132Z" fill="url(#paint19_linear_754_30644)"/>
<defs>
<linearGradient id="paint0_linear_754_30644" x1="42.2331" y1="54.665" x2="48.6516" y2="63.7023" gradientUnits="userSpaceOnUse">
<stop stop-color="#32C4F8"/>
<stop offset="0.510417" stop-color="#45C6F5"/>
<stop offset="0.963542" stop-color="#EE76F8"/>
</linearGradient>
<linearGradient id="paint1_linear_754_30644" x1="41.5401" y1="50.7032" x2="43.3455" y2="54.2838" gradientUnits="userSpaceOnUse">
<stop stop-color="#32C4F8"/>
<stop offset="0.510417" stop-color="#45C6F5"/>
<stop offset="0.963542" stop-color="#EE76F8"/>
</linearGradient>
<linearGradient id="paint2_linear_754_30644" x1="48.7334" y1="50.7033" x2="50.9853" y2="53.0322" gradientUnits="userSpaceOnUse">
<stop stop-color="#32C4F8"/>
<stop offset="0.510417" stop-color="#45C6F5"/>
<stop offset="0.963542" stop-color="#EE76F8"/>
</linearGradient>
<linearGradient id="paint3_linear_754_30644" x1="62.5296" y1="20.8571" x2="64.7644" y2="23.1684" gradientUnits="userSpaceOnUse">
<stop stop-color="#32C4F8"/>
<stop offset="0.510417" stop-color="#45C6F5"/>
<stop offset="0.963542" stop-color="#EE76F8"/>
</linearGradient>
<linearGradient id="paint4_linear_754_30644" x1="26.8509" y1="31.3213" x2="29.0856" y2="33.6325" gradientUnits="userSpaceOnUse">
<stop stop-color="#32C4F8"/>
<stop offset="0.510417" stop-color="#45C6F5"/>
<stop offset="0.963542" stop-color="#EE76F8"/>
</linearGradient>
<linearGradient id="paint5_linear_754_30644" x1="31.2479" y1="7.53026" x2="33.4997" y2="9.85914" gradientUnits="userSpaceOnUse">
<stop stop-color="#32C4F8"/>
<stop offset="0.510417" stop-color="#45C6F5"/>
<stop offset="0.963542" stop-color="#EE76F8"/>
</linearGradient>
<linearGradient id="paint6_linear_754_30644" x1="14.9507" y1="13.4813" x2="17.1854" y2="15.7926" gradientUnits="userSpaceOnUse">
<stop stop-color="#32C4F8"/>
<stop offset="0.510417" stop-color="#45C6F5"/>
<stop offset="0.963542" stop-color="#EE76F8"/>
</linearGradient>
<linearGradient id="paint7_linear_754_30644" x1="3.0493" y1="28.3503" x2="5.28407" y2="30.6615" gradientUnits="userSpaceOnUse">
<stop stop-color="#32C4F8"/>
<stop offset="0.510417" stop-color="#45C6F5"/>
<stop offset="0.963542" stop-color="#EE76F8"/>
</linearGradient>
<linearGradient id="paint8_linear_754_30644" x1="4.48912" y1="61.0478" x2="6.74091" y2="63.3767" gradientUnits="userSpaceOnUse">
<stop stop-color="#32C4F8"/>
<stop offset="0.510417" stop-color="#45C6F5"/>
<stop offset="0.963542" stop-color="#EE76F8"/>
</linearGradient>
<linearGradient id="paint9_linear_754_30644" x1="29.8222" y1="61.0478" x2="32.074" y2="63.3768" gradientUnits="userSpaceOnUse">
<stop stop-color="#32C4F8"/>
<stop offset="0.510417" stop-color="#45C6F5"/>
<stop offset="0.963542" stop-color="#EE76F8"/>
</linearGradient>
<linearGradient id="paint10_linear_754_30644" x1="28.2765" y1="49.159" x2="30.5113" y2="51.4702" gradientUnits="userSpaceOnUse">
<stop stop-color="#32C4F8"/>
<stop offset="0.510417" stop-color="#45C6F5"/>
<stop offset="0.963542" stop-color="#EE76F8"/>
</linearGradient>
<linearGradient id="paint11_linear_754_30644" x1="4.26852" y1="12.485" x2="46.7938" y2="63.0187" gradientUnits="userSpaceOnUse">
<stop stop-color="#32C4F8"/>
<stop offset="0.510417" stop-color="#45C6F5"/>
<stop offset="0.963542" stop-color="#EE76F8"/>
</linearGradient>
<linearGradient id="paint12_linear_754_30644" x1="5.737" y1="42.027" x2="11.3169" y2="54.5113" gradientUnits="userSpaceOnUse">
<stop stop-color="#32C4F8"/>
<stop offset="0.510417" stop-color="#45C6F5"/>
<stop offset="0.963542" stop-color="#EE76F8"/>
</linearGradient>
<linearGradient id="paint13_linear_754_30644" x1="1.86171" y1="2.90178" x2="5.51243" y2="15.1456" gradientUnits="userSpaceOnUse">
<stop stop-color="#32C4F8"/>
<stop offset="0.510417" stop-color="#45C6F5"/>
<stop offset="0.963542" stop-color="#EE76F8"/>
</linearGradient>
<linearGradient id="paint14_linear_754_30644" x1="53.1585" y1="7.56585" x2="56.8741" y2="16.8491" gradientUnits="userSpaceOnUse">
<stop stop-color="#32C4F8"/>
<stop offset="0.510417" stop-color="#45C6F5"/>
<stop offset="0.963542" stop-color="#EE76F8"/>
</linearGradient>
<linearGradient id="paint15_linear_754_30644" x1="1.878" y1="14.9434" x2="8.42872" y2="21.7183" gradientUnits="userSpaceOnUse">
<stop stop-color="#32C4F8"/>
<stop offset="0.510417" stop-color="#45C6F5"/>
<stop offset="0.963542" stop-color="#EE76F8"/>
</linearGradient>
<linearGradient id="paint16_linear_754_30644" x1="13.7924" y1="61.2141" x2="19.1319" y2="66.7364" gradientUnits="userSpaceOnUse">
<stop stop-color="#32C4F8"/>
<stop offset="0.510417" stop-color="#45C6F5"/>
<stop offset="0.963542" stop-color="#EE76F8"/>
</linearGradient>
<linearGradient id="paint17_linear_754_30644" x1="40.6266" y1="0.0863085" x2="48.218" y2="7.93749" gradientUnits="userSpaceOnUse">
<stop stop-color="#32C4F8"/>
<stop offset="0.510417" stop-color="#45C6F5"/>
<stop offset="0.963542" stop-color="#EE76F8"/>
</linearGradient>
<linearGradient id="paint18_linear_754_30644" x1="23.3498" y1="26.9111" x2="23.9757" y2="31.1411" gradientUnits="userSpaceOnUse">
<stop stop-color="#32C4F8"/>
<stop offset="0.510417" stop-color="#45C6F5"/>
<stop offset="0.963542" stop-color="#EE76F8"/>
</linearGradient>
<linearGradient id="paint19_linear_754_30644" x1="32.0847" y1="31.4386" x2="32.8667" y2="35.7695" gradientUnits="userSpaceOnUse">
<stop stop-color="#32C4F8"/>
<stop offset="0.510417" stop-color="#45C6F5"/>
<stop offset="0.963542" stop-color="#EE76F8"/>
</linearGradient>
</defs>
</svg>
