<svg width="78" height="76" viewBox="0 0 78 76" fill="none" xmlns="http://www.w3.org/2000/svg">
<g filter="url(#filter0_ddddddd_754_30703)">
<path d="M21.471 13.3093C21.3355 13.1686 21.173 13.0568 20.9932 12.9804C20.8135 12.904 20.6201 12.8646 20.4248 12.8646C20.2295 12.8646 20.0362 12.904 19.8565 12.9804C19.6767 13.0568 19.5142 13.1686 19.3787 13.3093C19.2409 13.4464 19.1316 13.6095 19.057 13.789C18.9824 13.9685 18.944 14.161 18.944 14.3554C18.944 14.5498 18.9824 14.7423 19.057 14.9219C19.1316 15.1014 19.2409 15.2644 19.3787 15.4016L22.5288 18.5517C22.6653 18.6927 22.8288 18.8048 23.0095 18.8813C23.1903 18.9578 23.3845 18.9973 23.5807 18.9973C23.777 18.9973 23.9713 18.9578 24.152 18.8813C24.3327 18.8048 24.4962 18.6927 24.6327 18.5517L31.0492 12.1352C31.1907 11.9978 31.3034 11.8337 31.3809 11.6523C31.4584 11.4709 31.499 11.276 31.5004 11.0788C31.5019 10.8816 31.4641 10.686 31.3893 10.5035C31.3145 10.3211 31.2041 10.1553 31.0647 10.0158C30.9252 9.87635 30.7594 9.76601 30.5769 9.6912C30.3945 9.6164 30.199 9.57862 30.0017 9.58006C29.8045 9.5815 29.6096 9.62213 29.4282 9.69959C29.2468 9.77706 29.0827 9.88981 28.9453 10.0313L23.6912 15.4016L21.471 13.3093Z" fill="url(#paint0_linear_754_30703)"/>
<path d="M19.9598 8.75303H22.8775C23.0879 8.77147 23.2998 8.74595 23.4997 8.67809C23.6997 8.61023 23.8834 8.50152 24.0391 8.35886C24.1948 8.2162 24.3191 8.04272 24.4042 7.84943C24.4892 7.65614 24.5331 7.44727 24.5331 7.2361C24.5331 7.02492 24.4892 6.81606 24.4042 6.62277C24.3191 6.42949 24.1948 6.256 24.0391 6.11334C23.8834 5.97069 23.6997 5.86198 23.4997 5.79412C23.2998 5.72626 23.0879 5.70073 22.8775 5.71916H19.9598C19.5538 5.716 19.1628 5.87273 18.8713 6.15549C18.5799 6.43824 18.4114 6.82432 18.4022 7.23029C18.4484 7.62404 18.6282 7.99005 18.9117 8.26719C19.1952 8.54433 19.5651 8.71582 19.9598 8.75303Z" fill="url(#paint1_linear_754_30703)"/>
<path d="M27.3178 8.75295C27.619 8.75295 27.9134 8.66365 28.1638 8.49633C28.4142 8.32901 28.6094 8.09118 28.7246 7.81293C28.8399 7.53469 28.8701 7.22852 28.8113 6.93313C28.7526 6.63775 28.6075 6.36642 28.3946 6.15346C28.1816 5.9405 27.9103 5.79547 27.6149 5.73672C27.3195 5.67796 27.0133 5.70812 26.7351 5.82337C26.4568 5.93863 26.219 6.1338 26.0517 6.38421C25.8844 6.63463 25.795 6.92904 25.795 7.23021C25.801 7.6322 25.9634 8.01604 26.2477 8.30032C26.532 8.5846 26.9158 8.74695 27.3178 8.75295Z" fill="url(#paint2_linear_754_30703)"/>
<path d="M41.906 15.9947C42.2072 15.9947 42.5016 15.9054 42.752 15.7381C43.0024 15.5707 43.1976 15.3329 43.3128 15.0547C43.4281 14.7764 43.4582 14.4703 43.3995 14.1749C43.3407 13.8795 43.1957 13.6082 42.9827 13.3952C42.7698 13.1822 42.4985 13.0372 42.2031 12.9784C41.9077 12.9197 41.6015 12.9498 41.3233 13.0651C41.045 13.1804 40.8072 13.3755 40.6399 13.626C40.4726 13.8764 40.3833 14.1708 40.3833 14.4719C40.3768 14.6737 40.4118 14.8746 40.486 15.0622C40.5602 15.2499 40.6722 15.4204 40.8149 15.5631C40.9576 15.7058 41.1281 15.8177 41.3157 15.8919C41.5034 15.9662 41.7043 16.0012 41.906 15.9947Z" fill="url(#paint3_linear_754_30703)"/>
<path d="M58.0169 5.83511C58.3181 5.83511 58.6125 5.7458 58.8629 5.57848C59.1133 5.41116 59.3085 5.17333 59.4237 4.89509C59.539 4.61684 59.5692 4.31067 59.5104 4.01529C59.4516 3.7199 59.3066 3.44858 59.0937 3.23562C58.8807 3.02266 58.6094 2.87763 58.314 2.81887C58.0186 2.76012 57.7124 2.79027 57.4342 2.90553C57.1559 3.02078 56.9181 3.21595 56.7508 3.46637C56.5835 3.71678 56.4941 4.01119 56.4941 4.31236C56.5001 4.71435 56.6625 5.09819 56.9468 5.38247C57.2311 5.66675 57.6149 5.82911 58.0169 5.83511Z" fill="url(#paint4_linear_754_30703)"/>
<path d="M9.80042 10.1474C10.1026 10.1497 10.3986 10.0621 10.6508 9.89566C10.903 9.72923 11.0999 9.49153 11.2166 9.21281C11.3333 8.9341 11.3644 8.62697 11.306 8.33051C11.2476 8.03404 11.1024 7.76165 10.8888 7.54799C10.6751 7.33433 10.4027 7.18907 10.1062 7.13069C9.80978 7.0723 9.50262 7.10344 9.2239 7.22013C8.94519 7.33682 8.7075 7.53379 8.54107 7.78598C8.37463 8.03817 8.28698 8.33417 8.28928 8.63632C8.28281 8.83651 8.3175 9.0359 8.39116 9.22216C8.46481 9.40842 8.57588 9.5776 8.71751 9.71923C8.85914 9.86086 9.02831 9.97193 9.21457 10.0456C9.40083 10.1192 9.60023 10.1539 9.80042 10.1474Z" fill="url(#paint5_linear_754_30703)"/>
<path d="M68.1647 8.75291C68.4663 8.75521 68.7619 8.66787 69.0138 8.50195C69.2657 8.33604 69.4627 8.09902 69.5798 7.82099C69.6968 7.54295 69.7286 7.23643 69.6712 6.94028C69.6138 6.64414 69.4697 6.37172 69.2572 6.1576C69.0447 5.94347 68.7734 5.79728 68.4777 5.73758C68.182 5.67788 67.8752 5.70734 67.5963 5.82225C67.3174 5.93715 67.0788 6.13231 66.911 6.38297C66.7432 6.63363 66.6536 6.9285 66.6536 7.23017C66.678 7.62406 66.8447 7.99566 67.1227 8.27579C67.4007 8.55592 67.771 8.72548 68.1647 8.75291Z" fill="url(#paint6_linear_754_30703)"/>
<path d="M72.6051 56.8415H69.6874V22.9923C69.6874 22.2718 69.5455 21.5584 69.2698 20.8927C68.9941 20.2271 68.59 19.6222 68.0805 19.1128C67.571 18.6033 66.9662 18.1992 66.3005 17.9234C65.6349 17.6477 64.9214 17.5058 64.2009 17.5058H35.1408C36.1986 14.8206 36.0823 11.438 36.0823 3.38259C36.0874 3.04824 35.9732 2.72302 35.7602 2.46527C35.5472 2.20751 35.2493 2.03408 34.9199 1.97608L24.8884 0H24.2956L14.264 1.97608C13.9347 2.03408 13.6368 2.20751 13.4238 2.46527C13.2108 2.72302 13.0966 3.04824 13.1016 3.38259C13.1016 10.9731 12.9854 14.7044 14.0432 17.5058H13.9269C12.4718 17.5058 11.0763 18.0838 10.0474 19.1128C9.01846 20.1417 8.44039 21.5372 8.44039 22.9923V56.8415H5.52278C5.12079 56.8475 4.73693 57.0099 4.45265 57.2942C4.16836 57.5785 4.006 57.9623 4 58.3643C4.01824 60.6801 4.94629 62.8958 6.58384 64.5334C8.22139 66.1709 10.4372 67.099 12.7529 67.1172H65.2471C67.5628 67.099 69.7786 66.1709 71.4162 64.5334C73.0537 62.8958 73.9818 60.6801 74 58.3643C74.0013 57.9816 73.8585 57.6125 73.6001 57.3303C73.3416 57.0482 72.9864 56.8737 72.6051 56.8415ZM64.0847 20.4234C64.7632 20.4325 65.4114 20.706 65.8912 21.1858C66.371 21.6657 66.6446 22.3138 66.6536 22.9923V56.8415H63.7359V24.7824C63.7299 24.3805 63.5676 23.9966 63.2833 23.7123C62.999 23.4281 62.6152 23.2657 62.2132 23.2597H30.5842C31.6304 22.0973 32.5603 21.1557 33.2694 20.3421H64.0847V20.4234ZM46.2185 56.8415C45.9505 56.8437 45.6886 56.9212 45.4625 57.065C45.2365 57.2089 45.0553 57.4134 44.9399 57.6552L43.8821 59.7592H33.9668L32.9206 57.6552C32.8032 57.4125 32.62 57.2075 32.3919 57.0637C32.1639 56.9199 31.9 56.8429 31.6304 56.8415H17.0422V26.2587H60.8183V56.9578H46.2185V56.8415ZM15.996 5.48655V4.54499L24.5165 2.91764L33.0369 4.54499C33.0369 10.7406 33.1531 14.007 32.444 15.9947C31.735 17.9824 30.1192 19.3773 26.3763 23.3411H22.5287C19.0415 19.726 17.2747 18.2032 16.5772 16.1109C15.8798 14.0186 15.996 11.2056 15.996 5.48655ZM11.2069 22.9923C11.2129 22.3169 11.4822 21.6704 11.9577 21.1906C12.4332 20.7108 13.0772 20.4355 13.7526 20.4234H15.7287C16.5566 21.4522 17.4495 22.4267 18.4022 23.3411H15.4846C15.0846 23.35 14.7037 23.5137 14.4219 23.7977C14.1401 24.0817 13.9794 24.4638 13.9734 24.8638V56.9578H11.0558V22.9923H11.2069ZM65.2471 64.1996H12.718C11.4229 64.1895 10.1682 63.7471 9.1532 62.9427C8.13815 62.1382 7.42089 61.0178 7.11527 59.7592H30.8167L31.8628 61.8631C31.9791 62.1067 32.1621 62.3124 32.3904 62.4564C32.6187 62.6004 32.8832 62.6768 33.1531 62.6768H44.7771C45.0451 62.6746 45.3071 62.5972 45.5332 62.4533C45.7592 62.3095 45.9403 62.1049 46.0558 61.8631L47.1136 59.7592H70.8033C70.4997 61.0101 69.7894 62.1249 68.7838 62.9285C67.7781 63.7322 66.5342 64.1792 65.2471 64.1996Z" fill="url(#paint7_linear_754_30703)"/>
<path d="M26.8413 44.1248C26.7057 43.9842 26.5432 43.8723 26.3635 43.7959C26.1837 43.7195 25.9904 43.6801 25.7951 43.6801C25.5998 43.6801 25.4065 43.7195 25.2267 43.7959C25.047 43.8723 24.8844 43.9842 24.7489 44.1248L24.4002 44.5898L23.9236 44.1248C23.6461 43.8473 23.2698 43.6915 22.8775 43.6915C22.4851 43.6915 22.1088 43.8473 21.8313 44.1248C21.5538 44.4023 21.3979 44.7786 21.3979 45.171C21.3979 45.5634 21.5538 45.9397 21.8313 46.2171L22.2963 46.6937L21.8313 47.1587C21.6939 47.2961 21.5849 47.4592 21.5106 47.6387C21.4362 47.8182 21.3979 48.0105 21.3979 48.2048C21.3979 48.3991 21.4362 48.5915 21.5106 48.771C21.5849 48.9505 21.6939 49.1136 21.8313 49.251C21.9687 49.3884 22.1318 49.4974 22.3113 49.5717C22.4908 49.6461 22.6832 49.6843 22.8775 49.6843C23.0717 49.6843 23.2641 49.6461 23.4436 49.5717C23.6231 49.4974 23.7862 49.3884 23.9236 49.251L24.4002 48.786L24.8652 49.251C25.0025 49.3884 25.1656 49.4974 25.3451 49.5717C25.5246 49.6461 25.717 49.6843 25.9113 49.6843C26.1056 49.6843 26.298 49.6461 26.4775 49.5717C26.657 49.4974 26.8201 49.3884 26.9575 49.251C27.0949 49.1136 27.2038 48.9505 27.2782 48.771C27.3525 48.5915 27.3908 48.3991 27.3908 48.2048C27.3908 48.0105 27.3525 47.8182 27.2782 47.6387C27.2038 47.4592 27.0949 47.2961 26.9575 47.1587L26.4925 46.6937L26.9575 46.2171C27.1993 45.9153 27.3212 45.5349 27.2998 45.1487C27.2783 44.7626 27.1151 44.3979 26.8413 44.1248Z" fill="url(#paint8_linear_754_30703)"/>
<path d="M34.1993 44.1248C34.0627 43.9838 33.8992 43.8717 33.7185 43.7952C33.5378 43.7186 33.3436 43.6792 33.1473 43.6792C32.951 43.6792 32.7568 43.7186 32.5761 43.7952C32.3953 43.8717 32.2319 43.9838 32.0953 44.1248L31.6304 44.5897L31.1654 44.1248C30.8815 43.8796 30.5155 43.7506 30.1406 43.7638C29.7657 43.7769 29.4096 43.9312 29.1436 44.1957C28.8776 44.4603 28.7214 44.8155 28.7061 45.1903C28.6909 45.5651 28.8178 45.9319 29.0615 46.2171L29.5264 46.6937L29.0615 47.1586C28.8178 47.4439 28.6909 47.8106 28.7061 48.1854C28.7214 48.5603 28.8776 48.9155 29.1436 49.18C29.4096 49.4445 29.7657 49.5988 30.1406 49.612C30.5155 49.6251 30.8815 49.4962 31.1654 49.251L31.6304 48.786L32.0953 49.251C32.3792 49.4962 32.7452 49.6251 33.1201 49.612C33.495 49.5988 33.8511 49.4445 34.1171 49.18C34.3831 48.9155 34.5393 48.5603 34.5546 48.1854C34.5698 47.8106 34.4429 47.4439 34.1993 47.1586L33.7343 46.6937L34.1993 46.2171C34.337 46.0799 34.4464 45.9169 34.5209 45.7374C34.5955 45.5578 34.634 45.3653 34.634 45.1709C34.634 44.9765 34.5955 44.784 34.5209 44.6045C34.4464 44.425 34.337 44.2619 34.1993 44.1248Z" fill="url(#paint9_linear_754_30703)"/>
<path d="M41.4411 44.1245C41.3045 43.9836 41.141 43.8715 40.9603 43.795C40.7796 43.7184 40.5854 43.679 40.3891 43.679C40.1928 43.679 39.9986 43.7184 39.8179 43.795C39.6372 43.8715 39.4737 43.9836 39.3371 44.1245L38.9884 44.5895L38.5234 44.1245C38.3904 43.9688 38.2266 43.8421 38.0423 43.7526C37.858 43.6631 37.6572 43.6126 37.4525 43.6043C37.2478 43.5959 37.0436 43.63 36.8527 43.7043C36.6617 43.7785 36.4882 43.8914 36.3429 44.0359C36.1977 44.1804 36.0838 44.3533 36.0085 44.5438C35.9331 44.7343 35.898 44.9384 35.9052 45.1431C35.9123 45.3479 35.9617 45.5489 36.0502 45.7337C36.1387 45.9185 36.2644 46.083 36.4195 46.2169L36.8844 46.6935L36.4195 47.1584C36.2644 47.2923 36.1387 47.4568 36.0502 47.6416C35.9617 47.8264 35.9123 48.0274 35.9052 48.2322C35.898 48.4369 35.9331 48.641 36.0085 48.8315C36.0838 49.022 36.1977 49.1949 36.3429 49.3394C36.4882 49.4839 36.6617 49.5968 36.8527 49.671C37.0436 49.7453 37.2478 49.7794 37.4525 49.771C37.6572 49.7627 37.858 49.7122 38.0423 49.6227C38.2266 49.5331 38.3904 49.4065 38.5234 49.2508L38.9884 48.7858L39.4533 49.2508C39.7372 49.496 40.1033 49.6249 40.4782 49.6117C40.8531 49.5986 41.2091 49.4443 41.4751 49.1798C41.7411 48.9153 41.8974 48.56 41.9126 48.1852C41.9279 47.8104 41.801 47.4437 41.5573 47.1584L41.0807 46.6935L41.5573 46.2169C41.7944 45.9131 41.9132 45.5336 41.8918 45.1489C41.8705 44.7642 41.7103 44.4002 41.4411 44.1245Z" fill="url(#paint10_linear_754_30703)"/>
<path d="M48.7874 44.1245C48.6519 43.9839 48.4894 43.8721 48.3096 43.7957C48.1299 43.7193 47.9365 43.6799 47.7412 43.6799C47.5459 43.6799 47.3526 43.7193 47.1729 43.7957C46.9931 43.8721 46.8306 43.9839 46.6951 44.1245L46.2185 44.5895L45.7535 44.1245C45.6205 43.9688 45.4567 43.8421 45.2724 43.7526C45.0881 43.6631 44.8873 43.6126 44.6826 43.6043C44.4779 43.5959 44.2737 43.63 44.0828 43.7043C43.8918 43.7785 43.7183 43.8914 43.573 44.0359C43.4278 44.1804 43.3139 44.3533 43.2386 44.5438C43.1632 44.7343 43.1281 44.9384 43.1353 45.1431C43.1424 45.3479 43.1918 45.5489 43.2803 45.7337C43.3688 45.9185 43.4945 46.083 43.6496 46.2169L44.1262 46.6935L43.6496 47.1584C43.4945 47.2923 43.3688 47.4568 43.2803 47.6416C43.1918 47.8264 43.1424 48.0274 43.1353 48.2322C43.1281 48.4369 43.1632 48.641 43.2386 48.8315C43.3139 49.022 43.4278 49.1949 43.573 49.3394C43.7183 49.4839 43.8918 49.5968 44.0828 49.671C44.2737 49.7453 44.4779 49.7794 44.6826 49.771C44.8873 49.7627 45.0881 49.7122 45.2724 49.6227C45.4567 49.5331 45.6205 49.4065 45.7535 49.2508L46.2185 48.7858L46.6951 49.2508C46.8306 49.3914 46.9931 49.5032 47.1729 49.5796C47.3526 49.656 47.5459 49.6954 47.7412 49.6954C47.9365 49.6954 48.1299 49.656 48.3096 49.5796C48.4894 49.5032 48.6519 49.3914 48.7874 49.2508C48.9252 49.1136 49.0345 48.9506 49.1091 48.771C49.1837 48.5915 49.2221 48.399 49.2221 48.2046C49.2221 48.0102 49.1837 47.8177 49.1091 47.6382C49.0345 47.4586 48.9252 47.2956 48.7874 47.1584L48.3224 46.6935L48.7874 46.2169C48.9252 46.0797 49.0345 45.9167 49.1091 45.7371C49.1837 45.5576 49.2221 45.3651 49.2221 45.1707C49.2221 44.9763 49.1837 44.7838 49.1091 44.6043C49.0345 44.4247 48.9252 44.2617 48.7874 44.1245Z" fill="url(#paint11_linear_754_30703)"/>
<path d="M56.0292 44.1248C55.8926 43.9838 55.7292 43.8717 55.5484 43.7952C55.3677 43.7186 55.1735 43.6792 54.9772 43.6792C54.781 43.6792 54.5867 43.7186 54.406 43.7952C54.2253 43.8717 54.0618 43.9838 53.9252 44.1248L53.5765 44.5897L53.1115 44.1248C52.8277 43.8796 52.4616 43.7506 52.0867 43.7638C51.7118 43.7769 51.3558 43.9312 51.0898 44.1957C50.8238 44.4603 50.6675 44.8155 50.6523 45.1903C50.6371 45.5651 50.764 45.9319 51.0076 46.2171L51.4726 46.6937L51.0076 47.1586C50.764 47.4439 50.6371 47.8106 50.6523 48.1854C50.6675 48.5603 50.8238 48.9155 51.0898 49.18C51.3558 49.4445 51.7118 49.5988 52.0867 49.612C52.4616 49.6251 52.8277 49.4962 53.1115 49.251L53.5765 48.786L54.0415 49.251C54.1746 49.4068 54.3383 49.5334 54.5226 49.6229C54.7069 49.7124 54.9077 49.7629 55.1124 49.7713C55.3171 49.7796 55.5213 49.7455 55.7123 49.6713C55.9032 49.597 56.0767 49.4841 56.222 49.3396C56.3673 49.1951 56.4811 49.0222 56.5565 48.8317C56.6318 48.6412 56.667 48.4372 56.6598 48.2324C56.6526 48.0277 56.6032 47.8266 56.5147 47.6418C56.4262 47.4571 56.3005 47.2926 56.1454 47.1586L55.6805 46.6937L56.1454 46.2171C56.3825 45.9133 56.5013 45.5339 56.48 45.1491C56.4586 44.7644 56.2984 44.4004 56.0292 44.1248Z" fill="url(#paint12_linear_754_30703)"/>
<path d="M21.471 42.2184H56.4942C56.7046 42.2368 56.9165 42.2113 57.1165 42.1434C57.3164 42.0756 57.5001 41.9668 57.6558 41.8242C57.8115 41.6815 57.9358 41.508 58.0209 41.3148C58.1059 41.1215 58.1499 40.9126 58.1499 40.7014C58.1499 40.4903 58.1059 40.2814 58.0209 40.0881C57.9358 39.8948 57.8115 39.7213 57.6558 39.5787C57.5001 39.436 57.3164 39.3273 57.1165 39.2594C56.9165 39.1916 56.7046 39.1661 56.4942 39.1845H21.471C21.0721 39.1905 20.6912 39.3516 20.4091 39.6337C20.127 39.9158 19.9659 40.2967 19.9599 40.6956C19.9518 40.8968 19.9852 41.0974 20.0582 41.2851C20.1311 41.4727 20.2419 41.6433 20.3837 41.7862C20.5255 41.9291 20.6952 42.0412 20.8823 42.1156C21.0694 42.1899 21.2698 42.2249 21.471 42.2184Z" fill="url(#paint13_linear_754_30703)"/>
<path d="M56.4942 51.0063H21.471C21.0916 51.0395 20.7384 51.2137 20.4811 51.4945C20.2238 51.7753 20.0811 52.1424 20.0811 52.5232C20.0811 52.9041 20.2238 53.2711 20.4811 53.5519C20.7384 53.8327 21.0916 54.0069 21.471 54.0401H56.4942C56.7045 54.0586 56.9164 54.0331 57.1164 53.9652C57.3164 53.8973 57.5001 53.7886 57.6558 53.646C57.8115 53.5033 57.9358 53.3298 58.0209 53.1365C58.1059 52.9433 58.1498 52.7344 58.1498 52.5232C58.1498 52.312 58.1059 52.1032 58.0209 51.9099C57.9358 51.7166 57.8115 51.5431 57.6558 51.4005C57.5001 51.2578 57.3164 51.1491 57.1164 51.0812C56.9164 51.0134 56.7045 50.9878 56.4942 51.0063Z" fill="url(#paint14_linear_754_30703)"/>
<path d="M58.0169 12.3675C58.0169 13.0825 58.2289 13.7814 58.6262 14.3759C59.0234 14.9704 59.588 15.4338 60.2486 15.7074C60.9091 15.981 61.636 16.0526 62.3373 15.9131C63.0385 15.7736 63.6827 15.4293 64.1882 14.9238C64.6938 14.4182 65.0381 13.774 65.1776 13.0728C65.3171 12.3715 65.2455 11.6447 64.9719 10.9841C64.6983 10.3235 64.2349 9.75892 63.6404 9.36169C63.0459 8.96446 62.347 8.75244 61.632 8.75244C60.6751 8.75854 59.7591 9.14137 59.0825 9.81801C58.4059 10.4947 58.023 11.4106 58.0169 12.3675ZM61.632 11.6701C61.7699 11.6701 61.9048 11.711 62.0195 11.7876C62.1342 11.8643 62.2236 11.9732 62.2763 12.1006C62.3291 12.2281 62.343 12.3683 62.316 12.5036C62.2891 12.6389 62.2227 12.7631 62.1252 12.8607C62.0276 12.9582 61.9034 13.0246 61.7681 13.0516C61.6328 13.0785 61.4925 13.0647 61.3651 13.0119C61.2377 12.9591 61.1287 12.8697 61.0521 12.755C60.9755 12.6403 60.9346 12.5055 60.9346 12.3675C60.9313 12.2751 60.9471 12.1829 60.981 12.0968C61.0149 12.0107 61.0662 11.9325 61.1316 11.8671C61.197 11.8017 61.2752 11.7504 61.3613 11.7165C61.4474 11.6826 61.5395 11.6668 61.632 11.6701Z" fill="url(#paint15_linear_754_30703)"/>
<path d="M44.8236 10.1479C45.4057 10.1494 45.9822 10.0359 46.5202 9.81388C47.0582 9.59186 47.5471 9.2657 47.9587 8.85415C48.3702 8.4426 48.6963 7.95377 48.9184 7.41575C49.1404 6.87774 49.2539 6.30115 49.2524 5.71912C49.251 5.14281 49.1347 4.57256 48.9103 4.04172C48.6859 3.51088 48.358 3.0301 47.9456 2.62748C47.5332 2.22486 47.0448 1.90849 46.5087 1.69687C45.9727 1.48525 45.3998 1.38262 44.8236 1.39498C43.646 1.39498 42.5165 1.86281 41.6838 2.69554C40.851 3.52828 40.3832 4.6577 40.3832 5.83536C40.3862 6.41169 40.504 6.98167 40.7297 7.51194C40.9555 8.04221 41.2848 8.52215 41.6982 8.92369C42.1117 9.32523 42.601 9.6403 43.1376 9.8505C43.6743 10.0607 44.2475 10.1618 44.8236 10.1479ZM44.8236 4.33587C45.1248 4.33587 45.4192 4.42517 45.6696 4.59249C45.92 4.75982 46.1152 4.99763 46.2304 5.27588C46.3457 5.55412 46.3759 5.8603 46.3171 6.15569C46.2584 6.45107 46.1133 6.7224 45.9004 6.93536C45.6874 7.14832 45.4161 7.29335 45.1207 7.3521C44.8253 7.41086 44.5191 7.3807 44.2409 7.26545C43.9627 7.1502 43.7248 6.95502 43.5575 6.70461C43.3902 6.4542 43.3009 6.15979 43.3009 5.85861C43.3008 5.45259 43.4605 5.06284 43.7454 4.77357C44.0304 4.4843 44.4176 4.31872 44.8236 4.31262V4.33587Z" fill="url(#paint16_linear_754_30703)"/>
</g>
<defs>
<filter id="filter0_ddddddd_754_30703" x="0" y="0" width="78" height="75.1172" filterUnits="userSpaceOnUse" color-interpolation-filters="sRGB">
<feFlood flood-opacity="0" result="BackgroundImageFix"/>
<feColorMatrix in="SourceAlpha" type="matrix" values="0 0 0 0 0 0 0 0 0 0 0 0 0 0 0 0 0 0 127 0" result="hardAlpha"/>
<feOffset dy="4"/>
<feGaussianBlur stdDeviation="2"/>
<feComposite in2="hardAlpha" operator="out"/>
<feColorMatrix type="matrix" values="0 0 0 0 0 0 0 0 0 0 0 0 0 0 0 0 0 0 0.25 0"/>
<feBlend mode="normal" in2="BackgroundImageFix" result="effect1_dropShadow_754_30703"/>
<feColorMatrix in="SourceAlpha" type="matrix" values="0 0 0 0 0 0 0 0 0 0 0 0 0 0 0 0 0 0 127 0" result="hardAlpha"/>
<feOffset dy="4"/>
<feGaussianBlur stdDeviation="2"/>
<feComposite in2="hardAlpha" operator="out"/>
<feColorMatrix type="matrix" values="0 0 0 0 0 0 0 0 0 0 0 0 0 0 0 0 0 0 0.25 0"/>
<feBlend mode="normal" in2="effect1_dropShadow_754_30703" result="effect2_dropShadow_754_30703"/>
<feColorMatrix in="SourceAlpha" type="matrix" values="0 0 0 0 0 0 0 0 0 0 0 0 0 0 0 0 0 0 127 0" result="hardAlpha"/>
<feOffset dy="4"/>
<feGaussianBlur stdDeviation="2"/>
<feComposite in2="hardAlpha" operator="out"/>
<feColorMatrix type="matrix" values="0 0 0 0 0 0 0 0 0 0 0 0 0 0 0 0 0 0 0.25 0"/>
<feBlend mode="normal" in2="effect2_dropShadow_754_30703" result="effect3_dropShadow_754_30703"/>
<feColorMatrix in="SourceAlpha" type="matrix" values="0 0 0 0 0 0 0 0 0 0 0 0 0 0 0 0 0 0 127 0" result="hardAlpha"/>
<feOffset dy="4"/>
<feGaussianBlur stdDeviation="2"/>
<feComposite in2="hardAlpha" operator="out"/>
<feColorMatrix type="matrix" values="0 0 0 0 0 0 0 0 0 0 0 0 0 0 0 0 0 0 0.25 0"/>
<feBlend mode="normal" in2="effect3_dropShadow_754_30703" result="effect4_dropShadow_754_30703"/>
<feColorMatrix in="SourceAlpha" type="matrix" values="0 0 0 0 0 0 0 0 0 0 0 0 0 0 0 0 0 0 127 0" result="hardAlpha"/>
<feOffset dy="4"/>
<feGaussianBlur stdDeviation="2"/>
<feComposite in2="hardAlpha" operator="out"/>
<feColorMatrix type="matrix" values="0 0 0 0 0 0 0 0 0 0 0 0 0 0 0 0 0 0 1 0"/>
<feBlend mode="normal" in2="effect4_dropShadow_754_30703" result="effect5_dropShadow_754_30703"/>
<feColorMatrix in="SourceAlpha" type="matrix" values="0 0 0 0 0 0 0 0 0 0 0 0 0 0 0 0 0 0 127 0" result="hardAlpha"/>
<feOffset dy="4"/>
<feGaussianBlur stdDeviation="2"/>
<feComposite in2="hardAlpha" operator="out"/>
<feColorMatrix type="matrix" values="0 0 0 0 0 0 0 0 0 0 0 0 0 0 0 0 0 0 1 0"/>
<feBlend mode="normal" in2="effect5_dropShadow_754_30703" result="effect6_dropShadow_754_30703"/>
<feColorMatrix in="SourceAlpha" type="matrix" values="0 0 0 0 0 0 0 0 0 0 0 0 0 0 0 0 0 0 127 0" result="hardAlpha"/>
<feOffset dy="4"/>
<feGaussianBlur stdDeviation="2"/>
<feComposite in2="hardAlpha" operator="out"/>
<feColorMatrix type="matrix" values="0 0 0 0 0 0 0 0 0 0 0 0 0 0 0 0 0 0 1 0"/>
<feBlend mode="normal" in2="effect6_dropShadow_754_30703" result="effect7_dropShadow_754_30703"/>
<feBlend mode="normal" in="SourceGraphic" in2="effect7_dropShadow_754_30703" result="shape"/>
</filter>
<linearGradient id="paint0_linear_754_30703" x1="20.4265" y1="9.90621" x2="27.0573" y2="20.955" gradientUnits="userSpaceOnUse">
<stop stop-color="#3DDEF4"/>
<stop offset="0.466667" stop-color="#2ABFFF"/>
<stop offset="1" stop-color="#FF76FA"/>
</linearGradient>
<linearGradient id="paint1_linear_754_30703" x1="19.1261" y1="5.81884" x2="20.7943" y2="10.0158" gradientUnits="userSpaceOnUse">
<stop stop-color="#3DDEF4"/>
<stop offset="0.466667" stop-color="#2ABFFF"/>
<stop offset="1" stop-color="#FF76FA"/>
</linearGradient>
<linearGradient id="paint2_linear_754_30703" x1="26.1546" y1="5.81295" x2="28.5255" y2="8.77584" gradientUnits="userSpaceOnUse">
<stop stop-color="#3DDEF4"/>
<stop offset="0.466667" stop-color="#2ABFFF"/>
<stop offset="1" stop-color="#FF76FA"/>
</linearGradient>
<linearGradient id="paint3_linear_754_30703" x1="40.7422" y1="13.0547" x2="43.1136" y2="16.0183" gradientUnits="userSpaceOnUse">
<stop stop-color="#3DDEF4"/>
<stop offset="0.466667" stop-color="#2ABFFF"/>
<stop offset="1" stop-color="#FF76FA"/>
</linearGradient>
<linearGradient id="paint4_linear_754_30703" x1="56.8537" y1="2.8951" x2="59.2246" y2="5.85799" gradientUnits="userSpaceOnUse">
<stop stop-color="#3DDEF4"/>
<stop offset="0.466667" stop-color="#2ABFFF"/>
<stop offset="1" stop-color="#FF76FA"/>
</linearGradient>
<linearGradient id="paint5_linear_754_30703" x1="8.64817" y1="7.2075" x2="11.0196" y2="10.1711" gradientUnits="userSpaceOnUse">
<stop stop-color="#3DDEF4"/>
<stop offset="0.466667" stop-color="#2ABFFF"/>
<stop offset="1" stop-color="#FF76FA"/>
</linearGradient>
<linearGradient id="paint6_linear_754_30703" x1="67.0131" y1="5.81295" x2="69.384" y2="8.77582" gradientUnits="userSpaceOnUse">
<stop stop-color="#3DDEF4"/>
<stop offset="0.466667" stop-color="#2ABFFF"/>
<stop offset="1" stop-color="#FF76FA"/>
</linearGradient>
<linearGradient id="paint7_linear_754_30703" x1="12.2647" y1="2.32481" x2="63.9916" y2="69.7442" gradientUnits="userSpaceOnUse">
<stop stop-color="#3DDEF4"/>
<stop offset="0.466667" stop-color="#2ABFFF"/>
<stop offset="1" stop-color="#FF76FA"/>
</linearGradient>
<linearGradient id="paint8_linear_754_30703" x1="22.1055" y1="43.8881" x2="26.7816" y2="49.7208" gradientUnits="userSpaceOnUse">
<stop stop-color="#3DDEF4"/>
<stop offset="0.466667" stop-color="#2ABFFF"/>
<stop offset="1" stop-color="#FF76FA"/>
</linearGradient>
<linearGradient id="paint9_linear_754_30703" x1="29.4049" y1="43.8847" x2="34.025" y2="49.6539" gradientUnits="userSpaceOnUse">
<stop stop-color="#3DDEF4"/>
<stop offset="0.466667" stop-color="#2ABFFF"/>
<stop offset="1" stop-color="#FF76FA"/>
</linearGradient>
<linearGradient id="paint10_linear_754_30703" x1="36.6138" y1="43.8167" x2="41.4425" y2="49.6951" gradientUnits="userSpaceOnUse">
<stop stop-color="#3DDEF4"/>
<stop offset="0.466667" stop-color="#2ABFFF"/>
<stop offset="1" stop-color="#FF76FA"/>
</linearGradient>
<linearGradient id="paint11_linear_754_30703" x1="43.8531" y1="43.8167" x2="48.6694" y2="49.7561" gradientUnits="userSpaceOnUse">
<stop stop-color="#3DDEF4"/>
<stop offset="0.466667" stop-color="#2ABFFF"/>
<stop offset="1" stop-color="#FF76FA"/>
</linearGradient>
<linearGradient id="paint12_linear_754_30703" x1="51.3606" y1="43.8903" x2="56.1181" y2="49.7541" gradientUnits="userSpaceOnUse">
<stop stop-color="#3DDEF4"/>
<stop offset="0.466667" stop-color="#2ABFFF"/>
<stop offset="1" stop-color="#FF76FA"/>
</linearGradient>
<linearGradient id="paint13_linear_754_30703" x1="24.4678" y1="39.2842" x2="24.7767" y2="44.1245" gradientUnits="userSpaceOnUse">
<stop stop-color="#3DDEF4"/>
<stop offset="0.466667" stop-color="#2ABFFF"/>
<stop offset="1" stop-color="#FF76FA"/>
</linearGradient>
<linearGradient id="paint14_linear_754_30703" x1="24.5758" y1="51.1059" x2="24.8856" y2="55.9462" gradientUnits="userSpaceOnUse">
<stop stop-color="#3DDEF4"/>
<stop offset="0.466667" stop-color="#2ABFFF"/>
<stop offset="1" stop-color="#FF76FA"/>
</linearGradient>
<linearGradient id="paint15_linear_754_30703" x1="58.8705" y1="9.00288" x2="64.4991" y2="16.0369" gradientUnits="userSpaceOnUse">
<stop stop-color="#3DDEF4"/>
<stop offset="0.466667" stop-color="#2ABFFF"/>
<stop offset="1" stop-color="#FF76FA"/>
</linearGradient>
<linearGradient id="paint16_linear_754_30703" x1="41.4304" y1="1.69724" x2="48.2263" y2="10.3007" gradientUnits="userSpaceOnUse">
<stop stop-color="#3DDEF4"/>
<stop offset="0.466667" stop-color="#2ABFFF"/>
<stop offset="1" stop-color="#FF76FA"/>
</linearGradient>
</defs>
</svg>
