<svg width="70" height="70" viewBox="0 0 70 70" fill="none" xmlns="http://www.w3.org/2000/svg">
<path d="M57.42 16.3597C57.4272 16.0207 57.3115 15.6905 57.0945 15.43C56.8774 15.1696 56.5735 14.9963 56.2387 14.9422L37.2563 11.1387H36.6657L17.5651 14.9422C17.2304 14.9963 16.9264 15.1696 16.7093 15.43C16.4923 15.6905 16.3767 16.0207 16.3839 16.3597C16.3839 30.3574 16.1476 37.0077 17.8131 41.8626C19.585 47.2018 23.2705 50.2848 30.9839 58.2345C31.2745 58.508 31.6493 58.6746 32.047 58.707H41.745C41.9487 58.7181 42.1521 58.6812 42.3388 58.5991C42.5256 58.517 42.6904 58.3921 42.8199 58.2345C44.3555 56.6989 45.6667 55.2696 46.8479 54.0884C58.365 42.3351 57.42 42.8194 57.42 16.3597ZM41.1662 55.624H32.6259C25.3967 48.2767 22.0656 45.4299 20.53 40.9176C18.9944 36.4053 19.2188 29.7667 19.2188 17.5528L36.7838 14.0799L54.5023 17.5291C54.5023 30.5227 54.7385 36.6179 53.3211 40.7759C51.9626 45.1819 48.6434 47.9105 41.1662 55.624Z" fill="url(#paint0_linear_754_30679)"/>
<path d="M45.7968 30.3576H44.2494V28.822C44.2894 27.8159 44.1258 26.812 43.7684 25.8707C43.411 24.9293 42.8671 24.0698 42.1694 23.3438C41.4716 22.6178 40.6345 22.0402 39.708 21.6456C38.7816 21.251 37.785 21.0477 36.7781 21.0477C35.7712 21.0477 34.7746 21.251 33.8482 21.6456C32.9218 22.0402 32.0846 22.6178 31.3869 23.3438C30.6892 24.0698 30.1453 24.9293 29.7879 25.8707C29.4304 26.812 29.2668 27.8159 29.3068 28.822V30.3576H27.7594C27.3529 30.3668 26.9659 30.5331 26.6795 30.8216C26.3931 31.1102 26.2298 31.4985 26.2238 31.905V37.8112C26.1767 39.2113 26.4118 40.6065 26.915 41.9138C27.4183 43.2211 28.1795 44.4138 29.1532 45.4209C30.127 46.4279 31.2934 47.2288 32.583 47.7757C33.8727 48.3226 35.2592 48.6045 36.66 48.6045C38.0608 48.6045 39.4474 48.3226 40.737 47.7757C42.0267 47.2288 43.1931 46.4279 44.1668 45.4209C45.1405 44.4138 45.9017 43.2211 46.405 41.9138C46.9082 40.6065 47.1434 39.2113 47.0962 37.8112V31.905C47.1405 31.7141 47.1397 31.5155 47.094 31.3249C47.0483 31.1344 46.9589 30.957 46.8329 30.8069C46.7068 30.6569 46.5476 30.5381 46.3678 30.4602C46.188 30.3822 45.9925 30.3471 45.7968 30.3576ZM32.5079 28.9401C32.4766 28.3289 32.57 27.7178 32.7824 27.1438C32.9947 26.5698 33.3216 26.045 33.7431 25.6013C34.1646 25.1577 34.672 24.8044 35.2344 24.5629C35.7967 24.3215 36.4024 24.197 37.0144 24.197C37.6264 24.197 38.232 24.3215 38.7944 24.5629C39.3567 24.8044 39.8641 25.1577 40.2856 25.6013C40.7072 26.045 41.034 26.5698 41.2464 27.1438C41.4587 27.7178 41.5521 28.3289 41.5208 28.9401V30.4757H32.6261L32.5079 28.9401ZM44.3203 37.8348C44.3603 38.841 44.1967 39.8448 43.8393 40.7862C43.4818 41.7276 42.938 42.587 42.2402 43.3131C41.5425 44.0391 40.7053 44.6167 39.7789 45.0112C38.8525 45.4058 37.8559 45.6092 36.849 45.6092C35.842 45.6092 34.8455 45.4058 33.9191 45.0112C32.9927 44.6167 32.1555 44.0391 31.4578 43.3131C30.7601 42.587 30.2162 41.7276 29.8588 40.7862C29.5013 39.8448 29.3377 38.841 29.3777 37.8348V33.3225H44.2022V37.8348H44.3203Z" fill="url(#paint1_linear_754_30679)"/>
<path d="M41.4021 36.2884H32.5074C32.1219 36.3221 31.7629 36.4992 31.5015 36.7845C31.2401 37.0699 31.0951 37.4429 31.0951 37.8299C31.0951 38.2169 31.2401 38.5899 31.5015 38.8752C31.7629 39.1606 32.1219 39.3376 32.5074 39.3714H41.4021C41.8086 39.3654 42.197 39.202 42.4855 38.9157C42.7741 38.6293 42.9404 38.2422 42.9495 37.8358C42.922 37.4345 42.7501 37.0567 42.4656 36.7723C42.1812 36.4878 41.8034 36.3159 41.4021 36.2884Z" fill="url(#paint2_linear_754_30679)"/>
<path d="M38.437 40.7988H35.4721C35.0866 40.8325 34.7277 41.0096 34.4662 41.2949C34.2048 41.5803 34.0597 41.9532 34.0597 42.3403C34.0597 42.7273 34.2048 43.1002 34.4662 43.3856C34.7277 43.671 35.0866 43.848 35.4721 43.8818H38.437C38.8455 43.8757 39.2356 43.7107 39.5244 43.4218C39.8133 43.1329 39.9783 42.7429 39.9844 42.3344C39.9541 41.9351 39.781 41.5602 39.4968 41.2782C39.2127 40.9962 38.8364 40.826 38.437 40.7988Z" fill="url(#paint3_linear_754_30679)"/>
<path d="M13.8912 55.9796L10.7964 59.0626L10.0877 58.3539C9.80278 58.0771 9.42043 57.9236 9.02326 57.9266C8.6261 57.9295 8.24601 58.0885 7.96517 58.3694C7.68432 58.6502 7.52525 59.0303 7.52235 59.4274C7.51945 59.8246 7.67296 60.207 7.94967 60.4919L9.73334 62.2637C9.87211 62.407 10.0382 62.5209 10.2219 62.5987C10.4055 62.6764 10.6029 62.7165 10.8023 62.7165C11.0018 62.7165 11.1991 62.6764 11.3828 62.5987C11.5664 62.5209 11.7326 62.407 11.8714 62.2637L16.0174 58.1176C16.2666 57.8291 16.3977 57.4572 16.3844 57.0762C16.371 56.6952 16.2142 56.3334 15.9454 56.0631C15.6765 55.7928 15.3156 55.634 14.9347 55.6185C14.5538 55.603 14.1811 55.732 13.8912 55.9796Z" fill="url(#paint4_linear_754_30679)"/>
<path d="M68.3347 62.1454H48.171C55.9908 54.0894 60.2669 50.5221 62.3458 43.7654C63.9996 38.5443 63.9995 32.6145 63.8814 21.8181V11.0216C63.8886 10.6826 63.7731 10.3524 63.556 10.0919C63.3389 9.83138 63.0349 9.65814 62.7002 9.60408L37.2564 4.50114H36.6658L11.033 9.60408C10.6982 9.65814 10.3943 9.83138 10.1773 10.0919C9.96019 10.3524 9.84456 10.6826 9.85175 11.0216V20.4714C9.85175 32.4492 9.85176 38.4971 11.6354 43.8363C12.0706 45.34 12.7063 46.7783 13.5254 48.1123C12.1446 48.0696 10.7693 48.3048 9.4811 48.8038C8.19292 49.3029 7.01812 50.0557 6.02651 51.0176C5.03489 51.9794 4.24666 53.1308 3.70859 54.4031C3.17053 55.6755 2.8936 57.043 2.89426 58.4245C2.89396 61.0742 3.90326 63.6244 5.71671 65.5562C7.53015 67.4881 10.0115 68.6564 12.6559 68.8234C15.3003 68.9905 17.9089 68.1438 19.9511 66.4555C21.9932 64.7672 23.3154 62.3643 23.6486 59.7357C26.2591 62.4643 26.7316 62.8187 28.3735 64.5906C28.6629 64.8675 29.0377 65.0383 29.4366 65.0749H68.4174C68.8238 65.0657 69.2109 64.8994 69.4973 64.6109C69.7836 64.3223 69.947 63.9339 69.953 63.5275C69.8676 63.1538 69.664 62.8176 69.3725 62.5686C69.0811 62.3197 68.7171 62.1713 68.3347 62.1454ZM13.171 65.949C11.2409 65.8722 9.4154 65.0515 8.07694 63.6587C6.73848 62.266 5.99096 60.4093 5.99096 58.4777C5.99096 56.546 6.73848 54.6894 8.07694 53.2966C9.4154 51.9039 11.2409 51.0831 13.171 51.0064C15.1011 51.0831 16.9266 51.9039 18.2651 53.2966C19.6036 54.6894 20.3511 56.546 20.3511 58.4777C20.3511 60.4093 19.6036 62.266 18.2651 63.6587C16.9266 65.0515 15.1011 65.8722 13.171 65.949ZM28.5271 60.6098C26.6253 58.708 24.3691 56.4519 23.0698 55.0344C22.1416 52.4978 20.2717 50.4164 17.8487 49.2227C12.7458 42.3361 12.8639 36.0519 12.8639 20.4006V12.2146L36.9493 7.48967L61.0229 12.2146V21.8181C61.0229 32.142 61.141 38.0718 59.6054 42.8204C57.5854 48.8683 53.4275 52.2703 45.4305 60.6098L43.8831 62.1454H30.0154L28.5271 60.6098Z" fill="url(#paint5_linear_754_30679)"/>
<path d="M60.9749 66.658H37.2557C37.0419 66.6393 36.8266 66.6652 36.6233 66.7342C36.4201 66.8031 36.2335 66.9136 36.0753 67.0586C35.917 67.2035 35.7907 67.3798 35.7043 67.5763C35.6178 67.7727 35.5732 67.9849 35.5732 68.1995C35.5732 68.4141 35.6178 68.6264 35.7043 68.8228C35.7907 69.0192 35.917 69.1955 36.0753 69.3405C36.2335 69.4854 36.4201 69.5959 36.6233 69.6649C36.8266 69.7338 37.0419 69.7598 37.2557 69.741H60.9749C61.1887 69.7598 61.404 69.7338 61.6072 69.6649C61.8104 69.5959 61.9971 69.4854 62.1553 69.3405C62.3135 69.1955 62.4399 69.0192 62.5263 68.8228C62.6127 68.6264 62.6574 68.4141 62.6574 68.1995C62.6574 67.9849 62.6127 67.7727 62.5263 67.5763C62.4399 67.3798 62.3135 67.2035 62.1553 67.0586C61.9971 66.9136 61.8104 66.8031 61.6072 66.7342C61.404 66.6652 61.1887 66.6393 60.9749 66.658Z" fill="url(#paint6_linear_754_30679)"/>
<path d="M60.9755 53.2495C60.9732 54.1425 61.2358 55.0161 61.7302 55.7597C62.2246 56.5032 62.9285 57.0834 63.7528 57.4268C64.5771 57.7701 65.4848 57.8612 66.3609 57.6884C67.2369 57.5156 68.0421 57.0868 68.6743 56.4562C69.3065 55.8256 69.7374 55.0216 69.9125 54.146C70.0876 53.2704 69.999 52.3625 69.6578 51.5373C69.3166 50.7121 68.7382 50.0067 67.9959 49.5103C67.2536 49.014 66.3807 48.749 65.4878 48.749C64.2987 48.7672 63.1633 49.2469 62.3213 50.0866C61.4794 50.9264 60.9968 52.0606 60.9755 53.2495ZM66.8817 53.2495C66.884 53.5566 66.7949 53.8574 66.6258 54.1136C66.4567 54.3699 66.2151 54.5701 65.9319 54.6887C65.6486 54.8072 65.3366 54.8389 65.0353 54.7796C64.734 54.7202 64.4572 54.5726 64.2401 54.3555C64.0229 54.1384 63.8754 53.8616 63.8161 53.5603C63.7567 53.259 63.7883 52.9469 63.9069 52.6637C64.0255 52.3805 64.2257 52.1389 64.4819 51.9698C64.7382 51.8007 65.039 51.7116 65.346 51.7139C65.7546 51.7169 66.1459 51.8789 66.437 52.1656C66.7281 52.4523 66.8961 52.8411 66.9053 53.2495H66.8817Z" fill="url(#paint7_linear_754_30679)"/>
<path d="M9.02462 29.5305C9.02462 28.6381 8.75996 27.7656 8.26414 27.0236C7.76832 26.2816 7.0636 25.7032 6.23908 25.3617C5.41456 25.0201 4.50729 24.9308 3.63199 25.1049C2.75668 25.279 1.9527 25.7088 1.32164 26.3398C0.690585 26.9709 0.260805 27.7749 0.0866966 28.6502C-0.0874121 29.5255 0.001979 30.4328 0.343506 31.2573C0.685032 32.0818 1.26336 32.7865 2.00541 33.2824C2.74746 33.7782 3.61984 34.0428 4.51229 34.0428C5.70903 34.0428 6.85679 33.5674 7.70301 32.7212C8.54923 31.875 9.02462 30.7273 9.02462 29.5305ZM3.11844 29.5305C3.11611 29.2235 3.20518 28.9227 3.37431 28.6664C3.54344 28.4101 3.78501 28.21 4.06825 28.0914C4.35148 27.9728 4.66358 27.9412 4.96484 28.0005C5.26611 28.0598 5.54288 28.2074 5.76 28.4246C5.97712 28.6417 6.12474 28.9185 6.18407 29.2197C6.2434 29.521 6.21181 29.8331 6.09323 30.1163C5.97465 30.3996 5.77446 30.6411 5.51819 30.8103C5.26191 30.9794 4.96108 31.0684 4.65403 31.0661C4.24548 31.0631 3.85416 30.9011 3.56306 30.6145C3.27197 30.3278 3.10407 29.939 3.09487 29.5305H3.11844Z" fill="url(#paint8_linear_754_30679)"/>
<path d="M61.6845 7.34729C62.4111 7.34729 63.1214 7.13183 63.7255 6.72817C64.3296 6.3245 64.8004 5.75075 65.0784 5.07948C65.3565 4.40821 65.4293 3.66957 65.2875 2.95695C65.1458 2.24433 64.7959 1.58976 64.2821 1.07599C63.7684 0.562221 63.1138 0.212337 62.4012 0.070589C61.6886 -0.0711593 60.9499 0.00159365 60.2787 0.279643C59.6074 0.557692 59.0336 1.02855 58.63 1.63268C58.2263 2.2368 58.0109 2.94707 58.0109 3.67365C58.0171 4.64605 58.4061 5.57685 59.0937 6.26446C59.7813 6.95206 60.7121 7.3411 61.6845 7.34729ZM61.6845 2.84678C61.8725 2.84678 62.0527 2.92145 62.1856 3.05436C62.3185 3.18728 62.3932 3.36755 62.3932 3.55552C62.3932 3.74349 62.3185 3.92377 62.1856 4.05668C62.0527 4.18959 61.8725 4.26427 61.6845 4.26427C61.4965 4.26427 61.3163 4.18959 61.1833 4.05668C61.0504 3.92377 60.9758 3.74349 60.9758 3.55552C60.9758 3.36755 61.0504 3.18728 61.1833 3.05436C61.3163 2.92145 61.4965 2.84678 61.6845 2.84678Z" fill="url(#paint9_linear_754_30679)"/>
<path d="M66.905 23.6017C67.212 23.5993 67.5129 23.6884 67.7691 23.8575C68.0254 24.0267 68.2255 24.2682 68.3441 24.5514C68.4627 24.8347 68.4944 25.1468 68.435 25.448C68.3757 25.7493 68.2281 26.0261 68.011 26.2432C67.7938 26.4604 67.5171 26.608 67.2158 26.6673C66.9145 26.7266 66.6024 26.695 66.3192 26.5764C66.036 26.4578 65.7944 26.2577 65.6253 26.0014C65.4561 25.7451 65.3671 25.4443 65.3694 25.1373C65.3725 24.731 65.5353 24.3422 65.8226 24.0549C66.1099 23.7675 66.4987 23.6048 66.905 23.6017Z" fill="url(#paint10_linear_754_30679)"/>
<path d="M34.2909 50.2856C34.597 50.2856 34.8961 50.3763 35.1506 50.5463C35.4051 50.7164 35.6034 50.958 35.7205 51.2408C35.8376 51.5236 35.8683 51.8347 35.8086 52.1349C35.7489 52.435 35.6015 52.7107 35.3851 52.9272C35.1687 53.1436 34.893 53.2909 34.5928 53.3507C34.2926 53.4104 33.9815 53.3797 33.6987 53.2626C33.416 53.1455 33.1743 52.9471 33.0043 52.6927C32.8342 52.4382 32.7435 52.139 32.7435 51.833C32.7435 51.4226 32.9065 51.029 33.1967 50.7388C33.4869 50.4486 33.8805 50.2856 34.2909 50.2856Z" fill="url(#paint11_linear_754_30679)"/>
<path d="M40.2209 50.2856C40.5249 50.2857 40.8221 50.3754 41.0755 50.5434C41.3288 50.7115 41.5271 50.9504 41.6455 51.2304C41.7638 51.5104 41.7971 51.8191 41.7411 52.1179C41.6852 52.4167 41.5424 52.6924 41.3307 52.9106C41.119 53.1288 40.8477 53.2797 40.5507 53.3447C40.2537 53.4096 39.9441 53.3856 39.6607 53.2757C39.3773 53.1658 39.1325 52.9748 38.9569 52.7267C38.7813 52.4785 38.6828 52.1841 38.6735 51.8802C38.6672 51.6731 38.7024 51.4668 38.7774 51.2735C38.8523 51.0803 38.9653 50.9041 39.1096 50.7554C39.2539 50.6066 39.4267 50.4884 39.6176 50.4077C39.8085 50.327 40.0136 50.2855 40.2209 50.2856Z" fill="url(#paint12_linear_754_30679)"/>
<path d="M16.4902 1.29895C16.7968 1.29661 17.0971 1.38537 17.3531 1.55397C17.6092 1.72258 17.8093 1.96343 17.9283 2.24597C18.0472 2.52851 18.0795 2.84 18.0211 3.14094C17.9627 3.44189 17.8164 3.71871 17.6004 3.93631C17.3845 4.1539 17.1088 4.30246 16.8083 4.36313C16.5078 4.4238 16.1961 4.39386 15.9126 4.27709C15.6292 4.16033 15.3868 3.962 15.2163 3.70728C15.0457 3.45256 14.9546 3.15292 14.9546 2.84636C14.9546 2.438 15.116 2.04619 15.4036 1.75633C15.6913 1.46647 16.0819 1.30207 16.4902 1.29895Z" fill="url(#paint13_linear_754_30679)"/>
<path d="M6.06017 8.7775C6.44571 8.81128 6.80462 8.9883 7.06606 9.27366C7.32751 9.55902 7.47255 9.93199 7.47255 10.319C7.47255 10.706 7.32751 11.079 7.06606 11.3644C6.80462 11.6497 6.44571 11.8267 6.06017 11.8605C5.84639 11.8793 5.63109 11.8533 5.42788 11.7844C5.22467 11.7154 5.03802 11.6049 4.8798 11.46C4.72157 11.315 4.59522 11.1387 4.50879 10.9423C4.42235 10.7459 4.37772 10.5336 4.37772 10.319C4.37772 10.1044 4.42235 9.89216 4.50879 9.69574C4.59522 9.49932 4.72157 9.32303 4.8798 9.17806C5.03802 9.03309 5.22467 8.92262 5.42788 8.85366C5.63109 8.7847 5.84639 8.75877 6.06017 8.7775Z" fill="url(#paint14_linear_754_30679)"/>
<path d="M6.06011 38.4247C6.36616 38.4247 6.66539 38.5155 6.91987 38.6855C7.17434 38.8556 7.37267 39.0972 7.48979 39.38C7.60691 39.6627 7.63753 39.9739 7.57782 40.274C7.51811 40.5742 7.37073 40.8499 7.15432 41.0664C6.93791 41.2828 6.66222 41.4301 6.36205 41.4898C6.06188 41.5496 5.75073 41.5189 5.46798 41.4018C5.18523 41.2847 4.9435 41.0863 4.77347 40.8319C4.60344 40.5774 4.5127 40.2782 4.5127 39.9722C4.5127 39.5618 4.67577 39.1682 4.96597 38.878C5.25617 38.5878 5.64971 38.4247 6.06011 38.4247Z" fill="url(#paint15_linear_754_30679)"/>
<path d="M24.9121 65.2401C24.5346 65.367 24.2229 65.6387 24.0457 65.9953C23.8685 66.352 23.8402 66.7644 23.9671 67.1419C24.094 67.5194 24.3656 67.8311 24.7223 68.0083C25.0789 68.1855 25.4914 68.2138 25.8689 68.0869C26.0587 68.0284 26.2347 67.932 26.3861 67.8034C26.5375 67.6748 26.6612 67.5167 26.7495 67.3388C26.8379 67.1609 26.8892 66.9669 26.9003 66.7686C26.9114 66.5702 26.8819 66.3717 26.8139 66.1851C26.6772 65.8147 26.4042 65.5106 26.0506 65.3349C25.6971 65.1592 25.2898 65.1253 24.9121 65.2401Z" fill="url(#paint16_linear_754_30679)"/>
<defs>
<linearGradient id="paint0_linear_754_30679" x1="21.0656" y1="14.8899" x2="51.562" y2="41.9959" gradientUnits="userSpaceOnUse">
<stop stop-color="#37C4F7"/>
<stop offset="0.526042" stop-color="#46C6F5"/>
<stop offset="1" stop-color="#EA78F8"/>
</linearGradient>
<linearGradient id="paint1_linear_754_30679" x1="28.6077" y1="23.2207" x2="45.8682" y2="36.7062" gradientUnits="userSpaceOnUse">
<stop stop-color="#37C4F7"/>
<stop offset="0.526042" stop-color="#46C6F5"/>
<stop offset="1" stop-color="#EA78F8"/>
</linearGradient>
<linearGradient id="paint2_linear_754_30679" x1="32.4499" y1="36.5315" x2="33.395" y2="40.2731" gradientUnits="userSpaceOnUse">
<stop stop-color="#37C4F7"/>
<stop offset="0.526042" stop-color="#46C6F5"/>
<stop offset="1" stop-color="#EA78F8"/>
</linearGradient>
<linearGradient id="paint3_linear_754_30679" x1="34.7368" y1="41.0419" x2="36.3392" y2="44.2124" gradientUnits="userSpaceOnUse">
<stop stop-color="#37C4F7"/>
<stop offset="0.526042" stop-color="#46C6F5"/>
<stop offset="1" stop-color="#EA78F8"/>
</linearGradient>
<linearGradient id="paint4_linear_754_30679" x1="8.53522" y1="56.1771" x2="12.9773" y2="61.8869" gradientUnits="userSpaceOnUse">
<stop stop-color="#37C4F7"/>
<stop offset="0.526042" stop-color="#46C6F5"/>
<stop offset="1" stop-color="#EA78F8"/>
</linearGradient>
<linearGradient id="paint5_linear_754_30679" x1="10.5581" y1="9.57501" x2="51.9909" y2="54.0345" gradientUnits="userSpaceOnUse">
<stop stop-color="#37C4F7"/>
<stop offset="0.526042" stop-color="#46C6F5"/>
<stop offset="1" stop-color="#EA78F8"/>
</linearGradient>
<linearGradient id="paint6_linear_754_30679" x1="38.6685" y1="66.8961" x2="39.1066" y2="70.8432" gradientUnits="userSpaceOnUse">
<stop stop-color="#37C4F7"/>
<stop offset="0.526042" stop-color="#46C6F5"/>
<stop offset="1" stop-color="#EA78F8"/>
</linearGradient>
<linearGradient id="paint7_linear_754_30679" x1="62.0069" y1="49.4607" x2="67.8301" y2="55.4562" gradientUnits="userSpaceOnUse">
<stop stop-color="#37C4F7"/>
<stop offset="0.526042" stop-color="#46C6F5"/>
<stop offset="1" stop-color="#EA78F8"/>
</linearGradient>
<linearGradient id="paint8_linear_754_30679" x1="1.03138" y1="25.7298" x2="6.85464" y2="31.7254" gradientUnits="userSpaceOnUse">
<stop stop-color="#37C4F7"/>
<stop offset="0.526042" stop-color="#46C6F5"/>
<stop offset="1" stop-color="#EA78F8"/>
</linearGradient>
<linearGradient id="paint9_linear_754_30679" x1="58.8505" y1="0.579382" x2="63.5915" y2="5.4606" gradientUnits="userSpaceOnUse">
<stop stop-color="#37C4F7"/>
<stop offset="0.526042" stop-color="#46C6F5"/>
<stop offset="1" stop-color="#EA78F8"/>
</linearGradient>
<linearGradient id="paint10_linear_754_30679" x1="65.723" y1="23.8457" x2="67.72" y2="25.9018" gradientUnits="userSpaceOnUse">
<stop stop-color="#37C4F7"/>
<stop offset="0.526042" stop-color="#46C6F5"/>
<stop offset="1" stop-color="#EA78F8"/>
</linearGradient>
<linearGradient id="paint11_linear_754_30679" x1="33.0972" y1="50.5296" x2="35.0942" y2="52.5857" gradientUnits="userSpaceOnUse">
<stop stop-color="#37C4F7"/>
<stop offset="0.526042" stop-color="#46C6F5"/>
<stop offset="1" stop-color="#EA78F8"/>
</linearGradient>
<linearGradient id="paint12_linear_754_30679" x1="39.0265" y1="50.5296" x2="41.0234" y2="52.5857" gradientUnits="userSpaceOnUse">
<stop stop-color="#37C4F7"/>
<stop offset="0.526042" stop-color="#46C6F5"/>
<stop offset="1" stop-color="#EA78F8"/>
</linearGradient>
<linearGradient id="paint13_linear_754_30679" x1="15.3083" y1="1.54295" x2="17.3053" y2="3.59902" gradientUnits="userSpaceOnUse">
<stop stop-color="#37C4F7"/>
<stop offset="0.526042" stop-color="#46C6F5"/>
<stop offset="1" stop-color="#EA78F8"/>
</linearGradient>
<linearGradient id="paint14_linear_754_30679" x1="4.73141" y1="9.01564" x2="6.72839" y2="11.0717" gradientUnits="userSpaceOnUse">
<stop stop-color="#37C4F7"/>
<stop offset="0.526042" stop-color="#46C6F5"/>
<stop offset="1" stop-color="#EA78F8"/>
</linearGradient>
<linearGradient id="paint15_linear_754_30679" x1="4.86639" y1="38.6688" x2="6.86337" y2="40.7249" gradientUnits="userSpaceOnUse">
<stop stop-color="#37C4F7"/>
<stop offset="0.526042" stop-color="#46C6F5"/>
<stop offset="1" stop-color="#EA78F8"/>
</linearGradient>
<linearGradient id="paint16_linear_754_30679" x1="24.2333" y1="65.4092" x2="26.1634" y2="67.4109" gradientUnits="userSpaceOnUse">
<stop stop-color="#37C4F7"/>
<stop offset="0.526042" stop-color="#46C6F5"/>
<stop offset="1" stop-color="#EA78F8"/>
</linearGradient>
</defs>
</svg>
