<svg width="78" height="81" viewBox="0 0 78 81" fill="none" xmlns="http://www.w3.org/2000/svg">
<g filter="url(#filter0_dddddddd_754_30605)">
<path d="M27.2939 27.2115C27.0386 27.714 26.9101 28.2713 26.9193 28.8349C26.8814 29.4704 27.0427 30.1019 27.3807 30.6414C27.7188 31.1808 28.2167 31.6014 28.805 31.8446C29.5711 32.2128 30.3696 32.5096 31.1902 32.7312V35.104C30.7641 35.0813 30.3435 34.9971 29.9414 34.8542C29.2841 34.6391 28.6552 34.3456 28.0682 33.98C27.9293 33.9131 27.7993 33.8292 27.6811 33.7303L26.4323 36.3653C27.8447 37.216 29.4346 37.7288 31.0779 37.8638V39.9993H32.3267V37.8638C32.8804 37.8504 33.4301 37.7665 33.9626 37.6141C34.4792 37.4915 34.9535 37.2328 35.3363 36.8648C35.7326 36.5516 36.0708 36.1712 36.3353 35.7409C36.6015 35.1931 36.7301 34.5887 36.71 33.98C36.7093 33.4702 36.6249 32.964 36.4602 32.4815C36.2769 32.0593 36.0028 31.6826 35.6575 31.3783C35.3121 31.074 34.904 30.8494 34.4621 30.7206C33.7224 30.4311 32.9679 30.181 32.2018 29.9714V27.4737C32.5469 27.4975 32.8852 27.582 33.2009 27.7235C33.7779 27.8972 34.3284 28.1493 34.8368 28.4728C34.9617 28.5977 35.0865 28.5977 35.2114 28.7225L36.4602 26.2249C35.9607 25.9752 35.3363 25.6005 34.7119 25.3508C33.9977 25.0399 33.2302 24.8702 32.4515 24.8512V23.003H31.2027V24.8887C30.398 24.8655 29.6033 25.0715 28.9112 25.4828C28.2191 25.894 27.6582 26.4936 27.2939 27.2115ZM32.0644 32.9935C32.4309 33.0824 32.7724 33.2532 33.0634 33.493C33.1934 33.5664 33.2985 33.6769 33.3653 33.8104C33.432 33.9439 33.4574 34.0943 33.4381 34.2423C33.4381 34.8667 32.9386 35.1165 32.0644 35.2413V32.9935ZM31.3151 27.3489V29.6092C30.9422 29.5209 30.5955 29.3455 30.3036 29.0972C30.1842 29.0128 30.0876 28.9003 30.0222 28.7696C29.9568 28.6389 29.9248 28.494 29.929 28.3479C30.0539 27.8359 30.4285 27.4612 31.3151 27.3364V27.3489Z" fill="url(#paint0_linear_754_30605)"/>
<path d="M72.0644 39.376C71.5077 38.81 70.8439 38.3604 70.1117 38.0536C69.3795 37.7467 68.5935 37.5887 67.7996 37.5887C67.0058 37.5887 66.2198 37.7467 65.4876 38.0536C64.7554 38.3604 64.0917 38.81 63.535 39.376L51.2466 50.7901C50.7944 49.9248 50.1343 49.1853 49.3256 48.6382C48.517 48.0911 47.5851 47.7534 46.6136 47.6556L17.6412 44.5211C17.4082 44.4971 17.1728 44.5301 16.9553 44.6171C16.7378 44.7041 16.5446 44.8425 16.3924 45.0206L4.47875 56.9342C4.32731 57.0809 4.20685 57.2566 4.12462 57.4507C4.04239 57.6449 4 57.8536 4 58.0644C4 58.2752 4.04239 58.4839 4.12462 58.6781C4.20685 58.8722 4.32731 59.0479 4.47875 59.1946L16.9669 71.6827C17.2666 71.9824 17.6731 72.1508 18.097 72.1508C18.5209 72.1508 18.9274 71.9824 19.2272 71.6827L22.7364 68.1735L50.0728 69.1726C50.2862 69.1834 50.4992 69.1438 50.6944 69.057C50.8897 68.9702 51.0617 68.8387 51.1967 68.673L72.0144 47.8554C72.5761 47.3029 73.0231 46.6448 73.3298 45.919C73.6365 45.1932 73.7967 44.414 73.8014 43.626C73.806 42.8381 73.655 42.0571 73.3569 41.3277C73.0588 40.5983 72.6196 39.9351 72.0644 39.376ZM69.9414 45.7699L49.4984 66.088L22.7863 65.0765L16.2675 58.5577C16.1199 58.4057 15.9435 58.2846 15.7487 58.2013C15.5538 58.1181 15.3444 58.0744 15.1325 58.0729C14.9206 58.0714 14.7106 58.1119 14.5145 58.1923C14.3185 58.2727 14.1403 58.3912 13.9905 58.541C13.8407 58.6909 13.7221 58.869 13.6418 59.065C13.5614 59.2611 13.5208 59.4711 13.5223 59.683C13.5239 59.8949 13.5675 60.1043 13.6508 60.2992C13.734 60.4941 13.8552 60.6704 14.0072 60.818L19.9015 66.7124L18.1407 68.4732L7.86297 58.0582L18.1407 47.7804C47.4878 51.0398 46.3638 50.915 46.4887 50.915C47.0864 50.9515 47.6524 51.1965 48.0882 51.6072C48.524 52.0179 48.802 52.5683 48.874 53.1628C48.8976 53.5269 48.8475 53.892 48.7266 54.2362C48.6058 54.5805 48.4166 54.8968 48.1706 55.1662C47.9245 55.4356 47.6266 55.6525 47.2946 55.8039C46.9627 55.9554 46.6037 56.0383 46.239 56.0476L30.3041 55.2983C29.9088 55.3141 29.534 55.4782 29.2543 55.758C28.9745 56.0377 28.8104 56.4126 28.7947 56.8079C28.7789 57.2032 28.9127 57.5899 29.1693 57.8911C29.4259 58.1922 29.7864 58.3856 30.1792 58.4328L46.1141 59.1946C47.4411 59.2666 48.7505 58.8637 49.8077 58.0583C50.8648 57.2528 51.6007 56.0974 51.8836 54.7988C66.5446 41.1243 65.7953 41.7362 65.7953 41.7362C66.3471 41.1902 67.092 40.8839 67.8683 40.8839C68.6446 40.8839 69.3896 41.1902 69.9414 41.7362C70.213 41.9972 70.429 42.3104 70.5766 42.657C70.7242 43.0035 70.8003 43.3763 70.8003 43.753C70.8003 44.1297 70.7242 44.5025 70.5766 44.8491C70.429 45.1956 70.213 45.5088 69.9414 45.7699Z" fill="url(#paint1_linear_754_30605)"/>
<path d="M58.2775 20.6938C57.6148 20.477 56.9814 20.1792 56.3917 19.8071C56.2554 19.7426 56.1292 19.6584 56.0171 19.5573L54.7683 22.1923C56.1748 23.0481 57.7609 23.5654 59.4014 23.7034V25.8264H60.6502V23.7034C61.2041 23.6919 61.7541 23.608 62.2862 23.4536C62.8037 23.3264 63.2778 23.0634 63.6598 22.6919C64.0631 22.3824 64.4059 22.0014 64.6714 21.5679C64.9414 21.0215 65.0703 20.4161 65.0461 19.8071C65.0454 19.2973 64.961 18.791 64.7963 18.3085C64.6102 17.8859 64.3337 17.5093 63.9864 17.2051C63.639 16.9008 63.2292 16.6765 62.7857 16.5477C62.0468 16.2562 61.2922 16.006 60.5254 15.7984V13.3008C60.8748 13.3231 61.2173 13.4076 61.5369 13.5506C62.1208 13.6949 62.6717 13.9492 63.1604 14.2999C63.2852 14.4372 63.4101 14.4372 63.535 14.5621L64.7838 12.0645C64.2843 11.8147 63.6474 11.4401 63.023 11.1778C62.3093 10.8657 61.5414 10.696 60.7626 10.6783V8.80508H59.5138V10.6783C58.7106 10.6699 57.9236 10.9037 57.2553 11.3492C56.587 11.7948 56.0685 12.4313 55.7673 13.1759C55.5106 13.6824 55.3819 14.2441 55.3927 14.8119C55.3576 15.4453 55.5186 16.0741 55.8538 16.6127C56.189 17.1512 56.6821 17.5733 57.2659 17.8215C58.0357 18.1777 58.8335 18.47 59.6512 18.6957V21.0809C59.1848 20.9843 58.7257 20.855 58.2775 20.6938ZM60.2756 18.8081C60.6457 18.8973 60.9913 19.0679 61.2871 19.3076C61.4171 19.381 61.5222 19.4915 61.589 19.625C61.6557 19.7585 61.6811 19.9089 61.6618 20.0569C61.6618 20.6938 61.1623 20.9435 60.2756 21.0684V18.8081ZM58.5272 15.0616C58.3963 14.9862 58.2907 14.8734 58.224 14.7378C58.1572 14.6021 58.1324 14.4497 58.1526 14.2999C58.1526 13.6754 58.5273 13.3008 59.4014 13.3008V15.5112C59.0966 15.3841 58.804 15.2294 58.5272 15.0491V15.0616Z" fill="url(#paint2_linear_754_30605)"/>
<path d="M59.7758 29.8471C62.2457 29.8471 64.6602 29.1146 66.7138 27.7424C68.7675 26.3702 70.3681 24.4199 71.3133 22.1379C72.2585 19.856 72.5058 17.3451 72.0239 14.9227C71.5421 12.5002 70.3527 10.275 68.6062 8.52854C66.8597 6.78205 64.6346 5.59267 62.2121 5.11081C59.7896 4.62896 57.2787 4.87626 54.9968 5.82145C52.7149 6.76665 50.7645 8.36729 49.3923 10.4209C48.0201 12.4746 47.2877 14.8891 47.2877 17.359C47.3106 20.6639 48.6336 23.8271 50.9707 26.1641C53.3077 28.5011 56.4708 29.8242 59.7758 29.8471ZM59.7758 7.89298C61.6386 7.89051 63.4603 8.44065 65.0104 9.47379C66.5605 10.5069 67.7694 11.9766 68.484 13.697C69.1986 15.4173 69.3868 17.311 69.0249 19.1383C68.663 20.9657 67.7672 22.6446 66.4509 23.9627C65.1345 25.2808 63.4567 26.1789 61.6299 26.5432C59.803 26.9075 57.9091 26.7218 56.1878 26.0095C54.4665 25.2972 52.9952 24.0903 51.96 22.5416C50.9248 20.9928 50.3723 19.1719 50.3723 17.309C50.3886 14.8189 51.3841 12.4353 53.1437 10.6733C54.9034 8.91135 57.2857 7.91261 59.7758 7.89298Z" fill="url(#paint3_linear_754_30605)"/>
<path d="M14.3812 17.4343C14.2382 17.2669 14.0622 17.1309 13.8643 17.0347C13.6663 16.9385 13.4506 16.8843 13.2306 16.8753C13.0107 16.8664 12.7913 16.903 12.5862 16.9828C12.3811 17.0626 12.1947 17.1839 12.0386 17.3391C11.8825 17.4943 11.7602 17.68 11.6792 17.8847C11.5983 18.0894 11.5605 18.3086 11.5682 18.5286C11.576 18.7485 11.629 18.9645 11.7241 19.163C11.8192 19.3615 11.9543 19.5383 12.1209 19.6821L15.5301 23.0664C15.6768 23.2179 15.8524 23.3383 16.0466 23.4205C16.2407 23.5027 16.4494 23.5451 16.6603 23.5451C16.8711 23.5451 17.0798 23.5027 17.2739 23.4205C17.4681 23.3383 17.6437 23.2179 17.7904 23.0664L24.6839 16.173C24.9473 15.868 25.0858 15.4748 25.0717 15.072C25.0576 14.6692 24.8918 14.2867 24.6076 14.0009C24.3234 13.7152 23.9418 13.5473 23.5391 13.5309C23.1364 13.5146 22.7425 13.6509 22.436 13.9126L16.6665 19.6821L14.3812 17.4343Z" fill="url(#paint4_linear_754_30605)"/>
<path d="M12.7457 12.5377H15.8927C16.3003 12.502 16.6797 12.3148 16.9561 12.0131C17.2325 11.7114 17.3859 11.3171 17.3859 10.908C17.3859 10.4988 17.2325 10.1045 16.9561 9.80282C16.6797 9.50114 16.3003 9.31399 15.8927 9.27827H12.7457C12.3381 9.31399 11.9587 9.50114 11.6823 9.80282C11.4059 10.1045 11.2526 10.4988 11.2526 10.908C11.2526 11.3171 11.4059 11.7114 11.6823 12.0131C11.9587 12.3148 12.3381 12.502 12.7457 12.5377Z" fill="url(#paint5_linear_754_30605)"/>
<path d="M20.5263 9.40271C20.8509 9.40024 21.1688 9.49441 21.4398 9.67321C21.7107 9.85202 21.9223 10.1074 22.0477 10.4068C22.1731 10.7062 22.2066 11.0362 22.1438 11.3547C22.0811 11.6732 21.925 11.9659 21.6955 12.1954C21.466 12.4249 21.1733 12.581 20.8548 12.6437C20.5363 12.7064 20.2063 12.673 19.9069 12.5476C19.6074 12.4223 19.3521 12.2106 19.1733 11.9397C18.9945 11.6688 18.9003 11.3508 18.9028 11.0262C18.9061 10.5966 19.0782 10.1856 19.3819 9.88182C19.6857 9.57807 20.0967 9.40598 20.5263 9.40271Z" fill="url(#paint6_linear_754_30605)"/>
<path d="M13.7575 30.9697C14.0647 31.2588 14.461 31.435 14.8814 31.4693H19.0275C19.0399 34.0151 19.83 36.4963 21.2921 38.5804C22.7542 40.6645 24.8183 42.252 27.2079 43.1302C29.5974 44.0083 32.1983 44.1352 34.662 43.4937C37.1257 42.8523 39.3345 41.4732 40.9924 39.5412C42.6503 37.6092 43.6782 35.2167 43.9382 32.6842C44.1983 30.1516 43.6781 27.6001 42.4474 25.3715C41.2167 23.143 39.3343 21.3437 37.0524 20.215C34.7705 19.0862 32.1981 18.6819 29.6799 19.0561C29.9951 15.0097 30.0785 10.9486 29.9297 6.89266C29.9372 6.53425 29.815 6.18519 29.5855 5.90979C29.356 5.6344 29.0347 5.45124 28.6808 5.39409L17.8911 3.25862H17.2667L6.47695 5.39409C6.12305 5.45124 5.80177 5.6344 5.57228 5.90979C5.34278 6.18519 5.22054 6.53425 5.22814 6.89266C5.22814 14.5479 5.10327 18.5565 6.10232 21.5662C7.10137 24.5758 9.4866 26.4615 13.7575 30.9697ZM40.9691 31.4693C40.9495 33.9572 39.9525 36.3376 38.1932 38.0969C36.4339 39.8562 34.0535 40.8532 31.5656 40.8728C30.2351 40.8828 28.918 40.607 27.7034 40.064C26.4887 39.521 25.4049 38.7234 24.5252 37.7253C23.6454 36.7272 22.9903 35.5517 22.6042 34.2785C22.218 33.0053 22.1098 31.664 22.2869 30.3453C25.796 26.7113 27.8066 24.9505 28.9305 22.5652C29.8279 22.3091 30.7573 22.183 31.6904 22.1906C32.9155 22.1668 34.1326 22.3906 35.2691 22.8485C36.4056 23.3064 37.438 23.9889 38.3044 24.8553C39.1708 25.7217 39.8533 26.7541 40.3112 27.8905C40.7691 29.027 40.9929 30.2442 40.9691 31.4693ZM8.50002 9.15301V8.14147L17.6538 6.39313L26.7701 8.14147C26.7701 14.7976 26.895 18.3068 26.1457 20.4423C25.3964 22.5777 23.7605 24.0763 19.627 28.3347H15.5308C11.647 24.3261 9.88621 22.815 9.13692 20.5671C8.38764 18.3193 8.48752 15.2972 8.48752 9.15301H8.50002Z" fill="url(#paint7_linear_754_30605)"/>
<path d="M39.3326 12.5369C40.5675 12.5369 41.7747 12.1707 42.8015 11.4846C43.8284 10.7985 44.6287 9.82329 45.1013 8.68234C45.5739 7.54138 45.6976 6.28591 45.4566 5.07468C45.2157 3.86346 44.621 2.75087 43.7478 1.87763C42.8745 1.00438 41.762 0.40969 40.5507 0.168762C39.3395 -0.0721659 38.084 0.0514895 36.9431 0.524087C35.8021 0.996685 34.8269 1.797 34.1408 2.82383C33.4547 3.85066 33.0885 5.05789 33.0885 6.29284C33.0885 7.94887 33.7464 9.53706 34.9174 10.7081C36.0883 11.879 37.6765 12.5369 39.3326 12.5369ZM39.3326 3.13334C39.9525 3.13334 40.5585 3.31718 41.074 3.66161C41.5895 4.00603 41.9913 4.49558 42.2285 5.06834C42.4658 5.6411 42.5278 6.27134 42.4069 6.87938C42.2859 7.48741 41.9874 8.04593 41.549 8.4843C41.1106 8.92267 40.5521 9.2212 39.9441 9.34215C39.336 9.46309 38.7058 9.40102 38.1331 9.16378C37.5603 8.92653 37.0707 8.52478 36.7263 8.00931C36.3819 7.49384 36.198 6.88781 36.198 6.26786C36.2318 5.44736 36.5729 4.66957 37.1536 4.08889C37.7343 3.50822 38.5121 3.16713 39.3326 3.13334Z" fill="url(#paint8_linear_754_30605)"/>
<path d="M51.8837 44.0076C52.8277 44.0076 53.7506 43.7275 54.5354 43.2028C55.3201 42.678 55.9315 41.9322 56.2922 41.0598C56.6529 40.1874 56.7466 39.2276 56.5616 38.3019C56.3765 37.3762 55.9209 36.5262 55.2525 35.8595C54.5841 35.1928 53.7329 34.7395 52.8067 34.5568C51.8805 34.3742 50.921 34.4704 50.0495 34.8334C49.178 35.1964 48.4338 35.8098 47.9111 36.5959C47.3884 37.3821 47.1108 38.3056 47.1132 39.2496C47.1358 40.5066 47.646 41.7057 48.5361 42.5935C49.4263 43.4813 50.6266 43.9884 51.8837 44.0076ZM51.8837 37.7636C52.2073 37.7636 52.5235 37.8595 52.7926 38.0393C53.0616 38.219 53.2714 38.4745 53.3952 38.7735C53.519 39.0724 53.5514 39.4013 53.4882 39.7187C53.4251 40.036 53.2693 40.3275 53.0405 40.5563C52.8117 40.7851 52.5202 40.9409 52.2028 41.004C51.8855 41.0671 51.5566 41.0347 51.2577 40.9109C50.9588 40.7871 50.7032 40.5774 50.5235 40.3084C50.3437 40.0393 50.2478 39.7231 50.2478 39.3995C50.2711 38.9708 50.4502 38.5654 50.7515 38.2595C51.0528 37.9537 51.4554 37.7684 51.8837 37.7386V37.7636Z" fill="url(#paint9_linear_754_30605)"/>
<path d="M69.2292 58.0575C68.2857 58.0575 67.3635 58.3373 66.579 58.8615C65.7945 59.3856 65.183 60.1307 64.8219 61.0024C64.4608 61.8741 64.3664 62.8332 64.5505 63.7586C64.7345 64.684 65.1888 65.534 65.856 66.2012C66.5232 66.8683 67.3732 67.3227 68.2986 67.5067C69.224 67.6908 70.1831 67.5963 71.0548 67.2353C71.9265 66.8742 72.6715 66.2628 73.1957 65.4783C73.7199 64.6938 73.9997 63.7715 73.9997 62.828C73.9773 61.5698 73.4675 60.3694 72.5777 59.4796C71.6878 58.5897 70.4874 58.0799 69.2292 58.0575ZM69.2292 64.3015C68.9052 64.3015 68.5884 64.2053 68.3191 64.025C68.0498 63.8446 67.8402 63.5884 67.7167 63.2887C67.5933 62.9891 67.5616 62.6595 67.6257 62.3418C67.6898 62.0242 67.8469 61.7327 68.0769 61.5044C68.307 61.2761 68.5996 61.1213 68.9178 61.0596C69.236 60.9979 69.5653 61.0321 69.864 61.1578C70.1627 61.2835 70.4173 61.4952 70.5956 61.7658C70.7738 62.0365 70.8677 62.354 70.8652 62.6781C70.8416 63.1055 70.662 63.5094 70.3604 63.8132C70.0589 64.117 69.6564 64.2997 69.2292 64.3265V64.3015Z" fill="url(#paint10_linear_754_30605)"/>
<path d="M72.3142 4.73285e-05C72.6388 -0.00242129 72.9568 0.0917319 73.2277 0.270538C73.4987 0.449344 73.7103 0.704716 73.8357 1.00415C73.9611 1.30358 73.9945 1.63355 73.9317 1.95205C73.869 2.27055 73.7129 2.56318 73.4834 2.79272C73.2539 3.02226 72.9613 3.17833 72.6428 3.24106C72.3242 3.30378 71.9943 3.27033 71.6949 3.14496C71.3954 3.01959 71.14 2.80798 70.9612 2.53705C70.7824 2.26611 70.6883 1.9481 70.6907 1.6235C70.694 1.19394 70.8661 0.782907 71.1698 0.479156C71.4736 0.175404 71.8846 0.00331406 72.3142 4.73285e-05Z" fill="url(#paint11_linear_754_30605)"/>
<path d="M70.6912 29.846C71.0988 29.8817 71.4783 30.0689 71.7547 30.3705C72.0311 30.6722 72.1844 31.0665 72.1844 31.4757C72.1844 31.8849 72.0311 32.2792 71.7547 32.5808C71.4783 32.8825 71.0988 33.0697 70.6912 33.1054C70.4652 33.1252 70.2376 33.0978 70.0228 33.0249C69.8079 32.952 69.6106 32.8352 69.4433 32.6819C69.2761 32.5286 69.1425 32.3423 69.0511 32.1346C68.9597 31.927 68.9125 31.7026 68.9125 31.4757C68.9125 31.2488 68.9597 31.0244 69.0511 30.8168C69.1425 30.6091 69.2761 30.4227 69.4433 30.2695C69.6106 30.1162 69.8079 29.9994 70.0228 29.9265C70.2376 29.8536 70.4652 29.8262 70.6912 29.846Z" fill="url(#paint12_linear_754_30605)"/>
<path d="M48.7368 29.8471C49.0614 29.8446 49.3794 29.9388 49.6503 30.1176C49.9212 30.2964 50.1329 30.5518 50.2582 30.8512C50.3836 31.1506 50.417 31.4806 50.3543 31.7991C50.2916 32.1176 50.1355 32.4102 49.9059 32.6398C49.6764 32.8693 49.3838 33.0254 49.0653 33.0881C48.7468 33.1508 48.4168 33.1174 48.1174 32.992C47.818 32.8667 47.5626 32.655 47.3838 32.3841C47.205 32.1132 47.1108 31.7952 47.1133 31.4706C47.1133 31.04 47.2844 30.6271 47.5888 30.3226C47.8933 30.0181 48.3062 29.8471 48.7368 29.8471Z" fill="url(#paint13_linear_754_30605)"/>
<path d="M14.2814 32.9935C14.6055 32.9935 14.9222 33.0898 15.1915 33.2701C15.4608 33.4504 15.6705 33.7066 15.7939 34.0063C15.9174 34.306 15.9491 34.6355 15.8849 34.9532C15.8208 35.2709 15.6637 35.5624 15.4337 35.7906C15.2036 36.0189 14.911 36.1737 14.5928 36.2354C14.2747 36.2972 13.9453 36.263 13.6466 36.1372C13.3479 36.0115 13.0933 35.7999 12.915 35.5292C12.7368 35.2585 12.643 34.941 12.6454 34.6169C12.6487 34.1852 12.8225 33.7723 13.129 33.4682C13.4354 33.1641 13.8496 32.9935 14.2814 32.9935Z" fill="url(#paint14_linear_754_30605)"/>
<path d="M8.03718 43.884C8.36074 43.884 8.67702 43.9799 8.94605 44.1597C9.21508 44.3394 9.42476 44.595 9.54858 44.8939C9.6724 45.1928 9.70484 45.5217 9.64172 45.8391C9.5786 46.1564 9.42279 46.4479 9.194 46.6767C8.96521 46.9055 8.67366 47.0613 8.35632 47.1244C8.03898 47.1876 7.71003 47.1552 7.4111 47.0313C7.11217 46.9075 6.8567 46.6978 6.67694 46.4288C6.49718 46.1598 6.40125 45.8435 6.40125 45.5199C6.40125 45.086 6.57357 44.6699 6.88037 44.3631C7.18717 44.0563 7.60331 43.884 8.03718 43.884Z" fill="url(#paint15_linear_754_30605)"/>
<path d="M59.7761 64.3273C60.0021 64.3075 60.2298 64.3349 60.4447 64.4078C60.6595 64.4808 60.8568 64.5975 61.0241 64.7508C61.1914 64.9041 61.3249 65.0904 61.4163 65.2981C61.5077 65.5058 61.5549 65.7301 61.5549 65.957C61.5549 66.1839 61.5077 66.4083 61.4163 66.6159C61.3249 66.8236 61.1914 67.01 61.0241 67.1632C60.8568 67.3165 60.6595 67.4333 60.4447 67.5062C60.2298 67.5791 60.0021 67.6065 59.7761 67.5867C59.3685 67.551 58.9891 67.3639 58.7127 67.0622C58.4363 66.7605 58.283 66.3662 58.283 65.957C58.283 65.5479 58.4363 65.1536 58.7127 64.8519C58.9891 64.5502 59.3685 64.363 59.7761 64.3273Z" fill="url(#paint16_linear_754_30605)"/>
<path d="M37.835 14.1613C38.1338 14.1613 38.426 14.2499 38.6745 14.416C38.923 14.582 39.1167 14.818 39.2311 15.0941C39.3454 15.3702 39.3753 15.6741 39.317 15.9672C39.2587 16.2603 39.1148 16.5295 38.9035 16.7409C38.6921 16.9522 38.4229 17.0961 38.1298 17.1544C37.8367 17.2127 37.5329 17.1828 37.2568 17.0684C36.9807 16.954 36.7447 16.7604 36.5786 16.5119C36.4126 16.2634 36.324 15.9712 36.324 15.6724C36.324 15.2716 36.4831 14.8873 36.7665 14.6039C37.0499 14.3205 37.4342 14.1613 37.835 14.1613Z" fill="url(#paint17_linear_754_30605)"/>
</g>
<defs>
<filter id="filter0_dddddddd_754_30605" x="0" y="0" width="77.9997" height="80.1508" filterUnits="userSpaceOnUse" color-interpolation-filters="sRGB">
<feFlood flood-opacity="0" result="BackgroundImageFix"/>
<feColorMatrix in="SourceAlpha" type="matrix" values="0 0 0 0 0 0 0 0 0 0 0 0 0 0 0 0 0 0 127 0" result="hardAlpha"/>
<feOffset dy="4"/>
<feGaussianBlur stdDeviation="2"/>
<feComposite in2="hardAlpha" operator="out"/>
<feColorMatrix type="matrix" values="0 0 0 0 0 0 0 0 0 0 0 0 0 0 0 0 0 0 0.25 0"/>
<feBlend mode="normal" in2="BackgroundImageFix" result="effect1_dropShadow_754_30605"/>
<feColorMatrix in="SourceAlpha" type="matrix" values="0 0 0 0 0 0 0 0 0 0 0 0 0 0 0 0 0 0 127 0" result="hardAlpha"/>
<feOffset dy="4"/>
<feGaussianBlur stdDeviation="2"/>
<feComposite in2="hardAlpha" operator="out"/>
<feColorMatrix type="matrix" values="0 0 0 0 0 0 0 0 0 0 0 0 0 0 0 0 0 0 0.25 0"/>
<feBlend mode="normal" in2="effect1_dropShadow_754_30605" result="effect2_dropShadow_754_30605"/>
<feColorMatrix in="SourceAlpha" type="matrix" values="0 0 0 0 0 0 0 0 0 0 0 0 0 0 0 0 0 0 127 0" result="hardAlpha"/>
<feOffset dy="4"/>
<feGaussianBlur stdDeviation="2"/>
<feComposite in2="hardAlpha" operator="out"/>
<feColorMatrix type="matrix" values="0 0 0 0 0 0 0 0 0 0 0 0 0 0 0 0 0 0 0.25 0"/>
<feBlend mode="normal" in2="effect2_dropShadow_754_30605" result="effect3_dropShadow_754_30605"/>
<feColorMatrix in="SourceAlpha" type="matrix" values="0 0 0 0 0 0 0 0 0 0 0 0 0 0 0 0 0 0 127 0" result="hardAlpha"/>
<feOffset dy="4"/>
<feGaussianBlur stdDeviation="2"/>
<feComposite in2="hardAlpha" operator="out"/>
<feColorMatrix type="matrix" values="0 0 0 0 0 0 0 0 0 0 0 0 0 0 0 0 0 0 0.25 0"/>
<feBlend mode="normal" in2="effect3_dropShadow_754_30605" result="effect4_dropShadow_754_30605"/>
<feColorMatrix in="SourceAlpha" type="matrix" values="0 0 0 0 0 0 0 0 0 0 0 0 0 0 0 0 0 0 127 0" result="hardAlpha"/>
<feOffset dy="4"/>
<feGaussianBlur stdDeviation="2"/>
<feComposite in2="hardAlpha" operator="out"/>
<feColorMatrix type="matrix" values="0 0 0 0 0 0 0 0 0 0 0 0 0 0 0 0 0 0 0.25 0"/>
<feBlend mode="normal" in2="effect4_dropShadow_754_30605" result="effect5_dropShadow_754_30605"/>
<feColorMatrix in="SourceAlpha" type="matrix" values="0 0 0 0 0 0 0 0 0 0 0 0 0 0 0 0 0 0 127 0" result="hardAlpha"/>
<feOffset dy="4"/>
<feGaussianBlur stdDeviation="2"/>
<feComposite in2="hardAlpha" operator="out"/>
<feColorMatrix type="matrix" values="0 0 0 0 0 0 0 0 0 0 0 0 0 0 0 0 0 0 0.25 0"/>
<feBlend mode="normal" in2="effect5_dropShadow_754_30605" result="effect6_dropShadow_754_30605"/>
<feColorMatrix in="SourceAlpha" type="matrix" values="0 0 0 0 0 0 0 0 0 0 0 0 0 0 0 0 0 0 127 0" result="hardAlpha"/>
<feOffset dy="4"/>
<feGaussianBlur stdDeviation="2"/>
<feComposite in2="hardAlpha" operator="out"/>
<feColorMatrix type="matrix" values="0 0 0 0 0 0 0 0 0 0 0 0 0 0 0 0 0 0 0.25 0"/>
<feBlend mode="normal" in2="effect6_dropShadow_754_30605" result="effect7_dropShadow_754_30605"/>
<feColorMatrix in="SourceAlpha" type="matrix" values="0 0 0 0 0 0 0 0 0 0 0 0 0 0 0 0 0 0 127 0" result="hardAlpha"/>
<feOffset dy="4"/>
<feGaussianBlur stdDeviation="2"/>
<feComposite in2="hardAlpha" operator="out"/>
<feColorMatrix type="matrix" values="0 0 0 0 0 0 0 0 0 0 0 0 0 0 0 0 0 0 0.25 0"/>
<feBlend mode="normal" in2="effect7_dropShadow_754_30605" result="effect8_dropShadow_754_30605"/>
<feBlend mode="normal" in="SourceGraphic" in2="effect8_dropShadow_754_30605" result="shape"/>
</filter>
<linearGradient id="paint0_linear_754_30605" x1="26.6205" y1="23.8855" x2="40.0947" y2="31.5722" gradientUnits="userSpaceOnUse">
<stop stop-color="#31C3F9"/>
<stop offset="0.520833" stop-color="#64B8F6"/>
<stop offset="1" stop-color="#E779F8"/>
</linearGradient>
<linearGradient id="paint1_linear_754_30605" x1="5.2781" y1="39.3834" x2="31.4777" y2="89.2905" gradientUnits="userSpaceOnUse">
<stop stop-color="#31C3F9"/>
<stop offset="0.520833" stop-color="#64B8F6"/>
<stop offset="1" stop-color="#E779F8"/>
</linearGradient>
<linearGradient id="paint2_linear_754_30605" x1="54.9566" y1="9.68893" x2="68.441" y2="17.3708" gradientUnits="userSpaceOnUse">
<stop stop-color="#31C3F9"/>
<stop offset="0.520833" stop-color="#64B8F6"/>
<stop offset="1" stop-color="#E779F8"/>
</linearGradient>
<linearGradient id="paint3_linear_754_30605" x1="47.745" y1="6.16776" x2="70.708" y2="27.8265" gradientUnits="userSpaceOnUse">
<stop stop-color="#31C3F9"/>
<stop offset="0.520833" stop-color="#64B8F6"/>
<stop offset="1" stop-color="#E779F8"/>
</linearGradient>
<linearGradient id="paint4_linear_754_30605" x1="11.8146" y1="14.0497" x2="20.7781" y2="25.45" gradientUnits="userSpaceOnUse">
<stop stop-color="#31C3F9"/>
<stop offset="0.520833" stop-color="#64B8F6"/>
<stop offset="1" stop-color="#E779F8"/>
</linearGradient>
<linearGradient id="paint5_linear_754_30605" x1="11.3649" y1="9.44752" x2="13.9324" y2="14.0045" gradientUnits="userSpaceOnUse">
<stop stop-color="#31C3F9"/>
<stop offset="0.520833" stop-color="#64B8F6"/>
<stop offset="1" stop-color="#E779F8"/>
</linearGradient>
<linearGradient id="paint6_linear_754_30605" x1="18.9627" y1="9.57256" x2="21.9708" y2="12.4098" gradientUnits="userSpaceOnUse">
<stop stop-color="#31C3F9"/>
<stop offset="0.520833" stop-color="#64B8F6"/>
<stop offset="1" stop-color="#E779F8"/>
</linearGradient>
<linearGradient id="paint7_linear_754_30605" x1="5.93324" y1="5.36878" x2="43.1531" y2="38.8698" gradientUnits="userSpaceOnUse">
<stop stop-color="#31C3F9"/>
<stop offset="0.520833" stop-color="#64B8F6"/>
<stop offset="1" stop-color="#E779F8"/>
</linearGradient>
<linearGradient id="paint8_linear_754_30605" x1="33.3172" y1="0.697237" x2="44.7987" y2="11.5266" gradientUnits="userSpaceOnUse">
<stop stop-color="#31C3F9"/>
<stop offset="0.520833" stop-color="#64B8F6"/>
<stop offset="1" stop-color="#E779F8"/>
</linearGradient>
<linearGradient id="paint9_linear_754_30605" x1="47.2879" y1="34.9621" x2="56.0598" y2="43.2357" gradientUnits="userSpaceOnUse">
<stop stop-color="#31C3F9"/>
<stop offset="0.520833" stop-color="#64B8F6"/>
<stop offset="1" stop-color="#E779F8"/>
</linearGradient>
<linearGradient id="paint10_linear_754_30605" x1="64.6335" y1="58.5529" x2="73.4054" y2="66.8265" gradientUnits="userSpaceOnUse">
<stop stop-color="#31C3F9"/>
<stop offset="0.520833" stop-color="#64B8F6"/>
<stop offset="1" stop-color="#E779F8"/>
</linearGradient>
<linearGradient id="paint11_linear_754_30605" x1="70.7506" y1="0.169895" x2="73.7587" y2="3.0072" gradientUnits="userSpaceOnUse">
<stop stop-color="#31C3F9"/>
<stop offset="0.520833" stop-color="#64B8F6"/>
<stop offset="1" stop-color="#E779F8"/>
</linearGradient>
<linearGradient id="paint12_linear_754_30605" x1="68.9724" y1="30.0096" x2="71.9806" y2="32.8469" gradientUnits="userSpaceOnUse">
<stop stop-color="#31C3F9"/>
<stop offset="0.520833" stop-color="#64B8F6"/>
<stop offset="1" stop-color="#E779F8"/>
</linearGradient>
<linearGradient id="paint13_linear_754_30605" x1="47.1731" y1="30.017" x2="50.1813" y2="32.8543" gradientUnits="userSpaceOnUse">
<stop stop-color="#31C3F9"/>
<stop offset="0.520833" stop-color="#64B8F6"/>
<stop offset="1" stop-color="#E779F8"/>
</linearGradient>
<linearGradient id="paint14_linear_754_30605" x1="12.7053" y1="33.1634" x2="15.7135" y2="36.0007" gradientUnits="userSpaceOnUse">
<stop stop-color="#31C3F9"/>
<stop offset="0.520833" stop-color="#64B8F6"/>
<stop offset="1" stop-color="#E779F8"/>
</linearGradient>
<linearGradient id="paint15_linear_754_30605" x1="6.46116" y1="44.0539" x2="9.46931" y2="46.8912" gradientUnits="userSpaceOnUse">
<stop stop-color="#31C3F9"/>
<stop offset="0.520833" stop-color="#64B8F6"/>
<stop offset="1" stop-color="#E779F8"/>
</linearGradient>
<linearGradient id="paint16_linear_754_30605" x1="58.3429" y1="64.491" x2="61.3511" y2="67.3283" gradientUnits="userSpaceOnUse">
<stop stop-color="#31C3F9"/>
<stop offset="0.520833" stop-color="#64B8F6"/>
<stop offset="1" stop-color="#E779F8"/>
</linearGradient>
<linearGradient id="paint17_linear_754_30605" x1="36.3793" y1="14.3182" x2="39.1578" y2="16.9389" gradientUnits="userSpaceOnUse">
<stop stop-color="#31C3F9"/>
<stop offset="0.520833" stop-color="#64B8F6"/>
<stop offset="1" stop-color="#E779F8"/>
</linearGradient>
</defs>
</svg>
