<svg width="78" height="78" viewBox="0 0 78 78" fill="none" xmlns="http://www.w3.org/2000/svg">
<g filter="url(#filter0_ddddddd_754_30734)">
<path d="M72.4884 27.6744H65.7442C65.1457 25.4317 64.246 23.2803 63.0698 21.2791L67.8372 16.5116C67.975 16.3744 68.0844 16.2113 68.159 16.0318C68.2336 15.8522 68.2721 15.6596 68.2721 15.4651C68.2721 15.2707 68.2336 15.0781 68.159 14.8985C68.0844 14.7189 67.975 14.5558 67.8372 14.4186L59.5814 6.1628C59.4442 6.02498 59.2811 5.91562 59.1015 5.841C58.9219 5.76638 58.7294 5.72797 58.5349 5.72797C58.3404 5.72797 58.1478 5.76638 57.9683 5.841C57.7887 5.91562 57.6256 6.02498 57.4884 6.1628L52.7209 10.9302C50.7197 9.75401 48.5684 8.85435 46.3256 8.25582V1.51163C46.3196 1.11259 46.1584 0.731575 45.8762 0.449381C45.594 0.167186 45.213 0.0060016 44.814 0H33.186C32.787 0.0060016 32.406 0.167186 32.1238 0.449381C31.8416 0.731575 31.6804 1.11259 31.6744 1.51163V8.25582C29.4316 8.85435 27.2803 9.75401 25.2791 10.9302L20.5116 6.1628C20.3744 6.02498 20.2113 5.91562 20.0317 5.841C19.8522 5.76638 19.6596 5.72797 19.4651 5.72797C19.2706 5.72797 19.0781 5.76638 18.8985 5.841C18.7189 5.91562 18.5558 6.02498 18.4186 6.1628L10.1628 14.4186C10.025 14.5558 9.91562 14.7189 9.841 14.8985C9.76638 15.0781 9.72794 15.2707 9.72794 15.4651C9.72794 15.6596 9.76638 15.8522 9.841 16.0318C9.91562 16.2113 10.025 16.3744 10.1628 16.5116L14.9302 21.2791C13.754 23.2803 12.8543 25.4317 12.2558 27.6744H5.51161C5.11258 27.6804 4.73158 27.8416 4.44939 28.1238C4.16719 28.406 4.006 28.787 4 29.1861V40.814C4.006 41.213 4.16719 41.594 4.44939 41.8762C4.73158 42.1584 5.11258 42.3196 5.51161 42.3256H12.2558C12.8543 44.5684 13.754 46.7198 14.9302 48.721L10.1628 53.4884C10.025 53.6256 9.91562 53.7887 9.841 53.9683C9.76638 54.1479 9.72794 54.3405 9.72794 54.5349C9.72794 54.7294 9.76638 54.922 9.841 55.1016C9.91562 55.2811 10.025 55.4442 10.1628 55.5814L18.4186 63.8373C18.5558 63.9751 18.7189 64.0844 18.8985 64.159C19.0781 64.2337 19.2706 64.2721 19.4651 64.2721C19.6596 64.2721 19.8522 64.2337 20.0317 64.159C20.2113 64.0844 20.3744 63.9751 20.5116 63.8373L25.2791 59.0698C27.2803 60.246 29.4316 61.1457 31.6744 61.7442V68.4884C31.6804 68.8875 31.8416 69.2685 32.1238 69.5507C32.406 69.8329 32.787 69.994 33.186 70.0001H44.814C45.213 69.994 45.594 69.8329 45.8762 69.5507C46.1584 69.2685 46.3196 68.8875 46.3256 68.4884V61.7442C48.5684 61.1457 50.7197 60.246 52.7209 59.0698L57.4884 63.8373C57.6256 63.9751 57.7887 64.0844 57.9683 64.159C58.1478 64.2337 58.3404 64.2721 58.5349 64.2721C58.7294 64.2721 58.9219 64.2337 59.1015 64.159C59.2811 64.0844 59.4442 63.9751 59.5814 63.8373L67.8372 55.5814C67.975 55.4442 68.0844 55.2811 68.159 55.1016C68.2336 54.922 68.2721 54.7294 68.2721 54.5349C68.2721 54.3405 68.2336 54.1479 68.159 53.9683C68.0844 53.7887 67.975 53.6256 67.8372 53.4884L63.0698 48.721C64.246 46.7198 65.1457 44.5684 65.7442 42.3256H72.4884C72.8874 42.3196 73.2684 42.1584 73.5506 41.8762C73.8328 41.594 73.994 41.213 74 40.814V29.1861C73.9753 28.7933 73.8081 28.423 73.5298 28.1446C73.2515 27.8663 72.8812 27.6992 72.4884 27.6744ZM70.9768 39.3024H64.4652C64.1314 39.2953 63.8064 39.4091 63.55 39.6228C63.2936 39.8364 63.123 40.1356 63.0698 40.4652C62.4915 43.1907 61.428 45.7902 59.9302 48.1396C59.7691 48.4349 59.7048 48.7734 59.7465 49.1073C59.7882 49.4412 59.9339 49.7535 60.1628 50L64.6977 54.5349L58.5349 60.6977L54 56.1628C53.7553 55.9307 53.4426 55.7829 53.1079 55.7411C52.7732 55.6993 52.4339 55.7655 52.1395 55.9303C49.7901 57.4281 47.1907 58.4915 44.4651 59.0698C44.1356 59.123 43.8364 59.2936 43.6227 59.55C43.409 59.8064 43.2953 60.1314 43.3023 60.4652V66.8605H34.5814V60.3489C34.5885 60.0152 34.4747 59.6901 34.261 59.4337C34.0473 59.1773 33.7481 59.0068 33.4186 58.9535C30.6931 58.3752 28.0936 57.3118 25.7441 55.814C25.4488 55.6528 25.1103 55.5886 24.7765 55.6303C24.4426 55.672 24.1303 55.8176 23.8837 56.0466L19.3488 60.5814L13.186 54.4187L17.7209 49.8838C17.953 49.639 18.1008 49.3264 18.1426 48.9917C18.1845 48.657 18.1182 48.3177 17.9535 48.0233C16.4557 45.6739 15.3923 43.0744 14.8139 40.3489C14.7607 40.0193 14.5902 39.7202 14.3338 39.5065C14.0773 39.2928 13.7523 39.179 13.4186 39.1861H7.02323V30.4651H13.5348C13.8686 30.4722 14.1936 30.3584 14.45 30.1447C14.7064 29.931 14.877 29.6319 14.9302 29.3023C15.5085 26.5768 16.572 23.9773 18.0697 21.6279C18.2309 21.3326 18.2952 20.9941 18.2535 20.6602C18.2118 20.3263 18.0661 20.014 17.8372 19.7675L13.3023 15.2326L19.4651 9.06978L24 13.6047C24.2447 13.8368 24.5573 13.9846 24.8921 14.0264C25.2268 14.0682 25.5661 14.002 25.8605 13.8372C28.2099 12.3394 30.8093 11.276 33.5349 10.6977C33.8644 10.6445 34.1636 10.4739 34.3773 10.2175C34.591 9.96107 34.7047 9.63605 34.6977 9.30233V2.90698H43.4186V9.41861C43.4115 9.75233 43.5253 10.0773 43.739 10.3338C43.9527 10.5902 44.2519 10.7607 44.5814 10.814C47.3069 11.3923 49.9064 12.4557 52.2559 13.9535C52.5512 14.1147 52.8897 14.1789 53.2235 14.1372C53.5574 14.0955 53.8697 13.9499 54.1163 13.7209L58.6512 9.18606L64.814 15.3488L60.2791 19.8837C60.047 20.1285 59.8992 20.4411 59.8574 20.7758C59.8155 21.1105 59.8818 21.4498 60.0465 21.7442C61.5443 24.0936 62.6077 26.6931 63.1861 29.4186C63.2393 29.7482 63.4098 30.0473 63.6662 30.261C63.9227 30.4747 64.2477 30.5885 64.5814 30.5814H70.9768V39.3024Z" fill="url(#paint0_linear_754_30734)"/>
<path d="M39 16.0463C35.2513 16.0463 31.5869 17.1579 28.47 19.2405C25.3531 21.3232 22.9237 24.2833 21.4892 27.7466C20.0546 31.2099 19.6793 35.0208 20.4106 38.6974C21.142 42.3741 22.9472 45.7512 25.5979 48.4019C28.2486 51.0526 31.6257 52.8578 35.3023 53.5891C38.9789 54.3204 42.7899 53.9451 46.2532 52.5105C49.7165 51.076 52.6766 48.6467 54.7593 45.5298C56.8419 42.4129 57.9535 38.7484 57.9535 34.9998C57.9535 29.973 55.9566 25.1521 52.4021 21.5976C48.8476 18.0432 44.0268 16.0463 39 16.0463ZM39 50.93C35.8263 50.93 32.7238 49.9889 30.085 48.2257C27.4462 46.4625 25.3895 43.9564 24.175 41.0243C22.9604 38.0921 22.6426 34.8657 23.2618 31.753C23.8809 28.6403 25.4092 25.7811 27.6534 23.5369C29.8975 21.2928 32.7567 19.7645 35.8694 19.1453C38.9822 18.5262 42.2086 18.8439 45.1407 20.0585C48.0728 21.273 50.579 23.3297 52.3422 25.9685C54.1054 28.6074 55.0465 31.7098 55.0465 34.8835C55.0373 39.1365 53.3437 43.2126 50.3364 46.2199C47.3291 49.2273 43.253 50.9208 39 50.93Z" fill="url(#paint1_linear_754_30734)"/>
<path d="M39 23.2559C37.1844 23.2318 35.4254 23.8872 34.0682 25.0934C32.7109 26.2996 31.8535 27.9695 31.6641 29.7754C31.4748 31.5812 31.9673 33.3926 33.0448 34.8541C34.1224 36.3155 35.7073 37.3215 37.4884 37.6745V46.5117C37.4884 46.9126 37.6476 47.2971 37.9311 47.5806C38.2146 47.8641 38.5991 48.0234 39 48.0234C39.4009 48.0234 39.7854 47.8641 40.0689 47.5806C40.3524 47.2971 40.5116 46.9126 40.5116 46.5117V37.6745C42.2927 37.3215 43.8776 36.3155 44.9552 34.8541C46.0328 33.3926 46.5252 31.5812 46.3359 29.7754C46.1465 27.9695 45.2891 26.2996 43.9319 25.0934C42.5746 23.8872 40.8156 23.2318 39 23.2559ZM39 34.8838C38.1261 34.8838 37.2718 34.6247 36.5452 34.1391C35.8185 33.6536 35.2522 32.9635 34.9177 32.1561C34.5833 31.3487 34.4958 30.4603 34.6663 29.6032C34.8368 28.746 35.2576 27.9587 35.8756 27.3408C36.4935 26.7228 37.2809 26.302 38.138 26.1315C38.9951 25.961 39.8836 26.0485 40.691 26.3829C41.4984 26.7174 42.1884 27.2837 42.674 28.0104C43.1595 28.737 43.4186 29.5913 43.4186 30.4652C43.4186 31.6371 42.9531 32.761 42.1244 33.5896C41.2958 34.4183 40.1719 34.8838 39 34.8838Z" fill="url(#paint2_linear_754_30734)"/>
</g>
<defs>
<filter id="filter0_ddddddd_754_30734" x="0" y="0" width="78" height="78.0001" filterUnits="userSpaceOnUse" color-interpolation-filters="sRGB">
<feFlood flood-opacity="0" result="BackgroundImageFix"/>
<feColorMatrix in="SourceAlpha" type="matrix" values="0 0 0 0 0 0 0 0 0 0 0 0 0 0 0 0 0 0 127 0" result="hardAlpha"/>
<feOffset dy="4"/>
<feGaussianBlur stdDeviation="2"/>
<feComposite in2="hardAlpha" operator="out"/>
<feColorMatrix type="matrix" values="0 0 0 0 0 0 0 0 0 0 0 0 0 0 0 0 0 0 0.25 0"/>
<feBlend mode="normal" in2="BackgroundImageFix" result="effect1_dropShadow_754_30734"/>
<feColorMatrix in="SourceAlpha" type="matrix" values="0 0 0 0 0 0 0 0 0 0 0 0 0 0 0 0 0 0 127 0" result="hardAlpha"/>
<feOffset dy="4"/>
<feGaussianBlur stdDeviation="2"/>
<feComposite in2="hardAlpha" operator="out"/>
<feColorMatrix type="matrix" values="0 0 0 0 0 0 0 0 0 0 0 0 0 0 0 0 0 0 0.25 0"/>
<feBlend mode="normal" in2="effect1_dropShadow_754_30734" result="effect2_dropShadow_754_30734"/>
<feColorMatrix in="SourceAlpha" type="matrix" values="0 0 0 0 0 0 0 0 0 0 0 0 0 0 0 0 0 0 127 0" result="hardAlpha"/>
<feOffset dy="4"/>
<feGaussianBlur stdDeviation="2"/>
<feComposite in2="hardAlpha" operator="out"/>
<feColorMatrix type="matrix" values="0 0 0 0 0 0 0 0 0 0 0 0 0 0 0 0 0 0 0.25 0"/>
<feBlend mode="normal" in2="effect2_dropShadow_754_30734" result="effect3_dropShadow_754_30734"/>
<feColorMatrix in="SourceAlpha" type="matrix" values="0 0 0 0 0 0 0 0 0 0 0 0 0 0 0 0 0 0 127 0" result="hardAlpha"/>
<feOffset dy="4"/>
<feGaussianBlur stdDeviation="2"/>
<feComposite in2="hardAlpha" operator="out"/>
<feColorMatrix type="matrix" values="0 0 0 0 0 0 0 0 0 0 0 0 0 0 0 0 0 0 0.25 0"/>
<feBlend mode="normal" in2="effect3_dropShadow_754_30734" result="effect4_dropShadow_754_30734"/>
<feColorMatrix in="SourceAlpha" type="matrix" values="0 0 0 0 0 0 0 0 0 0 0 0 0 0 0 0 0 0 127 0" result="hardAlpha"/>
<feOffset dy="4"/>
<feGaussianBlur stdDeviation="2"/>
<feComposite in2="hardAlpha" operator="out"/>
<feColorMatrix type="matrix" values="0 0 0 0 0 0 0 0 0 0 0 0 0 0 0 0 0 0 0.25 0"/>
<feBlend mode="normal" in2="effect4_dropShadow_754_30734" result="effect5_dropShadow_754_30734"/>
<feColorMatrix in="SourceAlpha" type="matrix" values="0 0 0 0 0 0 0 0 0 0 0 0 0 0 0 0 0 0 127 0" result="hardAlpha"/>
<feOffset dy="4"/>
<feGaussianBlur stdDeviation="2"/>
<feComposite in2="hardAlpha" operator="out"/>
<feColorMatrix type="matrix" values="0 0 0 0 0 0 0 0 0 0 0 0 0 0 0 0 0 0 0.25 0"/>
<feBlend mode="normal" in2="effect5_dropShadow_754_30734" result="effect6_dropShadow_754_30734"/>
<feColorMatrix in="SourceAlpha" type="matrix" values="0 0 0 0 0 0 0 0 0 0 0 0 0 0 0 0 0 0 127 0" result="hardAlpha"/>
<feOffset dy="4"/>
<feGaussianBlur stdDeviation="2"/>
<feComposite in2="hardAlpha" operator="out"/>
<feColorMatrix type="matrix" values="0 0 0 0 0 0 0 0 0 0 0 0 0 0 0 0 0 0 0.25 0"/>
<feBlend mode="normal" in2="effect6_dropShadow_754_30734" result="effect7_dropShadow_754_30734"/>
<feBlend mode="normal" in="SourceGraphic" in2="effect7_dropShadow_754_30734" result="shape"/>
</filter>
<linearGradient id="paint0_linear_754_30734" x1="19" y1="6" x2="52.5" y2="59.5" gradientUnits="userSpaceOnUse">
<stop stop-color="#38D7F5"/>
<stop offset="0.523958" stop-color="#42C0FB"/>
<stop offset="1" stop-color="#FC77F9"/>
</linearGradient>
<linearGradient id="paint1_linear_754_30734" x1="28.1694" y1="19.2955" x2="46.3106" y2="48.2672" gradientUnits="userSpaceOnUse">
<stop stop-color="#38D7F5"/>
<stop offset="0.523958" stop-color="#42C0FB"/>
<stop offset="1" stop-color="#FC77F9"/>
</linearGradient>
<linearGradient id="paint2_linear_754_30734" x1="34.7854" y1="25.3782" x2="47.9449" y2="37.8947" gradientUnits="userSpaceOnUse">
<stop stop-color="#38D7F5"/>
<stop offset="0.523958" stop-color="#42C0FB"/>
<stop offset="1" stop-color="#FC77F9"/>
</linearGradient>
</defs>
</svg>
