<svg width="471" height="470" viewBox="0 0 471 470" fill="none" xmlns="http://www.w3.org/2000/svg">
<g filter="url(#filter0_dddddddd_909_30251)">
<path d="M235.48 216.38C237.496 216.383 239.468 215.787 241.145 214.669C242.822 213.55 244.13 211.96 244.903 210.098C245.676 208.236 245.88 206.187 245.488 204.209C245.096 202.232 244.126 200.415 242.702 198.989C241.277 197.562 239.461 196.591 237.484 196.197C235.507 195.803 233.458 196.004 231.595 196.775C229.732 197.546 228.14 198.852 227.02 200.528C225.9 202.204 225.302 204.174 225.302 206.19C225.305 208.89 226.378 211.478 228.286 213.388C230.194 215.298 232.781 216.374 235.48 216.38ZM235.48 199.018C236.925 199.016 238.338 199.442 239.539 200.243C240.741 201.044 241.679 202.184 242.233 203.518C242.786 204.852 242.932 206.321 242.651 207.737C242.369 209.154 241.674 210.456 240.653 211.477C239.631 212.498 238.33 213.194 236.913 213.475C235.496 213.756 234.028 213.611 232.694 213.057C231.36 212.503 230.22 211.566 229.419 210.364C228.618 209.162 228.191 207.749 228.194 206.305C228.206 204.376 228.977 202.53 230.341 201.166C231.705 199.802 233.552 199.03 235.48 199.018Z" fill="url(#paint0_linear_909_30251)"/>
<path d="M260.118 216.38C262.134 216.383 264.105 215.787 265.783 214.669C267.46 213.55 268.768 211.96 269.541 210.098C270.314 208.236 270.517 206.187 270.125 204.209C269.733 202.232 268.764 200.415 267.339 198.989C265.914 197.562 264.099 196.591 262.122 196.197C260.145 195.803 258.095 196.004 256.233 196.775C254.37 197.546 252.778 198.852 251.658 200.528C250.537 202.204 249.939 204.174 249.939 206.19C249.946 208.889 251.019 211.476 252.927 213.385C254.834 215.294 257.419 216.371 260.118 216.38ZM260.118 199.018C261.1 198.979 262.08 199.139 262.999 199.488C263.917 199.837 264.756 200.368 265.465 201.049C266.173 201.73 266.737 202.547 267.122 203.451C267.507 204.355 267.706 205.328 267.706 206.311C267.706 207.293 267.507 208.266 267.122 209.17C266.737 210.075 266.173 210.892 265.465 211.573C264.756 212.254 263.917 212.785 262.999 213.134C262.08 213.482 261.1 213.642 260.118 213.603C258.234 213.529 256.452 212.728 255.145 211.368C253.839 210.009 253.109 208.196 253.109 206.311C253.109 204.425 253.839 202.613 255.145 201.253C256.452 199.894 258.234 199.093 260.118 199.018Z" fill="url(#paint1_linear_909_30251)"/>
<path d="M270.344 231.028C270.359 228.432 269.39 225.928 267.633 224.021C265.876 222.113 263.461 220.946 260.878 220.754C258.295 220.561 255.735 221.359 253.716 222.986C251.697 224.612 250.37 226.946 250.002 229.515H245.472C245.087 226.962 243.753 224.649 241.738 223.04C239.724 221.43 237.177 220.642 234.607 220.833C232.038 221.024 229.635 222.181 227.88 224.071C226.125 225.961 225.147 228.446 225.141 231.028C225.121 233.315 225.9 235.538 227.343 237.31L217.465 248.028C216.004 246.73 214.175 245.922 212.233 245.718V241.179C214.651 240.812 216.858 239.588 218.453 237.73C220.048 235.872 220.925 233.502 220.925 231.051C220.925 228.6 220.048 226.23 218.453 224.372C216.858 222.513 214.651 221.29 212.233 220.923V216.372C214.781 215.986 217.089 214.65 218.695 212.631C220.302 210.612 221.088 208.06 220.897 205.485C220.706 202.911 219.552 200.503 217.666 198.744C215.779 196.986 213.3 196.006 210.723 196C209.387 195.99 208.063 196.244 206.825 196.747C205.587 197.251 204.461 197.995 203.511 198.936C202.561 199.877 201.806 200.997 201.29 202.231C200.773 203.466 200.505 204.79 200.5 206.129C200.508 208.581 201.39 210.949 202.988 212.807C204.586 214.664 206.794 215.888 209.213 216.257V220.807C206.795 221.174 204.588 222.398 202.993 224.256C201.398 226.115 200.521 228.484 200.521 230.935C200.521 233.386 201.398 235.756 202.993 237.615C204.588 239.473 206.795 240.697 209.213 241.064V245.602C207.278 245.894 205.467 246.736 203.995 248.029C202.524 249.322 201.453 251.011 200.911 252.895C200.369 254.779 200.379 256.78 200.938 258.659C201.497 260.538 202.583 262.217 204.066 263.496C205.549 264.775 207.368 265.601 209.306 265.875C211.243 266.149 213.219 265.86 214.998 265.043C216.776 264.225 218.284 262.913 219.34 261.262C220.397 259.612 220.958 257.692 220.958 255.731C220.967 253.785 220.402 251.88 219.333 250.257L229.706 239.32C231.127 240.323 232.781 240.945 234.511 241.125C236.24 241.305 237.987 241.037 239.583 240.348C241.18 239.659 242.574 238.571 243.631 237.187C244.688 235.804 245.374 234.173 245.622 232.448H250.152C250.46 234.624 251.465 236.641 253.015 238.194C254.566 239.748 256.579 240.755 258.75 241.064V245.602C256.195 245.986 253.88 247.322 252.268 249.345C250.656 251.367 249.867 253.925 250.059 256.506C250.251 259.087 251.409 261.5 253.302 263.261C255.195 265.021 257.683 266 260.265 266C262.848 266 265.336 265.021 267.229 263.261C269.121 261.5 270.28 259.087 270.472 256.506C270.664 253.925 269.874 251.367 268.263 249.345C266.651 247.322 264.335 245.986 261.781 245.602V241.064C264.174 240.703 266.358 239.489 267.93 237.646C269.503 235.803 270.36 233.453 270.344 231.028ZM260.225 223.81C262.024 223.811 263.759 224.478 265.096 225.684C266.433 226.891 267.277 228.55 267.466 230.342C267.654 232.135 267.175 233.934 266.119 235.393C265.063 236.852 263.505 237.869 261.746 238.246V231.143C261.738 230.743 261.574 230.361 261.29 230.079C261.007 229.797 260.625 229.636 260.225 229.63H253.137C253.426 227.968 254.3 226.464 255.6 225.392C256.901 224.32 258.541 223.751 260.225 223.787V223.81ZM228.276 231.028C228.28 229.226 228.948 227.49 230.153 226.152C231.358 224.815 233.013 223.971 234.801 223.784C236.589 223.596 238.384 224.077 239.839 225.135C241.294 226.193 242.307 227.753 242.683 229.515H235.595C235.396 229.504 235.198 229.54 235.016 229.62C234.833 229.701 234.673 229.823 234.546 229.977L229.659 235.081C228.731 233.939 228.24 232.501 228.276 231.028ZM215.379 250.118L212.233 253.502V248.582C213.389 248.823 214.468 249.343 215.379 250.095V250.118ZM218.053 231.028C218.033 232.689 217.452 234.295 216.406 235.585C215.36 236.874 213.91 237.771 212.291 238.13V223.925C213.912 224.281 215.364 225.177 216.411 226.467C217.458 227.757 218.037 229.365 218.053 231.028ZM203.52 206.313C203.504 204.922 203.882 203.555 204.612 202.371C205.341 201.187 206.391 200.234 207.64 199.625C208.888 199.016 210.283 198.774 211.664 198.929C213.044 199.083 214.351 199.628 215.435 200.498C216.518 201.369 217.333 202.529 217.783 203.846C218.234 205.162 218.302 206.579 217.98 207.933C217.657 209.286 216.958 210.52 215.963 211.491C214.968 212.462 213.719 213.129 212.36 213.416V206.313C212.327 205.933 212.153 205.58 211.872 205.322C211.591 205.064 211.225 204.921 210.844 204.921C210.464 204.921 210.097 205.064 209.816 205.322C209.536 205.58 209.362 205.933 209.328 206.313V213.416C207.699 213.07 206.236 212.177 205.18 210.886C204.124 209.595 203.538 207.982 203.52 206.313ZM203.52 231.005C203.536 229.342 204.115 227.734 205.162 226.444C206.209 225.154 207.661 224.258 209.282 223.902V238.107C207.667 237.749 206.22 236.855 205.174 235.57C204.128 234.286 203.545 232.685 203.52 231.028V231.005ZM218.053 255.8C218.041 257.743 217.265 259.603 215.892 260.976C214.52 262.349 212.662 263.124 210.723 263.133C208.798 263.115 206.959 262.333 205.609 260.958C204.259 259.584 203.507 257.729 203.52 255.8C203.54 254.138 204.121 252.533 205.167 251.243C206.213 249.954 207.663 249.057 209.282 248.697V257.197C209.284 257.579 209.428 257.945 209.686 258.225C209.944 258.506 210.298 258.679 210.677 258.71C210.876 258.722 211.075 258.686 211.257 258.606C211.439 258.526 211.6 258.403 211.726 258.248L217.189 252.543C217.784 253.523 218.085 254.654 218.053 255.8ZM235.48 238.338C234.128 238.352 232.799 237.988 231.642 237.287L236.056 232.518H242.568C242.219 234.149 241.327 235.612 240.04 236.67C238.752 237.727 237.144 238.315 235.48 238.338ZM253.022 232.564H258.715V238.269C257.327 237.933 256.06 237.218 255.054 236.202C254.049 235.187 253.345 233.911 253.022 232.518V232.564ZM267.44 255.846C267.428 257.789 266.651 259.649 265.279 261.022C263.907 262.395 262.049 263.171 260.11 263.18C258.312 263.176 256.579 262.506 255.244 261.299C253.91 260.092 253.067 258.433 252.88 256.642C252.693 254.85 253.173 253.052 254.229 251.594C255.285 250.136 256.842 249.121 258.6 248.744V257.244C258.6 257.645 258.759 258.03 259.042 258.313C259.325 258.597 259.709 258.756 260.11 258.756C260.51 258.756 260.894 258.597 261.177 258.313C261.461 258.03 261.62 257.645 261.62 257.244V248.582C263.267 248.938 264.742 249.848 265.801 251.162C266.86 252.475 267.438 254.112 267.44 255.8V255.846Z" fill="url(#paint2_linear_909_30251)"/>
<path d="M235.48 245.298C233.464 245.296 231.492 245.892 229.814 247.01C228.137 248.129 226.829 249.721 226.056 251.583C225.284 253.446 225.081 255.495 225.474 257.473C225.866 259.451 226.837 261.268 228.263 262.694C229.689 264.119 231.506 265.09 233.483 265.483C235.461 265.876 237.511 265.673 239.373 264.9C241.236 264.128 242.827 262.82 243.946 261.142C245.065 259.465 245.661 257.493 245.659 255.477C245.656 252.778 244.582 250.191 242.674 248.282C240.766 246.374 238.179 245.301 235.48 245.298ZM235.48 262.649C233.55 262.64 231.702 261.869 230.337 260.504C228.973 259.14 228.202 257.292 228.193 255.362C228.193 253.429 228.961 251.576 230.327 250.209C231.694 248.843 233.547 248.075 235.48 248.075C237.413 248.075 239.266 248.843 240.633 250.209C241.999 251.576 242.767 253.429 242.767 255.362C242.758 257.292 241.987 259.14 240.623 260.504C239.258 261.869 237.41 262.64 235.48 262.649Z" fill="url(#paint3_linear_909_30251)"/>
</g>
<defs>
<filter id="filter0_dddddddd_909_30251" x="0.5" y="0" width="470" height="470" filterUnits="userSpaceOnUse" color-interpolation-filters="sRGB">
<feFlood flood-opacity="0" result="BackgroundImageFix"/>
<feColorMatrix in="SourceAlpha" type="matrix" values="0 0 0 0 0 0 0 0 0 0 0 0 0 0 0 0 0 0 127 0" result="hardAlpha"/>
<feOffset dy="4"/>
<feColorMatrix type="matrix" values="0 0 0 0 0 0 0 0 0 0 0 0 0 0 0 0 0 0 1 0"/>
<feBlend mode="normal" in2="BackgroundImageFix" result="effect1_dropShadow_909_30251"/>
<feColorMatrix in="SourceAlpha" type="matrix" values="0 0 0 0 0 0 0 0 0 0 0 0 0 0 0 0 0 0 127 0" result="hardAlpha"/>
<feOffset dy="4"/>
<feGaussianBlur stdDeviation="2"/>
<feComposite in2="hardAlpha" operator="out"/>
<feColorMatrix type="matrix" values="0 0 0 0 0 0 0 0 0 0 0 0 0 0 0 0 0 0 1 0"/>
<feBlend mode="normal" in2="effect1_dropShadow_909_30251" result="effect2_dropShadow_909_30251"/>
<feColorMatrix in="SourceAlpha" type="matrix" values="0 0 0 0 0 0 0 0 0 0 0 0 0 0 0 0 0 0 127 0" result="hardAlpha"/>
<feOffset dy="4"/>
<feGaussianBlur stdDeviation="2"/>
<feComposite in2="hardAlpha" operator="out"/>
<feColorMatrix type="matrix" values="0 0 0 0 0 0 0 0 0 0 0 0 0 0 0 0 0 0 1 0"/>
<feBlend mode="normal" in2="effect2_dropShadow_909_30251" result="effect3_dropShadow_909_30251"/>
<feColorMatrix in="SourceAlpha" type="matrix" values="0 0 0 0 0 0 0 0 0 0 0 0 0 0 0 0 0 0 127 0" result="hardAlpha"/>
<feOffset dy="4"/>
<feGaussianBlur stdDeviation="2"/>
<feComposite in2="hardAlpha" operator="out"/>
<feColorMatrix type="matrix" values="0 0 0 0 0 0 0 0 0 0 0 0 0 0 0 0 0 0 1 0"/>
<feBlend mode="normal" in2="effect3_dropShadow_909_30251" result="effect4_dropShadow_909_30251"/>
<feColorMatrix in="SourceAlpha" type="matrix" values="0 0 0 0 0 0 0 0 0 0 0 0 0 0 0 0 0 0 127 0" result="hardAlpha"/>
<feOffset dy="4"/>
<feGaussianBlur stdDeviation="2"/>
<feComposite in2="hardAlpha" operator="out"/>
<feColorMatrix type="matrix" values="0 0 0 0 0 0 0 0 0 0 0 0 0 0 0 0 0 0 1 0"/>
<feBlend mode="normal" in2="effect4_dropShadow_909_30251" result="effect5_dropShadow_909_30251"/>
<feColorMatrix in="SourceAlpha" type="matrix" values="0 0 0 0 0 0 0 0 0 0 0 0 0 0 0 0 0 0 127 0" result="hardAlpha"/>
<feOffset dy="4"/>
<feGaussianBlur stdDeviation="2"/>
<feComposite in2="hardAlpha" operator="out"/>
<feColorMatrix type="matrix" values="0 0 0 0 0 0 0 0 0 0 0 0 0 0 0 0 0 0 1 0"/>
<feBlend mode="normal" in2="effect5_dropShadow_909_30251" result="effect6_dropShadow_909_30251"/>
<feColorMatrix in="SourceAlpha" type="matrix" values="0 0 0 0 0 0 0 0 0 0 0 0 0 0 0 0 0 0 127 0" result="hardAlpha"/>
<feOffset dy="4"/>
<feGaussianBlur stdDeviation="100"/>
<feComposite in2="hardAlpha" operator="out"/>
<feColorMatrix type="matrix" values="0 0 0 0 0.0300001 0 0 0 0 0.027875 0 0 0 0 0.027875 0 0 0 0.7 0"/>
<feBlend mode="normal" in2="effect6_dropShadow_909_30251" result="effect7_dropShadow_909_30251"/>
<feColorMatrix in="SourceAlpha" type="matrix" values="0 0 0 0 0 0 0 0 0 0 0 0 0 0 0 0 0 0 127 0" result="hardAlpha"/>
<feOffset dy="4"/>
<feGaussianBlur stdDeviation="2"/>
<feComposite in2="hardAlpha" operator="out"/>
<feColorMatrix type="matrix" values="0 0 0 0 0 0 0 0 0 0 0 0 0 0 0 0 0 0 0.25 0"/>
<feBlend mode="normal" in2="effect7_dropShadow_909_30251" result="effect8_dropShadow_909_30251"/>
<feBlend mode="normal" in="SourceGraphic" in2="effect8_dropShadow_909_30251" result="shape"/>
</filter>
<linearGradient id="paint0_linear_909_30251" x1="224.396" y1="194.114" x2="237.654" y2="211.396" gradientUnits="userSpaceOnUse">
<stop stop-color="#3BDBF4"/>
<stop offset="0.497917" stop-color="#2BC1FE"/>
<stop offset="1" stop-color="#EE7CFA"/>
</linearGradient>
<linearGradient id="paint1_linear_909_30251" x1="249.033" y1="194.114" x2="262.292" y2="211.396" gradientUnits="userSpaceOnUse">
<stop stop-color="#3BDBF4"/>
<stop offset="0.497917" stop-color="#2BC1FE"/>
<stop offset="1" stop-color="#EE7CFA"/>
</linearGradient>
<linearGradient id="paint2_linear_909_30251" x1="197.388" y1="189.521" x2="260.3" y2="266.373" gradientUnits="userSpaceOnUse">
<stop stop-color="#3BDBF4"/>
<stop offset="0.497917" stop-color="#2ABFFF"/>
<stop offset="1" stop-color="#EE7CFA"/>
</linearGradient>
<linearGradient id="paint3_linear_909_30251" x1="224.372" y1="243.411" x2="237.631" y2="260.694" gradientUnits="userSpaceOnUse">
<stop stop-color="#3BDBF4"/>
<stop offset="0.497917" stop-color="#2BC1FE"/>
<stop offset="1" stop-color="#EE7CFA"/>
</linearGradient>
</defs>
</svg>
