<svg width="25" height="24" viewBox="0 0 25 24" fill="none" xmlns="http://www.w3.org/2000/svg">
<path d="M8.40581 11.0329C7.91265 11.0346 7.42822 11.1631 6.99914 11.4062C7.60324 9.84256 8.60518 8.46375 9.90581 7.40623C9.98022 7.34494 10.0418 7.2696 10.0871 7.18451C10.1324 7.09941 10.1605 7.00622 10.1698 6.91027C10.1791 6.81432 10.1694 6.71747 10.1413 6.62527C10.1131 6.53307 10.0671 6.44731 10.0058 6.37289C9.94452 6.29848 9.86918 6.23686 9.78409 6.19156C9.69899 6.14626 9.6058 6.11817 9.50985 6.10888C9.4139 6.0996 9.31705 6.1093 9.22485 6.13744C9.13265 6.16558 9.04689 6.21161 8.97247 6.27289C6.30581 8.43956 5.11914 11.4396 5.11914 13.2996C5.12374 13.9572 5.31972 14.5993 5.68317 15.1474C6.04661 15.6956 6.56179 16.126 7.16581 16.3862C7.55671 16.5756 7.9848 16.6758 8.41914 16.6796C8.80145 16.6981 9.18355 16.6389 9.54227 16.5054C9.90099 16.3719 10.2289 16.1669 10.506 15.9029C10.7831 15.6389 11.0038 15.3214 11.1545 14.9696C11.3053 14.6178 11.383 14.239 11.383 13.8562C11.383 13.4735 11.3053 13.0947 11.1545 12.7429C11.0038 12.3911 10.7831 12.0735 10.506 11.8095C10.2289 11.5455 9.90099 11.3406 9.54227 11.2071C9.18355 11.0736 8.80145 11.0143 8.41914 11.0329H8.40581Z" fill="#336CDC"/>
<path d="M15.6695 11.033C15.1762 11.0341 14.6917 11.1627 14.2628 11.4064C14.8667 9.84433 15.866 8.46597 17.1628 7.40635C17.244 7.34785 17.3123 7.27335 17.3636 7.18744C17.4149 7.10153 17.4481 7.00603 17.4611 6.90683C17.4741 6.80762 17.4667 6.70679 17.4393 6.61056C17.4119 6.51433 17.3651 6.42473 17.3017 6.34727C17.2384 6.2698 17.1599 6.20612 17.071 6.16014C16.9821 6.11416 16.8848 6.08685 16.785 6.0799C16.6852 6.07294 16.585 6.08649 16.4906 6.1197C16.3962 6.15291 16.3096 6.20509 16.2361 6.27302C13.5695 8.43969 12.3828 11.4397 12.3828 13.2997C12.386 13.9499 12.5762 14.5855 12.9309 15.1304C13.2855 15.6754 13.7896 16.1068 14.3828 16.373C14.7836 16.5679 15.2238 16.6683 15.6695 16.6664C16.0518 16.6849 16.4339 16.6257 16.7926 16.4922C17.1513 16.3587 17.4792 16.1537 17.7563 15.8897C18.0335 15.6257 18.2541 15.3082 18.4049 14.9564C18.5556 14.6046 18.6334 14.2258 18.6334 13.843C18.6334 13.4603 18.5556 13.0815 18.4049 12.7297C18.2541 12.3779 18.0335 12.0603 17.7563 11.7963C17.4792 11.5323 17.1513 11.3274 16.7926 11.1939C16.4339 11.0604 16.0518 11.0011 15.6695 11.0197V11.033Z" fill="#336CDC"/>
</svg>
