<svg width="21" height="20" viewBox="0 0 21 20" fill="none" xmlns="http://www.w3.org/2000/svg">
<path d="M6.25033 17.167C7.50033 17.917 9.00033 18.3337 10.5003 18.3337C15.0837 18.3337 18.8337 14.5837 18.8337 10.0003C18.8337 5.41699 15.0837 1.66699 10.5003 1.66699C5.91699 1.66699 2.16699 5.41699 2.16699 10.0003C2.16699 11.5003 2.58366 12.917 3.25033 14.167L2.60744 16.6396C2.41271 17.3886 3.10592 18.0654 3.84998 17.8528L6.25033 17.167Z" stroke="white" stroke-miterlimit="10" stroke-linecap="round" stroke-linejoin="round"/>
<path d="M14.25 12.3737C14.25 12.5087 14.22 12.6475 14.1561 12.7825C14.0923 12.9175 14.0096 13.045 13.9007 13.165C13.7167 13.3675 13.5139 13.5138 13.2848 13.6075C13.0595 13.7013 12.8153 13.75 12.5525 13.75C12.1694 13.75 11.76 13.66 11.3281 13.4763C10.8962 13.2925 10.4643 13.045 10.0362 12.7338C9.60428 12.4188 9.19492 12.07 8.80433 11.6837C8.4175 11.2937 8.06823 10.885 7.75651 10.4575C7.44855 10.03 7.20068 9.6025 7.02041 9.17875C6.84014 8.75125 6.75 8.3425 6.75 7.9525C6.75 7.6975 6.79507 7.45375 6.8852 7.22875C6.97534 7 7.11805 6.79 7.3171 6.6025C7.55746 6.36625 7.82036 6.25 8.09827 6.25C8.20343 6.25 8.30859 6.2725 8.40248 6.3175C8.50013 6.3625 8.5865 6.43 8.65411 6.5275L9.52541 7.75375C9.59301 7.8475 9.64184 7.93375 9.67564 8.01625C9.70944 8.095 9.72822 8.17375 9.72822 8.245C9.72822 8.335 9.70193 8.425 9.64935 8.51125C9.60053 8.5975 9.52917 8.6875 9.43903 8.7775L9.15361 9.07375C9.11229 9.115 9.09352 9.16375 9.09352 9.22375C9.09352 9.25375 9.09727 9.28 9.10478 9.31C9.11605 9.34 9.12732 9.3625 9.13483 9.385C9.20243 9.50875 9.31885 9.67 9.4841 9.865C9.6531 10.06 9.83337 10.2588 10.0287 10.4575C10.2315 10.6563 10.4268 10.84 10.6258 11.0087C10.8211 11.1737 10.9826 11.2862 11.1103 11.3537C11.1291 11.3612 11.1516 11.3725 11.1779 11.3837C11.2079 11.395 11.238 11.3987 11.2718 11.3987C11.3356 11.3987 11.3845 11.3763 11.4258 11.335L11.7112 11.0538C11.8051 10.96 11.8952 10.8887 11.9816 10.8438C12.068 10.7912 12.1544 10.765 12.2482 10.765C12.3196 10.765 12.3947 10.78 12.4773 10.8138C12.56 10.8475 12.6463 10.8963 12.7402 10.96L13.9834 11.8412C14.081 11.9087 14.1486 11.9875 14.1899 12.0812C14.2275 12.175 14.25 12.2687 14.25 12.3737Z" stroke="white" stroke-miterlimit="10"/>
</svg>
