<svg width="75" height="75" viewBox="0 0 75 75" fill="none" xmlns="http://www.w3.org/2000/svg">
<g clip-path="url(#clip0_901_734)" filter="url(#filter0_d_901_734)">
<path d="M64.5838 26.8979C62.3445 25.3893 60.4827 23.3874 59.142 21.0469C57.8013 18.7063 57.0177 16.0896 56.8516 13.3988L56.7765 12.1174L55.4905 12.055C53.8878 11.979 52.2929 11.7863 50.7184 11.4785C50.6907 12.4358 50.5956 13.3899 50.434 14.334C51.6479 14.5639 52.873 14.7306 54.1043 14.8337C54.4435 17.543 55.3219 20.1574 56.6878 22.5233C58.0537 24.8892 59.8796 26.959 62.0583 28.6111C59.7921 34.4326 53.1152 47.5373 35.0358 63.1655C16.9708 47.5373 10.2778 34.4326 8.01161 28.6111C10.1906 26.9593 12.0167 24.8896 13.3826 22.5236C14.7485 20.1576 15.6267 17.5431 15.9656 14.8337C17.1951 14.7306 18.4184 14.5638 19.6305 14.334C19.4727 13.3896 19.3807 12.4355 19.355 11.4785C17.7825 11.7885 16.1894 11.983 14.5884 12.0603L13.3041 12.1228L13.2272 13.4041C13.0606 16.0938 12.2766 18.7093 10.936 21.0487C9.59529 23.388 7.73374 25.3886 5.49503 26.8961L4.57031 27.5154L4.92982 28.5683C10.8036 45.0673 27.2875 60.335 34.104 66.1422L35.0358 66.9346L35.9659 66.1422C42.7805 60.335 59.2662 45.0673 65.1365 28.5683L65.5085 27.5225L64.5838 26.8979Z" fill="url(#paint0_linear_901_734)"/>
<path d="M47.7931 31.0047C46.8369 29.5961 45.9993 28.111 45.289 26.5645C45.145 26.7525 44.9638 26.909 44.7568 27.0244C44.5498 27.1398 44.3212 27.2117 44.0853 27.2355L43.3 27.9351C43.8015 28.9912 44.3567 30.0211 44.9635 31.0207C44.7578 31.3366 44.5485 31.6561 44.3321 31.9773C44.1157 32.2985 43.8867 32.6322 43.6399 32.9874H43.6113C43.1701 32.9874 42.7389 33.1179 42.3721 33.3625C42.0053 33.607 41.7195 33.9546 41.5506 34.3612C41.3818 34.7679 41.3377 35.2153 41.4237 35.647C41.5098 36.0787 41.7222 36.4752 42.0341 36.7865C42.3461 37.0977 42.7435 37.3097 43.1761 37.3955C43.6088 37.4814 44.0573 37.4373 44.4648 37.2689C44.8724 37.1005 45.2207 36.8152 45.4658 36.4492C45.7109 36.0833 45.8417 35.653 45.8417 35.2128C45.8407 34.8973 45.7718 34.5857 45.6396 34.2991C45.8792 33.9529 46.1082 33.6192 46.3192 33.3068C46.8344 32.527 47.3298 31.7578 47.7931 31.0047Z" fill="url(#paint1_linear_901_734)"/>
<path d="M39.0248 38.7606C38.4338 38.7606 37.8669 38.9948 37.449 39.4119C37.031 39.8289 36.7962 40.3945 36.7962 40.9842C36.7991 41.1743 36.8262 41.3632 36.8767 41.5464C36.2918 42.2103 35.6819 42.892 35.0362 43.5916C30.5647 38.7463 27.5473 34.6684 25.7443 31.9771C25.5297 31.6583 25.3192 31.3394 25.113 31.0206C25.7207 30.0206 26.2765 28.9901 26.7782 27.9331L25.9912 27.2335C25.7559 27.2082 25.5281 27.1356 25.3216 27.0203C25.1151 26.905 24.934 26.7493 24.7892 26.5625C24.0791 28.1097 23.2416 29.5955 22.2852 31.0045C22.7484 31.7576 23.2439 32.5268 23.7661 33.3031C25.9125 36.4923 29.5416 41.359 35.0344 47.0699C36.3365 45.7189 37.5385 44.4143 38.6295 43.1686C38.7593 43.1934 38.891 43.2066 39.023 43.2079C39.6141 43.2079 40.181 42.9736 40.5989 42.5566C41.0169 42.1396 41.2517 41.574 41.2517 40.9842C41.2517 40.3945 41.0169 39.8289 40.5989 39.4119C40.181 38.9948 39.6141 38.7606 39.023 38.7606H39.0248Z" fill="url(#paint2_linear_901_734)"/>
<path d="M48.2022 20.9355C47.9932 21.2933 47.7614 21.6372 47.5082 21.9653L47.4295 22.0688L47.3311 22.1545C46.9659 22.4821 46.5679 22.7716 46.1435 23.0182L46.401 23.0486C47.2685 25.4007 48.6153 28.2562 50.6544 30.876C49.9514 32.0878 49.1609 33.3442 48.2988 34.6238C45.8287 38.3055 41.5771 43.9361 35.0362 50.4715C32.414 47.8516 30.1675 45.3816 28.2484 43.1205C28.3189 42.9092 28.3563 42.6882 28.3592 42.4655C28.3596 42.0253 28.2291 41.5949 27.9842 41.2286C27.7394 40.8624 27.3911 40.5769 26.9836 40.4082C26.5761 40.2395 26.1276 40.1952 25.6948 40.2808C25.262 40.3665 24.8644 40.5783 24.5523 40.8895C24.2402 41.2006 24.0276 41.5972 23.9414 42.0289C23.8552 42.4607 23.8993 42.9082 24.068 43.315C24.2368 43.7217 24.5227 44.0694 24.8895 44.314C25.2563 44.5586 25.6876 44.6892 26.1288 44.6892C26.2272 44.6863 26.3253 44.6762 26.4222 44.6589C28.7867 47.4465 31.6342 50.5339 35.0362 53.8177C42.6271 46.4917 47.4885 40.1169 50.2841 35.9516C51.7311 33.7957 52.7882 31.9879 53.5466 30.5976C50.7062 27.4798 49.084 23.6928 48.2022 20.9355Z" fill="url(#paint3_linear_901_734)"/>
<path d="M22.129 35.0917H22.0878C21.9805 34.9347 21.8732 34.7776 21.773 34.6259C20.9091 33.341 20.1203 32.0846 19.4156 30.8782C21.4547 28.2583 22.8033 25.4011 23.669 23.0507L23.9265 23.0204C23.5024 22.7732 23.1045 22.4838 22.7389 22.1566L22.6423 22.0709L22.5618 21.9674C22.3098 21.6395 22.0787 21.2962 21.8696 20.9395C20.986 23.6949 19.3656 27.4802 16.5234 30.6105C17.2764 31.9953 18.3407 33.805 19.7859 35.9644L20.0953 36.4195C19.9001 36.8578 19.8522 37.3473 19.9586 37.8149C20.065 38.2826 20.3202 38.7035 20.686 39.0146C21.0517 39.3258 21.5085 39.5106 21.9882 39.5416C22.4679 39.5725 22.9447 39.4478 23.3475 39.1862C23.7504 38.9246 24.0577 38.54 24.2236 38.0899C24.3895 37.6398 24.405 37.1482 24.268 36.6885C24.1309 36.2288 23.8486 35.8256 23.4631 35.5391C23.0776 35.2527 22.6096 35.0982 22.129 35.0988V35.0917Z" fill="url(#paint4_linear_901_734)"/>
<path d="M59.4225 29.4613C53.4199 25.3334 51.9908 16.4762 51.9908 16.4762L50.034 16.2549C49.8391 17.0409 49.6003 17.8155 49.3186 18.5749L50.034 18.6552C50.7495 21.3786 52.5381 26.588 56.4731 30.1626C55.2274 32.6233 53.824 35.0012 52.2716 37.2816C50.3254 40.1601 48.2286 42.9343 45.99 45.5927C45.8719 45.5715 45.7522 45.5596 45.6323 45.557C45.191 45.5559 44.7593 45.6855 44.3918 45.9293C44.0244 46.1731 43.7377 46.5202 43.568 46.9267C43.3983 47.3331 43.3533 47.7807 43.4386 48.2127C43.5239 48.6447 43.7357 49.0417 44.0472 49.3536C44.3588 49.6654 44.756 49.878 45.1887 49.9645C45.6214 50.051 46.0701 50.0075 46.4779 49.8395C46.8858 49.6715 47.2346 49.3866 47.4802 49.0207C47.7257 48.6549 47.8569 48.2246 47.8573 47.7842C47.8546 47.5823 47.8239 47.3817 47.7661 47.1882C56.6018 36.6445 59.4225 29.4613 59.4225 29.4613Z" fill="url(#paint5_linear_901_734)"/>
<path d="M40.2015 51.7275C39.9086 51.7273 39.6186 51.7846 39.348 51.8963C39.0774 52.0079 38.8316 52.1717 38.6244 52.3782C38.4173 52.5847 38.253 52.8299 38.1409 53.0998C38.0287 53.3697 37.971 53.659 37.971 53.9512C37.9749 54.0534 37.9851 54.1553 38.0014 54.2563C37.0571 55.1939 36.0686 56.1457 35.0359 57.1118C26.3933 49.0345 20.9184 41.928 17.808 37.2826C16.2559 35.002 14.8525 32.6241 13.6065 30.1636C17.5504 26.5943 19.3444 21.3796 20.0455 18.6562L20.761 18.5759C20.4785 17.8167 20.2396 17.0421 20.0455 16.2559L18.0977 16.4754C18.0977 16.4754 16.6668 25.3326 10.666 29.4605C10.666 29.4605 15.9925 43.0773 35.052 60.3563C36.6618 58.8982 38.1624 57.4687 39.579 56.0731C39.8854 56.1662 40.2084 56.1923 40.5258 56.1494C40.8432 56.1065 41.1476 55.9958 41.4182 55.8247C41.6888 55.6537 41.9192 55.4264 42.0936 55.1583C42.268 54.8902 42.3824 54.5878 42.4289 54.2715C42.4754 53.9553 42.4529 53.6328 42.3629 53.3261C42.273 53.0193 42.1178 52.7355 41.9078 52.4942C41.6978 52.2528 41.4381 52.0595 41.1464 51.9275C40.8547 51.7955 40.5379 51.7279 40.2176 51.7293L40.2015 51.7275Z" fill="url(#paint6_linear_901_734)"/>
<path d="M16.8051 8.16789V7.81096C22.4651 4.99637 28.7027 3.53139 35.0267 3.53139C41.3506 3.53139 47.5883 4.99637 53.2482 7.81096V8.16789H56.779V5.68366C50.1376 1.95676 42.6463 -0.000976562 35.0267 -0.000976562C27.407 -0.000976562 19.9158 1.95676 13.2744 5.68366V8.16789H16.8051Z" fill="url(#paint7_linear_901_734)"/>
<path d="M28.853 18.3252L32.4303 21.2449V16.835L31.0441 15.7196V11.0046H38.5205V16.3282H42.0977V10.9493C42.0977 10.12 41.7683 9.32449 41.1816 8.73709C40.5949 8.14968 39.7988 7.81826 38.9676 7.81543H30.6041C29.7717 7.81638 28.9737 8.14696 28.3855 8.73457C27.7973 9.32218 27.4668 10.1187 27.4668 10.9493V15.4412C27.4535 15.997 27.5721 16.548 27.813 17.0492C28.0539 17.5505 28.4103 17.9877 28.853 18.3252Z" fill="url(#paint8_linear_901_734)"/>
<path d="M40.8022 23.6197L36.8672 20.4287V24.8707L38.5271 26.227V31.6024H31.0435V25.5346H27.4072V31.6631C27.4072 33.7511 28.4542 34.7951 30.548 34.7951H39.0225C41.1164 34.7951 42.1633 33.7511 42.1633 31.6631V26.559C42.1633 25.3204 41.7096 24.3407 40.8022 23.6197Z" fill="url(#paint9_linear_901_734)"/>
<path d="M36.1663 24.203C36.1305 24.0067 36.1144 23.8693 36.0822 23.7372C35.8586 22.8235 35.6368 21.9097 35.4043 20.9978C35.3584 20.8848 35.3524 20.7595 35.3876 20.6426C35.4227 20.5258 35.4968 20.4244 35.5975 20.3553C35.7775 20.212 35.9249 20.0322 36.03 19.8278C36.1351 19.6233 36.1955 19.399 36.2072 19.1695C36.2188 18.94 36.1815 18.7107 36.0977 18.4967C36.0139 18.2827 35.8854 18.0889 35.7209 17.9282C35.564 17.7699 35.3768 17.6447 35.1704 17.5601C34.964 17.4755 34.7427 17.4332 34.5195 17.4357C34.2964 17.4381 34.0761 17.4854 33.8716 17.5746C33.6672 17.6638 33.4828 17.7932 33.3295 17.955C33.1692 18.1198 33.0457 18.3167 32.9671 18.5326C32.8885 18.7485 32.8566 18.9786 32.8735 19.2077C32.8904 19.4368 32.9557 19.6597 33.0652 19.8618C33.1746 20.0639 33.3256 20.2406 33.5084 20.3803C33.5983 20.4406 33.665 20.5297 33.6975 20.6328C33.73 20.7359 33.7264 20.847 33.6872 20.9478C33.4386 21.9115 33.2151 22.8824 32.9718 23.8497C32.9199 24.0585 32.9128 24.2066 33.1954 24.2066C34.1594 24.1994 35.1307 24.203 36.1663 24.203Z" fill="url(#paint10_linear_901_734)"/>
</g>
<defs>
<filter id="filter0_d_901_734" x="0" y="0" width="105" height="109" filterUnits="userSpaceOnUse" color-interpolation-filters="sRGB">
<feFlood flood-opacity="0" result="BackgroundImageFix"/>
<feColorMatrix in="SourceAlpha" type="matrix" values="0 0 0 0 0 0 0 0 0 0 0 0 0 0 0 0 0 0 127 0" result="hardAlpha"/>
<feOffset dy="4"/>
<feGaussianBlur stdDeviation="2"/>
<feComposite in2="hardAlpha" operator="out"/>
<feColorMatrix type="matrix" values="0 0 0 0 0 0 0 0 0 0 0 0 0 0 0 0 0 0 0.25 0"/>
<feBlend mode="normal" in2="BackgroundImageFix" result="effect1_dropShadow_901_734"/>
<feBlend mode="normal" in="SourceGraphic" in2="effect1_dropShadow_901_734" result="shape"/>
</filter>
<linearGradient id="paint0_linear_901_734" x1="5.12478" y1="-0.782008" x2="62.5938" y2="56.8149" gradientUnits="userSpaceOnUse">
<stop stop-color="#4370B7"/>
<stop offset="0.66" stop-color="#2F4488"/>
<stop offset="1" stop-color="#273275"/>
</linearGradient>
<linearGradient id="paint1_linear_901_734" x1="8.12687" y1="-3.77811" x2="65.5959" y2="53.8206" gradientUnits="userSpaceOnUse">
<stop stop-color="#273275"/>
<stop offset="0.34" stop-color="#2F4488"/>
<stop offset="1" stop-color="#4370B7"/>
</linearGradient>
<linearGradient id="paint2_linear_901_734" x1="-0.589475" y1="4.9183" x2="56.8814" y2="62.5152" gradientUnits="userSpaceOnUse">
<stop stop-color="#273275"/>
<stop offset="0.34" stop-color="#2F4488"/>
<stop offset="1" stop-color="#4370B7"/>
</linearGradient>
<linearGradient id="paint3_linear_901_734" x1="4.07877" y1="0.262198" x2="61.5478" y2="57.8591" gradientUnits="userSpaceOnUse">
<stop stop-color="#4370B7"/>
<stop offset="0.66" stop-color="#2F4488"/>
<stop offset="1" stop-color="#273275"/>
</linearGradient>
<linearGradient id="paint4_linear_901_734" x1="-2.21412" y1="6.53914" x2="55.2549" y2="64.1378" gradientUnits="userSpaceOnUse">
<stop stop-color="#4370B7"/>
<stop offset="0.66" stop-color="#2F4488"/>
<stop offset="1" stop-color="#273275"/>
</linearGradient>
<linearGradient id="paint5_linear_901_734" x1="9.68641" y1="-5.33399" x2="67.1573" y2="52.2629" gradientUnits="userSpaceOnUse">
<stop stop-color="#273275"/>
<stop offset="0.34" stop-color="#2F4488"/>
<stop offset="1" stop-color="#4370B7"/>
</linearGradient>
<linearGradient id="paint6_linear_901_734" x1="-3.32097" y1="7.64315" x2="54.1499" y2="65.2401" gradientUnits="userSpaceOnUse">
<stop stop-color="#273275"/>
<stop offset="0.34" stop-color="#2F4488"/>
<stop offset="1" stop-color="#4370B7"/>
</linearGradient>
<linearGradient id="paint7_linear_901_734" x1="13.2744" y1="4.08462" x2="56.779" y2="4.08462" gradientUnits="userSpaceOnUse">
<stop stop-color="#4370B7"/>
<stop offset="0.66" stop-color="#2F4488"/>
<stop offset="1" stop-color="#273275"/>
</linearGradient>
<linearGradient id="paint8_linear_901_734" x1="27.4633" y1="14.5311" x2="42.1085" y2="14.5311" gradientUnits="userSpaceOnUse">
<stop stop-color="#273275"/>
<stop offset="0.34" stop-color="#2F4488"/>
<stop offset="1" stop-color="#4370B7"/>
</linearGradient>
<linearGradient id="paint9_linear_901_734" x1="27.4072" y1="27.6119" x2="42.1633" y2="27.6119" gradientUnits="userSpaceOnUse">
<stop stop-color="#273275"/>
<stop offset="0.34" stop-color="#2F4488"/>
<stop offset="1" stop-color="#4370B7"/>
</linearGradient>
<linearGradient id="paint10_linear_901_734" x1="32.8663" y1="20.8193" x2="36.2092" y2="20.8193" gradientUnits="userSpaceOnUse">
<stop stop-color="#273275"/>
<stop offset="0.34" stop-color="#2F4488"/>
<stop offset="1" stop-color="#4370B7"/>
</linearGradient>
<clipPath id="clip0_901_734">
<rect width="75" height="75" fill="white" transform="translate(4)"/>
</clipPath>
</defs>
</svg>
